G04*
G04 #@! TF.GenerationSoftware,Altium Limited,Altium Designer,24.10.1 (45)*
G04*
G04 Layer_Color=8388736*
%FSLAX25Y25*%
%MOIN*%
G70*
G04*
G04 #@! TF.SameCoordinates,188A72EA-56D5-4262-AEF0-458277A37510*
G04*
G04*
G04 #@! TF.FilePolarity,Negative*
G04*
G01*
G75*
%ADD73R,0.03550X0.03943*%
%ADD74R,0.08274X0.03156*%
%ADD75R,0.07487X0.07093*%
%ADD76R,0.03802X0.03575*%
%ADD77R,0.02762X0.04613*%
%ADD78R,0.03471X0.01778*%
%ADD79R,0.02756X0.05276*%
%ADD80R,0.01575X0.05276*%
%ADD81R,0.07480X0.03543*%
%ADD82O,0.08451X0.02715*%
%ADD83R,0.03575X0.03802*%
%ADD84R,0.09091X0.10605*%
%ADD85R,0.03943X0.03550*%
%ADD86R,0.09754X0.07880*%
%ADD87R,0.07880X0.09754*%
%ADD88R,0.13392X0.11030*%
%ADD89R,0.07880X0.10243*%
%ADD90R,0.03550X0.03550*%
%ADD91R,0.02762X0.04731*%
%ADD92R,0.03550X0.03550*%
%ADD93R,0.09455X0.14179*%
%ADD94R,0.04613X0.02762*%
%ADD95O,0.03150X0.09055*%
%ADD96R,0.13386X0.09449*%
%ADD97R,0.10321X0.16384*%
%ADD98R,0.11030X0.13392*%
%ADD99O,0.01750X0.07217*%
%ADD100R,0.14179X0.09455*%
%ADD101R,0.07097X0.05154*%
%ADD102R,0.03550X0.05518*%
%ADD103R,0.08668X0.12211*%
%ADD104R,0.16384X0.10321*%
%ADD105R,0.03753X0.05524*%
%ADD106R,0.05524X0.03753*%
%ADD107R,0.03156X0.05321*%
%ADD108R,0.08274X0.06306*%
%ADD109R,0.06247X0.07203*%
%ADD110R,0.09055X0.04528*%
%ADD111R,0.04528X0.04331*%
%ADD112R,0.03550X0.07093*%
%ADD113R,0.07093X0.07093*%
%ADD114R,0.01187X0.03550*%
%ADD115R,0.03550X0.01187*%
%ADD116O,0.07061X0.01833*%
%ADD117C,0.03550*%
%ADD118R,0.05124X0.05912*%
%ADD119R,0.11424X0.11424*%
%ADD120R,0.02762X0.01187*%
%ADD121R,0.01187X0.02762*%
%ADD122O,0.02880X0.07743*%
%ADD123R,0.01975X0.02762*%
%ADD124R,0.05321X0.03156*%
%ADD125R,0.02329X0.05026*%
%ADD126R,0.02329X0.04955*%
%ADD127O,0.07270X0.02605*%
%ADD128R,0.07087X0.08268*%
%ADD129R,0.06299X0.02362*%
%ADD130R,0.06299X0.06693*%
%ADD131R,0.09055X0.05118*%
%ADD132R,0.06299X0.05118*%
%ADD133R,0.06693X0.03150*%
%ADD134R,0.08461X0.09223*%
%ADD135O,0.04331X0.08662*%
%ADD136O,0.04331X0.07480*%
%ADD137C,0.03359*%
%ADD138R,0.10800X0.16800*%
%ADD139R,0.16800X0.10800*%
%ADD140C,0.11800*%
%ADD141C,0.13386*%
%ADD142C,0.09849*%
%ADD143C,0.11400*%
%ADD144R,0.09800X0.08300*%
%ADD145O,0.09800X0.08300*%
%ADD146C,0.07487*%
%ADD147R,0.07487X0.07487*%
%ADD148C,0.04737*%
%ADD149C,0.13595*%
%ADD150C,0.08274*%
%ADD151C,0.06400*%
%ADD152R,0.06400X0.06400*%
%ADD153C,0.09849*%
%ADD154C,0.03556*%
%ADD155C,0.05131*%
%ADD156C,0.03162*%
%ADD157C,0.11824*%
D73*
X286759Y368574D02*
D03*
X292270D02*
D03*
X232349Y90767D02*
D03*
X226838D02*
D03*
X290355Y248229D02*
D03*
X295866D02*
D03*
X283858Y248228D02*
D03*
X278347D02*
D03*
X139867Y58466D02*
D03*
X134356D02*
D03*
X139810Y51517D02*
D03*
X134299D02*
D03*
X31868Y60970D02*
D03*
X37379D02*
D03*
X524471Y419428D02*
D03*
X529982D02*
D03*
X284459Y423927D02*
D03*
X278948D02*
D03*
X311834Y424497D02*
D03*
X306323D02*
D03*
X57807Y182629D02*
D03*
X63318D02*
D03*
X137598Y190354D02*
D03*
X132087D02*
D03*
X132227Y157715D02*
D03*
X137738D02*
D03*
X132003Y171277D02*
D03*
X137514D02*
D03*
X464147Y292853D02*
D03*
X469658D02*
D03*
X331586Y378027D02*
D03*
X326075D02*
D03*
X331586Y371475D02*
D03*
X326075D02*
D03*
X407716Y401063D02*
D03*
X402205D02*
D03*
X475196Y76248D02*
D03*
X469685D02*
D03*
X236118Y147313D02*
D03*
X241629D02*
D03*
X275144Y96491D02*
D03*
X280655D02*
D03*
X322358Y94870D02*
D03*
X327870D02*
D03*
X307081Y192858D02*
D03*
X312592D02*
D03*
X307081Y186129D02*
D03*
X312592D02*
D03*
X483456Y202700D02*
D03*
X488967D02*
D03*
X483321Y195821D02*
D03*
X488832D02*
D03*
D74*
X304434Y337662D02*
D03*
Y343567D02*
D03*
D75*
X299463Y357282D02*
D03*
X282200D02*
D03*
X65626Y67396D02*
D03*
X48363D02*
D03*
X117974Y310582D02*
D03*
X100711D02*
D03*
X52401Y310547D02*
D03*
X35138D02*
D03*
X182661Y311000D02*
D03*
X165398D02*
D03*
D76*
X218838Y85147D02*
D03*
Y79216D02*
D03*
X291289Y84944D02*
D03*
Y90875D02*
D03*
X288655Y47182D02*
D03*
Y53113D02*
D03*
X268188Y47182D02*
D03*
Y53113D02*
D03*
X336142D02*
D03*
Y47182D02*
D03*
X407481Y113260D02*
D03*
Y107329D02*
D03*
X147749Y42507D02*
D03*
Y48438D02*
D03*
X133970Y28753D02*
D03*
Y22822D02*
D03*
X126390Y34049D02*
D03*
Y39980D02*
D03*
X122326Y51749D02*
D03*
Y45818D02*
D03*
X111077Y32535D02*
D03*
Y38465D02*
D03*
X105003Y38355D02*
D03*
Y32424D02*
D03*
X82823Y16362D02*
D03*
Y22293D02*
D03*
X101415Y16366D02*
D03*
Y22297D02*
D03*
X88770Y16354D02*
D03*
Y22285D02*
D03*
X95028Y62542D02*
D03*
Y68473D02*
D03*
X138268Y132659D02*
D03*
Y126728D02*
D03*
X132397D02*
D03*
Y132659D02*
D03*
X107177Y126728D02*
D03*
Y132659D02*
D03*
X119881Y126728D02*
D03*
Y132659D02*
D03*
X81423Y288879D02*
D03*
Y294810D02*
D03*
X69219Y288879D02*
D03*
Y294810D02*
D03*
X197833Y288879D02*
D03*
Y294810D02*
D03*
X144246Y288879D02*
D03*
Y294810D02*
D03*
X133792Y288879D02*
D03*
Y294810D02*
D03*
X17681Y288879D02*
D03*
Y294810D02*
D03*
X269845Y411489D02*
D03*
Y417420D02*
D03*
X298195Y411188D02*
D03*
Y417119D02*
D03*
X138622Y143380D02*
D03*
Y149311D02*
D03*
X366702Y337174D02*
D03*
Y331243D02*
D03*
X401096Y384588D02*
D03*
Y390519D02*
D03*
X378900Y384268D02*
D03*
Y390199D02*
D03*
X352974Y401591D02*
D03*
Y395660D02*
D03*
X325878Y395457D02*
D03*
Y401388D02*
D03*
X330073Y427689D02*
D03*
Y421758D02*
D03*
X400956Y374652D02*
D03*
Y368721D02*
D03*
X365486Y368365D02*
D03*
Y374296D02*
D03*
X378605Y374332D02*
D03*
Y368401D02*
D03*
X389786Y167076D02*
D03*
Y161145D02*
D03*
X396200Y167076D02*
D03*
Y161145D02*
D03*
X492235Y109828D02*
D03*
Y115759D02*
D03*
X492842Y64644D02*
D03*
Y70575D02*
D03*
X498365Y42250D02*
D03*
Y48181D02*
D03*
X500115Y64642D02*
D03*
Y70573D02*
D03*
X500231Y110020D02*
D03*
Y115951D02*
D03*
X485944Y109839D02*
D03*
Y115770D02*
D03*
X486746Y42094D02*
D03*
Y48025D02*
D03*
X485155Y70565D02*
D03*
Y64634D02*
D03*
X468006Y104044D02*
D03*
Y98113D02*
D03*
X476064Y98266D02*
D03*
Y104197D02*
D03*
X268742Y85141D02*
D03*
Y91072D02*
D03*
X225370Y48119D02*
D03*
Y54050D02*
D03*
X236498Y48119D02*
D03*
Y54050D02*
D03*
X315918Y47182D02*
D03*
Y53113D02*
D03*
X242584Y84621D02*
D03*
Y78690D02*
D03*
X315260Y82769D02*
D03*
Y88700D02*
D03*
X337653Y88503D02*
D03*
Y82572D02*
D03*
X349853Y183670D02*
D03*
Y177739D02*
D03*
X350021Y165579D02*
D03*
Y171510D02*
D03*
X464770Y398370D02*
D03*
Y404301D02*
D03*
X470930Y398334D02*
D03*
Y404264D02*
D03*
X458740Y398333D02*
D03*
Y404264D02*
D03*
X462104Y184282D02*
D03*
Y190213D02*
D03*
Y197071D02*
D03*
Y203002D02*
D03*
X433036Y30511D02*
D03*
Y36442D02*
D03*
X359849Y30488D02*
D03*
Y36419D02*
D03*
D77*
X229303Y63050D02*
D03*
X233043Y72774D02*
D03*
X225563D02*
D03*
X185236Y181831D02*
D03*
X181496Y172106D02*
D03*
X188976D02*
D03*
X274253Y78766D02*
D03*
X281733D02*
D03*
X277993Y69042D02*
D03*
X321512Y76560D02*
D03*
X328992D02*
D03*
X325252Y66836D02*
D03*
X452325Y397062D02*
D03*
X444845D02*
D03*
X448585Y406786D02*
D03*
D78*
X233053Y83987D02*
D03*
Y81428D02*
D03*
Y78869D02*
D03*
X225572D02*
D03*
Y81428D02*
D03*
Y83987D02*
D03*
X274311Y89984D02*
D03*
Y87425D02*
D03*
Y84866D02*
D03*
X281791D02*
D03*
Y87425D02*
D03*
Y89984D02*
D03*
X321477Y88064D02*
D03*
Y85505D02*
D03*
Y82946D02*
D03*
X328957D02*
D03*
Y85505D02*
D03*
Y88064D02*
D03*
D79*
X312227Y36234D02*
D03*
X315376D02*
D03*
X334275D02*
D03*
X337424Y36234D02*
D03*
X290763Y35844D02*
D03*
X287614Y35844D02*
D03*
X268716D02*
D03*
X265566D02*
D03*
X241419Y36075D02*
D03*
X238270Y36075D02*
D03*
X219372D02*
D03*
X216223D02*
D03*
D80*
X317936Y36234D02*
D03*
X319905D02*
D03*
X321873D02*
D03*
X323842D02*
D03*
X325810D02*
D03*
X327779D02*
D03*
X329747D02*
D03*
X331716D02*
D03*
X285055Y35844D02*
D03*
X283085D02*
D03*
X281118D02*
D03*
X279149D02*
D03*
X277181D02*
D03*
X275212D02*
D03*
X273243D02*
D03*
X271275D02*
D03*
X235711Y36075D02*
D03*
X233742D02*
D03*
X231774D02*
D03*
X229805D02*
D03*
X227837D02*
D03*
X225868D02*
D03*
X223900D02*
D03*
X221931D02*
D03*
D81*
X265508Y312427D02*
D03*
X265508Y308096D02*
D03*
X265508Y303765D02*
D03*
X265508Y299435D02*
D03*
X265508Y295104D02*
D03*
X265508Y290773D02*
D03*
X265509Y286443D02*
D03*
X265509Y274632D02*
D03*
X265508Y270301D02*
D03*
X265508Y265970D02*
D03*
X265508Y261639D02*
D03*
X265509Y257309D02*
D03*
X313539Y257309D02*
D03*
X313538Y261639D02*
D03*
X313538Y265970D02*
D03*
X313539Y270301D02*
D03*
X313539Y274632D02*
D03*
X313539Y286443D02*
D03*
X313538Y290773D02*
D03*
X313538Y295104D02*
D03*
X313539Y299435D02*
D03*
X313538Y303765D02*
D03*
X313538Y308096D02*
D03*
X313539Y312427D02*
D03*
D82*
X269039Y241062D02*
D03*
Y236062D02*
D03*
Y231062D02*
D03*
Y226062D02*
D03*
X290870Y241062D02*
D03*
Y236062D02*
D03*
Y231062D02*
D03*
Y226062D02*
D03*
D83*
X309415Y235598D02*
D03*
X303484D02*
D03*
X309629Y226976D02*
D03*
X303698D02*
D03*
X303302Y243439D02*
D03*
X309233D02*
D03*
X433281Y197047D02*
D03*
X427350D02*
D03*
X170565Y150239D02*
D03*
X164634D02*
D03*
X31801Y67710D02*
D03*
X37732D02*
D03*
X53704Y111423D02*
D03*
X59635D02*
D03*
X255133Y304359D02*
D03*
X249202D02*
D03*
X94034Y314579D02*
D03*
X88103D02*
D03*
X157966Y314000D02*
D03*
X152034D02*
D03*
X27336Y314325D02*
D03*
X21405D02*
D03*
X235841Y401351D02*
D03*
X229910D02*
D03*
X138022Y183768D02*
D03*
X132091D02*
D03*
X137859Y164212D02*
D03*
X131928D02*
D03*
X132089Y177896D02*
D03*
X138020D02*
D03*
X306652Y178893D02*
D03*
X312583D02*
D03*
X427208Y204691D02*
D03*
X433139D02*
D03*
X446951Y331197D02*
D03*
X452882D02*
D03*
X469698Y286221D02*
D03*
X463767D02*
D03*
X331742Y364814D02*
D03*
X325811D02*
D03*
X331577Y385777D02*
D03*
X325646D02*
D03*
X415423Y400627D02*
D03*
X421354D02*
D03*
X362597Y139337D02*
D03*
X368528D02*
D03*
X362591Y132023D02*
D03*
X368522D02*
D03*
X377080Y124722D02*
D03*
X371149D02*
D03*
X362439Y153181D02*
D03*
X368370D02*
D03*
X362587Y146202D02*
D03*
X368518D02*
D03*
X401646Y152790D02*
D03*
X395715D02*
D03*
X401807Y129124D02*
D03*
X395876D02*
D03*
X257694Y120119D02*
D03*
X251763D02*
D03*
X257706Y126110D02*
D03*
X251775D02*
D03*
X306652Y164997D02*
D03*
X312583D02*
D03*
Y158841D02*
D03*
X306652D02*
D03*
X312583Y172827D02*
D03*
X306652D02*
D03*
X301919Y146984D02*
D03*
X295988D02*
D03*
X301921Y140560D02*
D03*
X295990D02*
D03*
X473944Y149116D02*
D03*
X468013D02*
D03*
X476514Y196904D02*
D03*
X470583D02*
D03*
X476440Y202854D02*
D03*
X470509D02*
D03*
X473944Y157584D02*
D03*
X468013D02*
D03*
X473944Y175074D02*
D03*
X468013D02*
D03*
X473944Y166310D02*
D03*
X468013D02*
D03*
X473944Y131610D02*
D03*
X468013D02*
D03*
X473944Y140329D02*
D03*
X468013D02*
D03*
D84*
X127609Y87507D02*
D03*
X155257D02*
D03*
X58729Y168769D02*
D03*
X31082D02*
D03*
D85*
X119618Y34237D02*
D03*
Y39748D02*
D03*
X171749Y50590D02*
D03*
Y56101D02*
D03*
X171569Y43700D02*
D03*
Y38189D02*
D03*
X77602Y49565D02*
D03*
Y55076D02*
D03*
X88611Y62954D02*
D03*
Y68465D02*
D03*
X95040Y22154D02*
D03*
Y16643D02*
D03*
X19324Y93310D02*
D03*
Y98821D02*
D03*
X107283Y193109D02*
D03*
Y187598D02*
D03*
X100394Y193109D02*
D03*
Y187598D02*
D03*
X226291Y412141D02*
D03*
Y417652D02*
D03*
X321850Y313582D02*
D03*
Y308071D02*
D03*
X328739Y313477D02*
D03*
Y307966D02*
D03*
X114426Y97491D02*
D03*
Y103002D02*
D03*
X166370Y106626D02*
D03*
Y112137D02*
D03*
X166148Y94536D02*
D03*
Y100047D02*
D03*
X103400Y149696D02*
D03*
Y144185D02*
D03*
X132160Y143804D02*
D03*
Y149315D02*
D03*
X103400Y156722D02*
D03*
Y162233D02*
D03*
X401591Y331234D02*
D03*
Y336745D02*
D03*
X394607Y331234D02*
D03*
Y336745D02*
D03*
X339449Y395652D02*
D03*
Y401162D02*
D03*
X332428Y401162D02*
D03*
Y395651D02*
D03*
X387524Y384579D02*
D03*
Y390090D02*
D03*
X394525Y390089D02*
D03*
Y384578D02*
D03*
X372484Y384594D02*
D03*
Y390105D02*
D03*
X359483Y384481D02*
D03*
Y389992D02*
D03*
X366176Y384648D02*
D03*
Y390159D02*
D03*
X346482Y395652D02*
D03*
Y401162D02*
D03*
X359141Y426609D02*
D03*
Y421098D02*
D03*
X352259Y426580D02*
D03*
Y421069D02*
D03*
X394347Y369151D02*
D03*
Y374662D02*
D03*
X359187Y368494D02*
D03*
Y374005D02*
D03*
X372189Y374009D02*
D03*
Y368498D02*
D03*
X387324Y369151D02*
D03*
Y374662D02*
D03*
X377570Y113085D02*
D03*
Y107574D02*
D03*
X384720Y113085D02*
D03*
Y107574D02*
D03*
X393054Y113085D02*
D03*
Y107574D02*
D03*
X400547Y113085D02*
D03*
Y107574D02*
D03*
X375846Y161136D02*
D03*
Y166647D02*
D03*
X383105Y161136D02*
D03*
Y166647D02*
D03*
X430064Y140715D02*
D03*
Y135204D02*
D03*
X407630Y135219D02*
D03*
Y140730D02*
D03*
X507312Y94437D02*
D03*
Y88927D02*
D03*
X461668Y91444D02*
D03*
Y85932D02*
D03*
X209900Y125566D02*
D03*
Y131077D02*
D03*
X202119Y125657D02*
D03*
Y131168D02*
D03*
X302395Y121784D02*
D03*
Y127295D02*
D03*
X295589Y121870D02*
D03*
Y127381D02*
D03*
X514721Y405584D02*
D03*
Y411095D02*
D03*
X433185Y75142D02*
D03*
Y80653D02*
D03*
X361260Y86544D02*
D03*
Y81033D02*
D03*
D86*
X161892Y60279D02*
D03*
Y45330D02*
D03*
D87*
X124310Y68607D02*
D03*
X139260D02*
D03*
X428071Y375028D02*
D03*
X413122D02*
D03*
D88*
X165945Y188726D02*
D03*
Y159699D02*
D03*
X80118Y243450D02*
D03*
Y214424D02*
D03*
Y202702D02*
D03*
Y173676D02*
D03*
X86731Y150525D02*
D03*
Y121498D02*
D03*
D89*
X148403Y21880D02*
D03*
X164545D02*
D03*
D90*
X147874Y54338D02*
D03*
X147847Y60633D02*
D03*
X113575Y126563D02*
D03*
X113548Y132858D02*
D03*
X126230Y126563D02*
D03*
X126203Y132858D02*
D03*
D91*
X137397Y35773D02*
D03*
X133658Y46009D02*
D03*
X141138Y46009D02*
D03*
X141137Y35772D02*
D03*
X133657Y35773D02*
D03*
D92*
X31554Y74684D02*
D03*
X37849Y74712D02*
D03*
X255332Y310782D02*
D03*
X249037Y310754D02*
D03*
X94069Y308080D02*
D03*
X87774Y308052D02*
D03*
X158343Y307993D02*
D03*
X152048Y307965D02*
D03*
X27501Y307930D02*
D03*
X21206Y307903D02*
D03*
D93*
X30565Y36730D02*
D03*
X69542Y36729D02*
D03*
D94*
X37024Y113000D02*
D03*
X46749Y109259D02*
D03*
Y116740D02*
D03*
X94744Y173425D02*
D03*
X104469Y169685D02*
D03*
Y177165D02*
D03*
X468872Y182969D02*
D03*
Y190450D02*
D03*
X478596Y186710D02*
D03*
D95*
X84089Y31038D02*
D03*
X89089D02*
D03*
X94089D02*
D03*
X99089D02*
D03*
X84089Y54838D02*
D03*
X89089D02*
D03*
X94089D02*
D03*
X99089D02*
D03*
D96*
X91589Y42938D02*
D03*
D97*
X62449Y96735D02*
D03*
X28827D02*
D03*
X73189Y267000D02*
D03*
X106811D02*
D03*
X124001Y106239D02*
D03*
X157623D02*
D03*
D98*
X73487Y97000D02*
D03*
X102513D02*
D03*
D99*
X109027Y146940D02*
D03*
X111586D02*
D03*
X114146D02*
D03*
X116705D02*
D03*
X119264D02*
D03*
X121823D02*
D03*
X124382D02*
D03*
X126941D02*
D03*
X109027Y169505D02*
D03*
X111586D02*
D03*
X114146D02*
D03*
X116705D02*
D03*
X119264D02*
D03*
X121823D02*
D03*
X124382D02*
D03*
X126941D02*
D03*
D100*
X116536Y246260D02*
D03*
X116535Y207283D02*
D03*
D101*
X116339Y192436D02*
D03*
Y180792D02*
D03*
D102*
X405563Y418225D02*
D03*
X400641D02*
D03*
X395720D02*
D03*
X390799D02*
D03*
X436120Y418802D02*
D03*
X441041D02*
D03*
X445962D02*
D03*
X450884D02*
D03*
X479897Y418514D02*
D03*
X484819D02*
D03*
X489740D02*
D03*
X494661D02*
D03*
D103*
X380760Y429052D02*
D03*
X415602D02*
D03*
X460923Y429629D02*
D03*
X426081D02*
D03*
X504701Y429341D02*
D03*
X469858D02*
D03*
D104*
X179000Y235189D02*
D03*
Y268811D02*
D03*
D105*
X391656Y321523D02*
D03*
X396656D02*
D03*
X401656D02*
D03*
X406656D02*
D03*
X411656D02*
D03*
X416656D02*
D03*
X421656D02*
D03*
X426656D02*
D03*
X431656D02*
D03*
X436656D02*
D03*
X441656D02*
D03*
X446656D02*
D03*
X451656D02*
D03*
X386656D02*
D03*
X381656D02*
D03*
X376656D02*
D03*
X371656D02*
D03*
X366656D02*
D03*
X361656D02*
D03*
X356656D02*
D03*
X356419Y215224D02*
D03*
X361420D02*
D03*
X366420D02*
D03*
X371420D02*
D03*
X376419D02*
D03*
X381419D02*
D03*
X386420D02*
D03*
X451419D02*
D03*
X446419D02*
D03*
X441420D02*
D03*
X436419D02*
D03*
X431420D02*
D03*
X426419D02*
D03*
X421419D02*
D03*
X416420D02*
D03*
X411419D02*
D03*
X406420D02*
D03*
X401419D02*
D03*
X396420D02*
D03*
X391420D02*
D03*
D106*
X350868Y220971D02*
D03*
Y225972D02*
D03*
Y230972D02*
D03*
Y235971D02*
D03*
Y240971D02*
D03*
Y245971D02*
D03*
Y250972D02*
D03*
Y315971D02*
D03*
Y310971D02*
D03*
Y305972D02*
D03*
Y300972D02*
D03*
Y295971D02*
D03*
Y290971D02*
D03*
Y285971D02*
D03*
Y280972D02*
D03*
Y275972D02*
D03*
Y270971D02*
D03*
Y265971D02*
D03*
Y260971D02*
D03*
Y255972D02*
D03*
X457167Y255853D02*
D03*
Y260853D02*
D03*
Y265853D02*
D03*
Y270853D02*
D03*
Y275853D02*
D03*
Y280853D02*
D03*
Y285853D02*
D03*
Y290853D02*
D03*
Y295853D02*
D03*
Y300853D02*
D03*
Y305853D02*
D03*
Y310853D02*
D03*
Y315853D02*
D03*
Y250853D02*
D03*
Y245853D02*
D03*
Y240853D02*
D03*
Y235853D02*
D03*
Y230853D02*
D03*
Y225853D02*
D03*
Y220853D02*
D03*
D107*
X134220Y307036D02*
D03*
X126739D02*
D03*
X130479Y314910D02*
D03*
X69005Y306509D02*
D03*
X61524D02*
D03*
X65265Y314383D02*
D03*
X197071Y308462D02*
D03*
X189590D02*
D03*
X193331Y316335D02*
D03*
X476862Y389808D02*
D03*
X473122Y381935D02*
D03*
X480602D02*
D03*
D108*
X152636Y295974D02*
D03*
Y285974D02*
D03*
X189250D02*
D03*
Y295974D02*
D03*
X89134D02*
D03*
Y285974D02*
D03*
X125748D02*
D03*
Y295974D02*
D03*
X25394D02*
D03*
Y285974D02*
D03*
X62008D02*
D03*
Y295974D02*
D03*
D109*
X534775Y405198D02*
D03*
X522235Y405195D02*
D03*
D110*
X240708Y410292D02*
D03*
Y421907D02*
D03*
D111*
X234706Y416099D02*
D03*
D112*
X274771Y414893D02*
D03*
X288157D02*
D03*
X302882Y415116D02*
D03*
X316268D02*
D03*
D113*
X346911Y378637D02*
D03*
D114*
X343660Y385053D02*
D03*
X345235D02*
D03*
X346811D02*
D03*
X348384D02*
D03*
X349959D02*
D03*
X349958Y373242D02*
D03*
X348383D02*
D03*
X346810D02*
D03*
X345234D02*
D03*
X343659D02*
D03*
D115*
X352715Y382298D02*
D03*
Y380723D02*
D03*
Y379148D02*
D03*
Y377573D02*
D03*
Y375998D02*
D03*
X340904D02*
D03*
Y377573D02*
D03*
Y379148D02*
D03*
Y380723D02*
D03*
Y382298D02*
D03*
D116*
X410167Y393475D02*
D03*
Y390916D02*
D03*
Y388357D02*
D03*
Y385798D02*
D03*
X427065Y393475D02*
D03*
Y390916D02*
D03*
Y388357D02*
D03*
Y385798D02*
D03*
D117*
X336529Y428189D02*
D03*
Y418504D02*
D03*
X343222D02*
D03*
Y428189D02*
D03*
D118*
X415728Y141840D02*
D03*
Y133179D02*
D03*
X422421D02*
D03*
Y141840D02*
D03*
D119*
X386613Y140899D02*
D03*
D120*
X394487Y135387D02*
D03*
Y136962D02*
D03*
Y138537D02*
D03*
Y140112D02*
D03*
Y141686D02*
D03*
Y143261D02*
D03*
Y144836D02*
D03*
Y146411D02*
D03*
X378739D02*
D03*
Y144836D02*
D03*
Y143261D02*
D03*
Y141686D02*
D03*
Y140112D02*
D03*
Y138537D02*
D03*
Y136962D02*
D03*
Y135387D02*
D03*
D121*
X392125Y148773D02*
D03*
X390550D02*
D03*
X388975D02*
D03*
X387400D02*
D03*
X385826D02*
D03*
X384251D02*
D03*
X382676D02*
D03*
X381101D02*
D03*
Y133025D02*
D03*
X382676D02*
D03*
X384251D02*
D03*
X385826D02*
D03*
X387400D02*
D03*
X388975D02*
D03*
X390550D02*
D03*
X392125D02*
D03*
D122*
X500353Y101217D02*
D03*
X495353D02*
D03*
X490353D02*
D03*
X485353D02*
D03*
X500353Y80095D02*
D03*
X495353D02*
D03*
X490353D02*
D03*
X485353D02*
D03*
D123*
X499811Y53509D02*
D03*
Y59414D02*
D03*
X485573Y53257D02*
D03*
Y59163D02*
D03*
X492943Y53989D02*
D03*
Y59895D02*
D03*
X281552Y45756D02*
D03*
Y51662D02*
D03*
X275509Y45756D02*
D03*
Y51662D02*
D03*
X323005Y45756D02*
D03*
Y51662D02*
D03*
X329052Y45756D02*
D03*
Y51662D02*
D03*
D124*
X466713Y113727D02*
D03*
X474586Y109987D02*
D03*
Y117468D02*
D03*
X258710Y110282D02*
D03*
X250837Y114022D02*
D03*
Y106542D02*
D03*
X258661Y136257D02*
D03*
X250787Y139997D02*
D03*
Y132516D02*
D03*
D125*
X475945Y82724D02*
D03*
X468465D02*
D03*
D126*
Y91809D02*
D03*
X472205D02*
D03*
X475945D02*
D03*
D127*
X242047Y105671D02*
D03*
Y110671D02*
D03*
Y115671D02*
D03*
Y120671D02*
D03*
Y125671D02*
D03*
Y130671D02*
D03*
Y135671D02*
D03*
Y140671D02*
D03*
X219428Y105671D02*
D03*
Y110671D02*
D03*
Y115671D02*
D03*
Y120671D02*
D03*
Y125671D02*
D03*
Y130671D02*
D03*
Y135671D02*
D03*
Y140671D02*
D03*
D128*
X278846Y122160D02*
D03*
X278228Y194601D02*
D03*
X333247D02*
D03*
X333865Y122160D02*
D03*
D129*
X288464Y185939D02*
D03*
X288464Y182003D02*
D03*
Y178065D02*
D03*
Y174129D02*
D03*
Y170191D02*
D03*
Y166255D02*
D03*
Y162317D02*
D03*
Y158381D02*
D03*
Y154443D02*
D03*
Y150507D02*
D03*
Y146569D02*
D03*
Y142633D02*
D03*
Y138695D02*
D03*
Y134759D02*
D03*
Y130821D02*
D03*
X323629Y130821D02*
D03*
X323629Y134758D02*
D03*
Y138695D02*
D03*
Y142632D02*
D03*
Y146569D02*
D03*
Y150506D02*
D03*
Y154443D02*
D03*
Y158380D02*
D03*
Y162317D02*
D03*
Y166254D02*
D03*
Y170191D02*
D03*
Y174128D02*
D03*
Y178065D02*
D03*
Y182002D02*
D03*
Y185939D02*
D03*
D130*
X489719Y187625D02*
D03*
D131*
X527514Y191168D02*
D03*
Y130144D02*
D03*
D132*
X489719Y130145D02*
D03*
D133*
X485782Y134869D02*
D03*
X485782Y139199D02*
D03*
Y143530D02*
D03*
Y147861D02*
D03*
Y152192D02*
D03*
Y156522D02*
D03*
Y160853D02*
D03*
Y165184D02*
D03*
Y169514D02*
D03*
D134*
X443671Y384850D02*
D03*
X464075D02*
D03*
D135*
X341833Y33793D02*
D03*
X307818D02*
D03*
X261157Y33403D02*
D03*
X295172D02*
D03*
X211813Y33635D02*
D03*
X245829D02*
D03*
D136*
X341833Y17336D02*
D03*
X307818D02*
D03*
X261157Y16946D02*
D03*
X295172D02*
D03*
X211813Y17177D02*
D03*
X245829D02*
D03*
D137*
X313409Y31825D02*
D03*
X336204D02*
D03*
X289543Y31435D02*
D03*
X266747D02*
D03*
X240199Y31666D02*
D03*
X217404D02*
D03*
D138*
X68666Y141786D02*
D03*
X43666D02*
D03*
D139*
X58666Y121786D02*
D03*
D140*
X535738Y249262D02*
D03*
X536000Y209000D02*
D03*
Y229000D02*
D03*
X456056Y16825D02*
D03*
X516096Y16864D02*
D03*
X496063Y16831D02*
D03*
X476056Y16825D02*
D03*
D141*
X19000Y15000D02*
D03*
X548000Y431000D02*
D03*
Y19000D02*
D03*
D142*
X73586Y419244D02*
D03*
X93271D02*
D03*
X122752D02*
D03*
X142437D02*
D03*
X23998D02*
D03*
X43683D02*
D03*
X171889D02*
D03*
X191574D02*
D03*
X45890Y218627D02*
D03*
Y198942D02*
D03*
D143*
X148643Y380818D02*
D03*
X195885Y332786D02*
D03*
X148641D02*
D03*
X172263Y324912D02*
D03*
X195883Y380817D02*
D03*
X20128Y380818D02*
D03*
X67370Y332786D02*
D03*
X20126D02*
D03*
X43748Y324912D02*
D03*
X67368Y380817D02*
D03*
X84367Y380818D02*
D03*
X131609Y332786D02*
D03*
X84365D02*
D03*
X107987Y324912D02*
D03*
X131607Y380817D02*
D03*
D144*
X532343Y82133D02*
D03*
D145*
Y92133D02*
D03*
Y102133D02*
D03*
Y112133D02*
D03*
D146*
X530000Y389000D02*
D03*
X540000D02*
D03*
X530000Y379000D02*
D03*
X540000D02*
D03*
X530000Y369000D02*
D03*
X540000D02*
D03*
X530000Y359000D02*
D03*
X540000D02*
D03*
X530000Y349000D02*
D03*
X540000D02*
D03*
X530000Y339000D02*
D03*
X540000D02*
D03*
X530000Y329000D02*
D03*
X540000D02*
D03*
X530000Y319000D02*
D03*
X540000D02*
D03*
X530000Y309000D02*
D03*
X540000D02*
D03*
X530000Y299000D02*
D03*
X540000D02*
D03*
X530000Y289000D02*
D03*
X540000D02*
D03*
X530000Y279000D02*
D03*
X540000D02*
D03*
X530000Y269000D02*
D03*
D147*
X540000D02*
D03*
D148*
X529089Y172664D02*
D03*
Y141168D02*
D03*
D149*
X419705Y51138D02*
D03*
X374745D02*
D03*
D150*
X381142Y31847D02*
D03*
X413308D02*
D03*
X423309D02*
D03*
X371143D02*
D03*
D151*
X409746Y76138D02*
D03*
X404705Y86138D02*
D03*
X389745Y76138D02*
D03*
X384705Y86138D02*
D03*
X394706D02*
D03*
X399745Y76138D02*
D03*
X414706Y86138D02*
D03*
D152*
X379746Y76138D02*
D03*
D153*
X366714Y63146D02*
D03*
X427738D02*
D03*
D154*
X399213Y116732D02*
D03*
X170472Y147244D02*
D03*
X180259Y159875D02*
D03*
X294488Y84842D02*
D03*
X222050Y54050D02*
D03*
X312887Y53113D02*
D03*
X215748Y85236D02*
D03*
X265551Y91142D02*
D03*
X265158Y47244D02*
D03*
X312402Y88700D02*
D03*
X327870Y98131D02*
D03*
X176181Y159843D02*
D03*
X176378Y163779D02*
D03*
X180512Y163976D02*
D03*
X359316Y132023D02*
D03*
X359416Y139337D02*
D03*
X359391Y146202D02*
D03*
X359221Y153181D02*
D03*
X401646Y155977D02*
D03*
X399360Y167076D02*
D03*
X370866Y161417D02*
D03*
X374305Y113085D02*
D03*
X391535Y116929D02*
D03*
X469685Y73228D02*
D03*
X466862Y76248D02*
D03*
X431724Y390916D02*
D03*
X424373Y400627D02*
D03*
X263835Y236063D02*
D03*
X263836Y231062D02*
D03*
Y226062D02*
D03*
X91984Y44961D02*
D03*
X95984D02*
D03*
Y41961D02*
D03*
X91984D02*
D03*
X87984Y44961D02*
D03*
Y41961D02*
D03*
X112662Y141157D02*
D03*
X258019Y310782D02*
D03*
X304366Y186129D02*
D03*
X399489Y401063D02*
D03*
X346000Y378000D02*
D03*
X348000D02*
D03*
Y380000D02*
D03*
X346000D02*
D03*
X352071Y373045D02*
D03*
X340707Y374620D02*
D03*
X111586Y151652D02*
D03*
X488168Y53257D02*
D03*
X239699Y54050D02*
D03*
X246115Y78690D02*
D03*
X232349Y94517D02*
D03*
X280655Y99999D02*
D03*
X337653Y80084D02*
D03*
X359849Y39849D02*
D03*
X361260Y77740D02*
D03*
X377570Y104858D02*
D03*
X384720D02*
D03*
X393000Y104910D02*
D03*
X400547Y104858D02*
D03*
X433185Y83369D02*
D03*
X461668Y83217D02*
D03*
X502011Y59414D02*
D03*
X503067Y64642D02*
D03*
X485353Y84647D02*
D03*
X507115Y97352D02*
D03*
X224000Y141000D02*
D03*
X288464Y188536D02*
D03*
X283871Y174129D02*
D03*
X284317Y162317D02*
D03*
X283507Y150507D02*
D03*
X283695Y138695D02*
D03*
X328254Y166254D02*
D03*
X327557Y154443D02*
D03*
X326667Y142632D02*
D03*
X323629Y128371D02*
D03*
X371136Y121534D02*
D03*
X372975Y166647D02*
D03*
X383000Y170000D02*
D03*
X389786Y169786D02*
D03*
X407630Y132503D02*
D03*
X401807Y132193D02*
D03*
X490139Y147861D02*
D03*
X210000Y134213D02*
D03*
X469658Y297386D02*
D03*
X371420Y219420D02*
D03*
X356419D02*
D03*
X354972Y260971D02*
D03*
Y295971D02*
D03*
X421656Y318344D02*
D03*
X441656Y317656D02*
D03*
X453147Y310853D02*
D03*
Y315853D02*
D03*
D155*
X480512Y156693D02*
D03*
X441732Y221260D02*
D03*
X463779Y303346D02*
D03*
X290355Y251968D02*
D03*
X304528Y334252D02*
D03*
X310433Y343701D02*
D03*
X304920Y357282D02*
D03*
X292126Y372835D02*
D03*
X270472Y405512D02*
D03*
X288157Y409157D02*
D03*
X57284Y178937D02*
D03*
X119618Y30641D02*
D03*
X126378Y30709D02*
D03*
X111696Y42108D02*
D03*
X188659Y11811D02*
D03*
X182480D02*
D03*
X192126Y171653D02*
D03*
X436811Y204528D02*
D03*
X423537Y197047D02*
D03*
X437120D02*
D03*
X179000Y227000D02*
D03*
X322244Y364764D02*
D03*
X337402Y364567D02*
D03*
X221850Y69291D02*
D03*
X222047Y73622D02*
D03*
X162008Y65945D02*
D03*
X147835Y64173D02*
D03*
X145669Y73425D02*
D03*
X151772Y42717D02*
D03*
X129724Y22835D02*
D03*
X88770Y13175D02*
D03*
X28346Y53347D02*
D03*
X28150Y61024D02*
D03*
X100984Y120866D02*
D03*
X142126Y126969D02*
D03*
X108661Y177362D02*
D03*
X99714Y149696D02*
D03*
X99606Y156693D02*
D03*
X103347Y132677D02*
D03*
X118681Y137036D02*
D03*
X46654Y121063D02*
D03*
X238270Y42045D02*
D03*
X219372Y42656D02*
D03*
X222028Y90767D02*
D03*
X270840Y78766D02*
D03*
X270506Y96491D02*
D03*
X287614Y41551D02*
D03*
X268716Y41760D02*
D03*
X317532Y94870D02*
D03*
X318125Y76560D02*
D03*
X334449Y41142D02*
D03*
X315354Y41732D02*
D03*
X411372Y107329D02*
D03*
X481170Y64634D02*
D03*
X479528Y76181D02*
D03*
X507312Y84871D02*
D03*
X464256Y131610D02*
D03*
X464199Y140329D02*
D03*
X464273Y149116D02*
D03*
X464266Y157584D02*
D03*
X464202Y166310D02*
D03*
X464444Y175074D02*
D03*
X492323Y202953D02*
D03*
X483456Y206702D02*
D03*
X470509Y207247D02*
D03*
X469698Y282493D02*
D03*
X484819Y413803D02*
D03*
X443307Y378346D02*
D03*
X365748Y364764D02*
D03*
X402362Y404528D02*
D03*
X405088Y413947D02*
D03*
X415000Y416000D02*
D03*
X421354Y404646D02*
D03*
X442062Y397062D02*
D03*
X428071Y367992D02*
D03*
X362961Y337174D02*
D03*
X282480Y368504D02*
D03*
X307849Y303765D02*
D03*
X332585Y307966D02*
D03*
X328740Y317126D02*
D03*
X312999Y226976D02*
D03*
X312827Y235598D02*
D03*
X278347Y251771D02*
D03*
X299410Y248229D02*
D03*
X263158Y241062D02*
D03*
X309233Y247011D02*
D03*
X353515Y165579D02*
D03*
X353535Y183670D02*
D03*
X315928Y158841D02*
D03*
X316331Y172827D02*
D03*
X316086Y192858D02*
D03*
X306102Y127362D02*
D03*
X244951Y147313D02*
D03*
X202119Y122395D02*
D03*
X183572Y295974D02*
D03*
X170646Y311000D02*
D03*
X152034Y317782D02*
D03*
X119793Y295974D02*
D03*
X106251Y310582D02*
D03*
X88103Y318221D02*
D03*
X60872Y310469D02*
D03*
X40748Y310630D02*
D03*
X21405Y317965D02*
D03*
X56192Y295974D02*
D03*
X184252Y196850D02*
D03*
X171850D02*
D03*
X177953D02*
D03*
X148507Y87507D02*
D03*
X177756Y44882D02*
D03*
X177953Y49213D02*
D03*
X171749Y60330D02*
D03*
X171765Y34055D02*
D03*
X131008Y58466D02*
D03*
X130820Y51772D02*
D03*
X118591Y68607D02*
D03*
X122326Y55148D02*
D03*
X137418Y40119D02*
D03*
X148228Y103937D02*
D03*
X148425Y111024D02*
D03*
X114961Y114173D02*
D03*
X114764Y108268D02*
D03*
X114426Y93574D02*
D03*
X71295Y243450D02*
D03*
X105003Y42011D02*
D03*
X28156Y67710D02*
D03*
X78913Y16362D02*
D03*
X37379Y56566D02*
D03*
X28261Y74684D02*
D03*
X48363Y61582D02*
D03*
X105648Y22297D02*
D03*
X85236Y62992D02*
D03*
X84627Y68470D02*
D03*
X19324Y85663D02*
D03*
X63189Y111417D02*
D03*
X98819Y68701D02*
D03*
X102861Y54838D02*
D03*
X19324Y102448D02*
D03*
X96260Y187598D02*
D03*
X96457Y193109D02*
D03*
X107283Y196721D02*
D03*
X99410Y162598D02*
D03*
X141822Y183768D02*
D03*
X141339Y190354D02*
D03*
X132160Y152597D02*
D03*
X63386Y186417D02*
D03*
X132283Y122244D02*
D03*
X352000Y416000D02*
D03*
X359000Y415000D02*
D03*
X330000Y416000D02*
D03*
X189590Y303590D02*
D03*
X381000Y417000D02*
D03*
X115000Y267000D02*
D03*
X106811Y278811D02*
D03*
X64000Y267000D02*
D03*
X74000Y278000D02*
D03*
X166189Y235189D02*
D03*
X179000Y261000D02*
D03*
X166811Y268811D02*
D03*
X343015Y415846D02*
D03*
X337000Y415000D02*
D03*
X450884Y423884D02*
D03*
X202119Y134699D02*
D03*
X390745Y336745D02*
D03*
X405662D02*
D03*
X390799Y413201D02*
D03*
X413122Y368122D02*
D03*
X387524Y393476D02*
D03*
X366176Y393906D02*
D03*
X359483Y393483D02*
D03*
X387324Y365676D02*
D03*
X359187Y365187D02*
D03*
X322475Y371475D02*
D03*
X322027Y378027D02*
D03*
X346482Y405482D02*
D03*
X321612Y401388D02*
D03*
X141896Y177896D02*
D03*
X141277Y171277D02*
D03*
X141715Y157715D02*
D03*
X142689Y149311D02*
D03*
X169997Y112137D02*
D03*
X170598Y94536D02*
D03*
X125840Y311697D02*
D03*
X31082Y175918D02*
D03*
X462273Y113727D02*
D03*
X236118Y151118D02*
D03*
X302395Y118101D02*
D03*
X295589Y118411D02*
D03*
X278846Y128180D02*
D03*
X278228Y188772D02*
D03*
X307031Y197000D02*
D03*
X339000Y195000D02*
D03*
X333865Y127865D02*
D03*
X415925Y127925D02*
D03*
X422000Y147551D02*
D03*
X430000Y145000D02*
D03*
X462104Y207104D02*
D03*
X492821Y195821D02*
D03*
X533856Y130144D02*
D03*
X494856Y130145D02*
D03*
X495375Y187625D02*
D03*
X533832Y191168D02*
D03*
X455297Y321916D02*
D03*
X465000Y378000D02*
D03*
X470930Y407930D02*
D03*
X511095Y411095D02*
D03*
X498000Y429000D02*
D03*
X480000Y423000D02*
D03*
X469858Y421142D02*
D03*
X460923Y422077D02*
D03*
X426000Y422000D02*
D03*
Y429548D02*
D03*
X307309Y257309D02*
D03*
X271691Y257309D02*
D03*
X270970Y265970D02*
D03*
X271557Y286443D02*
D03*
X307427Y312427D02*
D03*
X321850Y317295D02*
D03*
X319884Y415116D02*
D03*
X311834Y428834D02*
D03*
X284459Y428541D02*
D03*
X247708Y410292D02*
D03*
X247906Y421907D02*
D03*
X152636Y281364D02*
D03*
X89134Y281134D02*
D03*
X25000Y281000D02*
D03*
D156*
X385826Y129573D02*
D03*
D157*
X520195Y208790D02*
D03*
M02*
