G04*
G04 #@! TF.GenerationSoftware,Altium Limited,Altium Designer,24.10.1 (45)*
G04*
G04 Layer_Physical_Order=3*
G04 Layer_Color=128*
%FSLAX25Y25*%
%MOIN*%
G70*
G04*
G04 #@! TF.SameCoordinates,188A72EA-56D5-4262-AEF0-458277A37510*
G04*
G04*
G04 #@! TF.FilePolarity,Negative*
G04*
G01*
G75*
%ADD19C,0.01968*%
%ADD207C,0.04000*%
%ADD210C,0.06559*%
%ADD211O,0.09000X0.14000*%
%ADD214C,0.09000*%
%ADD215C,0.16598*%
%ADD216C,0.10299*%
%ADD217C,0.10000*%
G04:AMPARAMS|DCode=218|XSize=122.992mil|YSize=122.992mil|CornerRadius=0mil|HoleSize=0mil|Usage=FLASHONLY|Rotation=0.000|XOffset=0mil|YOffset=0mil|HoleType=Round|Shape=Relief|Width=10mil|Gap=10mil|Entries=4|*
%AMTHD218*
7,0,0,0.12299,0.10299,0.01000,45*
%
%ADD218THD218*%
%ADD219C,0.07400*%
G04:AMPARAMS|DCode=220|XSize=94mil|YSize=94mil|CornerRadius=0mil|HoleSize=0mil|Usage=FLASHONLY|Rotation=0.000|XOffset=0mil|YOffset=0mil|HoleType=Round|Shape=Relief|Width=10mil|Gap=10mil|Entries=4|*
%AMTHD220*
7,0,0,0.09400,0.07400,0.01000,45*
%
%ADD220THD220*%
%ADD221C,0.08331*%
G04:AMPARAMS|DCode=222|XSize=103.308mil|YSize=103.308mil|CornerRadius=0mil|HoleSize=0mil|Usage=FLASHONLY|Rotation=0.000|XOffset=0mil|YOffset=0mil|HoleType=Round|Shape=Relief|Width=10mil|Gap=10mil|Entries=4|*
%AMTHD222*
7,0,0,0.10331,0.08331,0.01000,45*
%
%ADD222THD222*%
%ADD223C,0.07937*%
%ADD224C,0.16795*%
%ADD225C,0.08016*%
%ADD226C,0.07543*%
G04:AMPARAMS|DCode=229|XSize=110mil|YSize=110mil|CornerRadius=0mil|HoleSize=0mil|Usage=FLASHONLY|Rotation=0.000|XOffset=0mil|YOffset=0mil|HoleType=Round|Shape=Relief|Width=10mil|Gap=10mil|Entries=4|*
%AMTHD229*
7,0,0,0.11000,0.09000,0.01000,45*
%
%ADD229THD229*%
%ADD230C,0.05181*%
%ADD231C,0.06362*%
G04:AMPARAMS|DCode=232|XSize=83.622mil|YSize=83.622mil|CornerRadius=0mil|HoleSize=0mil|Usage=FLASHONLY|Rotation=0.000|XOffset=0mil|YOffset=0mil|HoleType=Round|Shape=Relief|Width=10mil|Gap=10mil|Entries=4|*
%AMTHD232*
7,0,0,0.08362,0.06362,0.01000,45*
%
%ADD232THD232*%
G04:AMPARAMS|DCode=233|XSize=75.748mil|YSize=75.748mil|CornerRadius=0mil|HoleSize=0mil|Usage=FLASHONLY|Rotation=0.000|XOffset=0mil|YOffset=0mil|HoleType=Round|Shape=Relief|Width=10mil|Gap=10mil|Entries=4|*
%AMTHD233*
7,0,0,0.07575,0.05575,0.01000,45*
%
%ADD233THD233*%
%ADD234C,0.05575*%
%ADD236O,0.06362X0.10693*%
%ADD237O,0.06362X0.09512*%
%ADD238O,0.14000X0.09000*%
G04:AMPARAMS|DCode=239|XSize=120mil|YSize=120mil|CornerRadius=0mil|HoleSize=0mil|Usage=FLASHONLY|Rotation=0.000|XOffset=0mil|YOffset=0mil|HoleType=Round|Shape=Relief|Width=10mil|Gap=10mil|Entries=4|*
%AMTHD239*
7,0,0,0.12000,0.10000,0.01000,45*
%
%ADD239THD239*%
G04:AMPARAMS|DCode=240|XSize=100.158mil|YSize=100.158mil|CornerRadius=0mil|HoleSize=0mil|Usage=FLASHONLY|Rotation=0.000|XOffset=0mil|YOffset=0mil|HoleType=Round|Shape=Relief|Width=10mil|Gap=10mil|Entries=4|*
%AMTHD240*
7,0,0,0.10016,0.08016,0.01000,45*
%
%ADD240THD240*%
%ADD241C,0.09906*%
G04:AMPARAMS|DCode=242|XSize=71.811mil|YSize=71.811mil|CornerRadius=0mil|HoleSize=0mil|Usage=FLASHONLY|Rotation=0.000|XOffset=0mil|YOffset=0mil|HoleType=Round|Shape=Relief|Width=10mil|Gap=10mil|Entries=4|*
%AMTHD242*
7,0,0,0.07181,0.05181,0.01000,45*
%
%ADD242THD242*%
%ADD243C,0.09118*%
D19*
X77165Y114961D02*
Y163183D01*
Y114961D02*
X109055D01*
X52165Y163531D02*
X77165Y163183D01*
X490594Y74685D02*
X565362Y75051D01*
X490594Y58131D02*
Y74685D01*
X472835Y57874D02*
X490594Y58131D01*
X472835Y57874D02*
X473032Y89173D01*
X525984Y89370D01*
X211618Y37465D02*
X212991Y38830D01*
X112897Y25265D02*
X116730Y25065D01*
X386627Y118122D02*
X387218Y112402D01*
X368701Y117913D02*
X386627Y118122D01*
X366535Y117913D02*
X368701D01*
X366535Y39377D02*
Y117913D01*
Y39377D02*
X430118Y39173D01*
Y37598D02*
Y39173D01*
X430083Y25714D02*
X430118Y37598D01*
X354134Y118307D02*
X354603Y25557D01*
X395079Y171850D02*
X406299Y171653D01*
X394913Y165550D02*
X395079Y171850D01*
X406102Y170276D02*
X406299Y171653D01*
Y152953D02*
X406496Y151575D01*
X395866Y151969D02*
X406496Y151575D01*
X395866Y151969D02*
Y157677D01*
X374606Y157874D02*
X395866Y157677D01*
X374606Y150591D02*
Y157874D01*
X364264Y150591D02*
X374606D01*
X364068Y126369D02*
X364264Y150591D01*
X364068Y126369D02*
X392520Y125984D01*
Y125000D02*
Y125984D01*
Y121260D02*
Y125000D01*
Y121260D02*
X406496D01*
Y120079D02*
Y121260D01*
Y115130D02*
Y120079D01*
Y112402D02*
Y115130D01*
X387218Y112402D02*
X406496D01*
X354134Y118307D02*
Y158268D01*
X355709D01*
X366142Y158071D01*
Y165748D01*
X367717D01*
X394913Y165550D01*
X406102Y170276D02*
X406299Y152953D01*
X525984Y89370D02*
X542520Y89173D01*
X542590Y124935D01*
X478505Y208343D02*
Y211587D01*
X488014D01*
X478505Y208343D02*
X478880Y181524D01*
X177894Y156029D02*
X217072Y156246D01*
X176575Y98425D02*
X177894Y156029D01*
X223622Y156246D02*
Y248403D01*
X217072Y156246D02*
X223622D01*
X295459Y25421D02*
X295677Y37525D01*
X211580Y25265D02*
X211618Y37465D01*
X485577Y161812D02*
X485687Y151616D01*
X469777Y161522D02*
X485577Y161812D01*
X469595Y173356D02*
X469777Y161522D01*
X469595Y173356D02*
X488609Y173544D01*
X488014Y211587D02*
X488609Y173544D01*
X469882Y151461D02*
X485687Y151616D01*
X469882Y126105D02*
Y151461D01*
X459252Y125984D02*
X469882Y126105D01*
X459055Y181102D02*
X459252Y125984D01*
X459055Y181102D02*
X478880Y181524D01*
X474145Y372166D02*
X476181Y250197D01*
X429331Y249803D02*
X476181Y250197D01*
X429331Y249803D02*
X429528Y210827D01*
Y208858D02*
Y210827D01*
Y192126D02*
Y208858D01*
X418307Y192126D02*
X429528D01*
X418307D02*
X418423Y202174D01*
X299282Y203140D02*
X418423Y202174D01*
X298201Y104976D02*
X299282Y203140D01*
X434298Y371947D02*
X438784Y371988D01*
X434235Y373979D02*
Y374410D01*
X428150D02*
X434235D01*
Y373979D02*
X434616Y361730D01*
X437992Y371984D02*
X477920Y372185D01*
X408547Y361293D02*
X434616Y361730D01*
X477920Y372185D02*
X479134Y418307D01*
X407621Y392520D02*
X408547Y361293D01*
X277953Y392520D02*
X407621D01*
X277953Y382283D02*
Y392520D01*
X277756Y360433D02*
X277953Y382283D01*
X276520Y249229D02*
X277756Y360433D01*
X268216Y249229D02*
X276520D01*
X223622Y248403D02*
X268216Y249229D01*
X143258Y98230D02*
X176575Y98425D01*
X208302Y443780D02*
X209449Y318307D01*
X160822Y318289D02*
X209449Y318307D01*
X160630Y339764D02*
X160822Y318289D01*
X143456Y119890D02*
X143486Y113409D01*
X114351Y98197D02*
X114370Y81085D01*
X428150Y374410D02*
X428543Y412795D01*
X253937Y411811D02*
X428543Y412795D01*
X341925Y102196D02*
X342520Y34843D01*
X308105Y34853D02*
X342520Y34843D01*
X295873Y102749D02*
X298201Y104976D01*
X290094Y102759D02*
X295863D01*
X295669Y34843D02*
X295873Y102749D01*
X261670Y35030D02*
X295669Y34843D01*
X307642Y101765D02*
X341925Y102196D01*
X307642Y101765D02*
X308105Y34853D01*
X261204Y102395D02*
X290094Y102759D01*
X261204Y102395D02*
X261670Y35030D01*
X212581Y98084D02*
X213004Y37022D01*
X212581Y98084D02*
X244685Y98488D01*
Y36575D02*
Y98488D01*
X213004Y37022D02*
X244685Y36575D01*
X115830Y25064D02*
X473721Y25803D01*
X473764Y4212D02*
X475126Y2855D01*
X473721Y25803D02*
X473764Y4212D01*
X542590Y124935D02*
X542914Y222420D01*
X542520Y260433D02*
X542914Y222420D01*
X520472Y260433D02*
X542520D01*
X520472D02*
Y262205D01*
X520276Y417913D02*
X520472Y262205D01*
X503347Y418029D02*
X520276Y417913D01*
X94128Y24716D02*
X114370Y25308D01*
Y81085D01*
X479134Y418307D02*
X504587Y418014D01*
X251772Y277362D02*
X253937Y411811D01*
X195079Y276772D02*
X251772Y277362D01*
X195079Y276772D02*
X195276Y183661D01*
X139764Y339567D02*
X160630Y339764D01*
X139764Y339567D02*
X140157Y317520D01*
X95817Y317180D02*
X140157Y317520D01*
X95472Y339961D02*
X95817Y317180D01*
X77278Y340166D02*
X95472Y339961D01*
X77165Y316732D02*
X77278Y340166D01*
X28996Y316926D02*
X77165Y316732D01*
X28937Y340551D02*
X28996Y316926D01*
X6496Y340354D02*
X28937Y340551D01*
X33689Y114786D02*
X77165Y115157D01*
X31880Y225756D02*
X33689Y114786D01*
X31880Y225756D02*
X114893Y226519D01*
X115507Y205632D01*
X149517Y206030D01*
X149213Y182874D02*
X149517Y206030D01*
X149213Y182874D02*
X149607Y119831D01*
X143258Y98230D02*
X143494Y113899D01*
X109055Y114961D02*
Y120221D01*
X124002Y162613D02*
X149341Y162379D01*
X124002Y162613D02*
X124016Y182724D01*
X109055Y120221D02*
X149607Y119831D01*
X102701Y182377D02*
X124016Y182724D01*
X90109Y181867D02*
X102701Y182377D01*
X52165Y189370D02*
Y196171D01*
X89764Y195276D01*
X90109Y181867D01*
X52165Y163531D02*
Y189370D01*
X31890Y97441D02*
Y97992D01*
X123975Y98221D01*
X143258Y98230D01*
X149213Y182874D02*
X195276Y183661D01*
X93504Y73425D02*
X94128Y24716D01*
X72047Y73622D02*
X93504Y73425D01*
X72047Y73622D02*
X72373Y40354D01*
X22930Y39992D02*
X72373Y40354D01*
X22733Y81299D02*
X22930Y39992D01*
X22733Y81299D02*
X31890D01*
Y97441D01*
X4786Y97010D02*
X31890Y97441D01*
D207*
X5000Y2000D02*
X21000D01*
X565307Y3025D01*
X563283Y445078D02*
X565307Y3025D01*
X4007Y443033D02*
X563283Y445078D01*
X4007Y443033D02*
X5000Y2000D01*
D210*
X313409Y31825D02*
D03*
X336204D02*
D03*
X289543Y31435D02*
D03*
X266747D02*
D03*
X240199Y31666D02*
D03*
X217404D02*
D03*
D211*
X68666Y141786D02*
D03*
X43666D02*
D03*
D214*
X535738Y249262D02*
D03*
X536000Y209000D02*
D03*
Y229000D02*
D03*
X516096Y16864D02*
D03*
X496063Y16831D02*
D03*
X476056Y16825D02*
D03*
D215*
X19000Y15000D02*
D03*
X548000Y431000D02*
D03*
Y19000D02*
D03*
D216*
X73586Y419244D02*
D03*
X93271D02*
D03*
X122752D02*
D03*
X142437D02*
D03*
X23998D02*
D03*
X43683D02*
D03*
X171889D02*
D03*
X191574D02*
D03*
X45890Y198942D02*
D03*
D217*
X148643Y380818D02*
D03*
X195885Y332786D02*
D03*
X172263Y324912D02*
D03*
X195883Y380817D02*
D03*
X20128Y380818D02*
D03*
X67370Y332786D02*
D03*
X43748Y324912D02*
D03*
X67368Y380817D02*
D03*
X84367Y380818D02*
D03*
X131609Y332786D02*
D03*
X107987Y324912D02*
D03*
X131607Y380817D02*
D03*
D218*
X45890Y218627D02*
D03*
D219*
X532343Y92133D02*
D03*
Y102133D02*
D03*
Y112133D02*
D03*
D220*
Y82133D02*
D03*
D221*
X530000Y389000D02*
D03*
X540000D02*
D03*
X530000Y379000D02*
D03*
X540000D02*
D03*
X530000Y369000D02*
D03*
X540000D02*
D03*
X530000Y359000D02*
D03*
X540000D02*
D03*
X530000Y349000D02*
D03*
X540000D02*
D03*
X530000Y339000D02*
D03*
X540000D02*
D03*
X530000Y329000D02*
D03*
X540000D02*
D03*
X530000Y319000D02*
D03*
X540000D02*
D03*
X530000Y309000D02*
D03*
X540000D02*
D03*
X530000Y299000D02*
D03*
X540000D02*
D03*
X530000Y289000D02*
D03*
X540000D02*
D03*
Y279000D02*
D03*
Y269000D02*
D03*
D222*
X530000Y279000D02*
D03*
Y269000D02*
D03*
D223*
X529089Y172664D02*
D03*
Y141168D02*
D03*
D224*
X419705Y51138D02*
D03*
X374745D02*
D03*
D225*
X381142Y31847D02*
D03*
X413308D02*
D03*
X371143D02*
D03*
D226*
X409746Y76138D02*
D03*
X404705Y86138D02*
D03*
X389745Y76138D02*
D03*
X384705Y86138D02*
D03*
X379746Y76138D02*
D03*
X394706Y86138D02*
D03*
X399745Y76138D02*
D03*
X414706Y86138D02*
D03*
D229*
X456056Y16825D02*
D03*
D230*
X180259Y159875D02*
D03*
X176181Y159843D02*
D03*
X176378Y163779D02*
D03*
X180512Y163976D02*
D03*
X385826Y129573D02*
D03*
D231*
X441732Y221260D02*
D03*
X304528Y334252D02*
D03*
X310433Y343701D02*
D03*
X304920Y357282D02*
D03*
X292126Y372835D02*
D03*
X270472Y405512D02*
D03*
X288157Y409157D02*
D03*
X111696Y42108D02*
D03*
X188659Y11811D02*
D03*
X182480D02*
D03*
X192126Y171653D02*
D03*
X179000Y227000D02*
D03*
X337402Y364567D02*
D03*
X221850Y69291D02*
D03*
X222047Y73622D02*
D03*
X162008Y65945D02*
D03*
X147835Y64173D02*
D03*
X145669Y73425D02*
D03*
X129724Y22835D02*
D03*
X88770Y13175D02*
D03*
X270840Y78766D02*
D03*
X318125Y76560D02*
D03*
X492323Y202953D02*
D03*
X470509Y207247D02*
D03*
X365748Y364764D02*
D03*
X402362Y404528D02*
D03*
X405088Y413947D02*
D03*
X415000Y416000D02*
D03*
X421354Y404646D02*
D03*
X442062Y397062D02*
D03*
X307849Y303765D02*
D03*
X328740Y317126D02*
D03*
X278347Y251771D02*
D03*
X299410Y248229D02*
D03*
X263158Y241062D02*
D03*
X309233Y247011D02*
D03*
X60872Y310469D02*
D03*
X148507Y87507D02*
D03*
X171749Y60330D02*
D03*
X171765Y34055D02*
D03*
X131008Y58466D02*
D03*
X130820Y51772D02*
D03*
X118591Y68607D02*
D03*
X122326Y55148D02*
D03*
X137418Y40119D02*
D03*
X114426Y93574D02*
D03*
X71295Y243450D02*
D03*
X37379Y56566D02*
D03*
X28261Y74684D02*
D03*
X48363Y61582D02*
D03*
X105648Y22297D02*
D03*
X84627Y68470D02*
D03*
X63189Y111417D02*
D03*
X98819Y68701D02*
D03*
X102861Y54838D02*
D03*
X19324Y102448D02*
D03*
X96457Y193109D02*
D03*
X107283Y196721D02*
D03*
X99410Y162598D02*
D03*
X132160Y152597D02*
D03*
X63386Y186417D02*
D03*
X132283Y122244D02*
D03*
X352000Y416000D02*
D03*
X359000Y415000D02*
D03*
X330000Y416000D02*
D03*
X189590Y303590D02*
D03*
X381000Y417000D02*
D03*
X115000Y267000D02*
D03*
X106811Y278811D02*
D03*
X64000Y267000D02*
D03*
X74000Y278000D02*
D03*
X166189Y235189D02*
D03*
X179000Y261000D02*
D03*
X166811Y268811D02*
D03*
X343015Y415846D02*
D03*
X337000Y415000D02*
D03*
X450884Y423884D02*
D03*
X202119Y134699D02*
D03*
X390745Y336745D02*
D03*
X405662D02*
D03*
X390799Y413201D02*
D03*
X413122Y368122D02*
D03*
X387524Y393476D02*
D03*
X366176Y393906D02*
D03*
X359483Y393483D02*
D03*
X387324Y365676D02*
D03*
X359187Y365187D02*
D03*
X322475Y371475D02*
D03*
X322027Y378027D02*
D03*
X346482Y405482D02*
D03*
X321612Y401388D02*
D03*
X141896Y177896D02*
D03*
X141277Y171277D02*
D03*
X141715Y157715D02*
D03*
X142689Y149311D02*
D03*
X169997Y112137D02*
D03*
X170598Y94536D02*
D03*
X125840Y311697D02*
D03*
X31082Y175918D02*
D03*
X462273Y113727D02*
D03*
X236118Y151118D02*
D03*
X302395Y118101D02*
D03*
X295589Y118411D02*
D03*
X278846Y128180D02*
D03*
X278228Y188772D02*
D03*
X307031Y197000D02*
D03*
X339000Y195000D02*
D03*
X333865Y127865D02*
D03*
X415925Y127925D02*
D03*
X422000Y147551D02*
D03*
X430000Y145000D02*
D03*
X462104Y207104D02*
D03*
X492821Y195821D02*
D03*
X533856Y130144D02*
D03*
X494856Y130145D02*
D03*
X495375Y187625D02*
D03*
X533832Y191168D02*
D03*
X455297Y321916D02*
D03*
X465000Y378000D02*
D03*
X470930Y407930D02*
D03*
X511095Y411095D02*
D03*
X498000Y429000D02*
D03*
X480000Y423000D02*
D03*
X469858Y421142D02*
D03*
X460923Y422077D02*
D03*
X426000Y422000D02*
D03*
Y429548D02*
D03*
X307309Y257309D02*
D03*
X271691Y257309D02*
D03*
X270970Y265970D02*
D03*
X271557Y286443D02*
D03*
X307427Y312427D02*
D03*
X321850Y317295D02*
D03*
X319884Y415116D02*
D03*
X311834Y428834D02*
D03*
X284459Y428541D02*
D03*
X247708Y410292D02*
D03*
X247906Y421907D02*
D03*
X152636Y281364D02*
D03*
X89134Y281134D02*
D03*
X25000Y281000D02*
D03*
D232*
X480512Y156693D02*
D03*
X463779Y303346D02*
D03*
X290355Y251968D02*
D03*
X57284Y178937D02*
D03*
X119618Y30641D02*
D03*
X126378Y30709D02*
D03*
X436811Y204528D02*
D03*
X423537Y197047D02*
D03*
X437120D02*
D03*
X322244Y364764D02*
D03*
X151772Y42717D02*
D03*
X28346Y53347D02*
D03*
X28150Y61024D02*
D03*
X100984Y120866D02*
D03*
X142126Y126969D02*
D03*
X108661Y177362D02*
D03*
X99714Y149696D02*
D03*
X99606Y156693D02*
D03*
X103347Y132677D02*
D03*
X118681Y137036D02*
D03*
X46654Y121063D02*
D03*
X238270Y42045D02*
D03*
X219372Y42656D02*
D03*
X222028Y90767D02*
D03*
X270506Y96491D02*
D03*
X287614Y41551D02*
D03*
X268716Y41760D02*
D03*
X317532Y94870D02*
D03*
X334449Y41142D02*
D03*
X315354Y41732D02*
D03*
X411372Y107329D02*
D03*
X481170Y64634D02*
D03*
X479528Y76181D02*
D03*
X507312Y84871D02*
D03*
X464256Y131610D02*
D03*
X464199Y140329D02*
D03*
X464273Y149116D02*
D03*
X464266Y157584D02*
D03*
X464202Y166310D02*
D03*
X464444Y175074D02*
D03*
X483456Y206702D02*
D03*
X469698Y282493D02*
D03*
X484819Y413803D02*
D03*
X443307Y378346D02*
D03*
X428071Y367992D02*
D03*
X362961Y337174D02*
D03*
X282480Y368504D02*
D03*
X332585Y307966D02*
D03*
X312999Y226976D02*
D03*
X312827Y235598D02*
D03*
X353515Y165579D02*
D03*
X353535Y183670D02*
D03*
X315928Y158841D02*
D03*
X316331Y172827D02*
D03*
X316086Y192858D02*
D03*
X306102Y127362D02*
D03*
X244951Y147313D02*
D03*
X202119Y122395D02*
D03*
X183572Y295974D02*
D03*
X170646Y311000D02*
D03*
X152034Y317782D02*
D03*
X119793Y295974D02*
D03*
X106251Y310582D02*
D03*
X88103Y318221D02*
D03*
X40748Y310630D02*
D03*
X21405Y317965D02*
D03*
X56192Y295974D02*
D03*
X184252Y196850D02*
D03*
X171850D02*
D03*
X177953D02*
D03*
X177756Y44882D02*
D03*
X177953Y49213D02*
D03*
X148228Y103937D02*
D03*
X148425Y111024D02*
D03*
X114961Y114173D02*
D03*
X114764Y108268D02*
D03*
X105003Y42011D02*
D03*
X28156Y67710D02*
D03*
X78913Y16362D02*
D03*
X85236Y62992D02*
D03*
X19324Y85663D02*
D03*
X96260Y187598D02*
D03*
X141822Y183768D02*
D03*
X141339Y190354D02*
D03*
D233*
X359316Y132023D02*
D03*
X359416Y139337D02*
D03*
X359391Y146202D02*
D03*
X359221Y153181D02*
D03*
X401646Y155977D02*
D03*
X399360Y167076D02*
D03*
D234*
X170472Y147244D02*
D03*
X294488Y84842D02*
D03*
X222050Y54050D02*
D03*
X312887Y53113D02*
D03*
X215748Y85236D02*
D03*
X265551Y91142D02*
D03*
X265158Y47244D02*
D03*
X312402Y88700D02*
D03*
X327870Y98131D02*
D03*
X374305Y113085D02*
D03*
X469685Y73228D02*
D03*
X466862Y76248D02*
D03*
X431724Y390916D02*
D03*
X424373Y400627D02*
D03*
X263835Y236063D02*
D03*
X263836Y231062D02*
D03*
Y226062D02*
D03*
X91984Y44961D02*
D03*
X95984D02*
D03*
Y41961D02*
D03*
X91984D02*
D03*
X87984Y44961D02*
D03*
Y41961D02*
D03*
X112662Y141157D02*
D03*
X258019Y310782D02*
D03*
X304366Y186129D02*
D03*
X399489Y401063D02*
D03*
X346000Y378000D02*
D03*
X348000D02*
D03*
Y380000D02*
D03*
X346000D02*
D03*
X352071Y373045D02*
D03*
X340707Y374620D02*
D03*
X111586Y151652D02*
D03*
X488168Y53257D02*
D03*
X239699Y54050D02*
D03*
X246115Y78690D02*
D03*
X232349Y94517D02*
D03*
X280655Y99999D02*
D03*
X337653Y80084D02*
D03*
X359849Y39849D02*
D03*
X361260Y77740D02*
D03*
X377570Y104858D02*
D03*
X384720D02*
D03*
X393000Y104910D02*
D03*
X400547Y104858D02*
D03*
X433185Y83369D02*
D03*
X461668Y83217D02*
D03*
X502011Y59414D02*
D03*
X503067Y64642D02*
D03*
X485353Y84647D02*
D03*
X507115Y97352D02*
D03*
X224000Y141000D02*
D03*
X288464Y188536D02*
D03*
X283871Y174129D02*
D03*
X284317Y162317D02*
D03*
X283507Y150507D02*
D03*
X283695Y138695D02*
D03*
X328254Y166254D02*
D03*
X327557Y154443D02*
D03*
X326667Y142632D02*
D03*
X323629Y128371D02*
D03*
X371136Y121534D02*
D03*
X372975Y166647D02*
D03*
X383000Y170000D02*
D03*
X389786Y169786D02*
D03*
X407630Y132503D02*
D03*
X401807Y132193D02*
D03*
X490139Y147861D02*
D03*
X210000Y134213D02*
D03*
X469658Y297386D02*
D03*
X371420Y219420D02*
D03*
X356419D02*
D03*
X354972Y260971D02*
D03*
Y295971D02*
D03*
X421656Y318344D02*
D03*
X441656Y317656D02*
D03*
X453147Y310853D02*
D03*
Y315853D02*
D03*
D236*
X341833Y33793D02*
D03*
X307818D02*
D03*
X261157Y33403D02*
D03*
X295172D02*
D03*
X211813Y33635D02*
D03*
X245829D02*
D03*
D237*
X341833Y17336D02*
D03*
X307818D02*
D03*
X261157Y16946D02*
D03*
X295172D02*
D03*
X211813Y17177D02*
D03*
X245829D02*
D03*
D238*
X58666Y121786D02*
D03*
D239*
X148641Y332786D02*
D03*
X20126D02*
D03*
X84365D02*
D03*
D240*
X423309Y31847D02*
D03*
D241*
X366714Y63146D02*
D03*
X427738D02*
D03*
D242*
X399213Y116732D02*
D03*
X370866Y161417D02*
D03*
X391535Y116929D02*
D03*
D243*
X520195Y208790D02*
D03*
M02*
