G04*
G04 #@! TF.GenerationSoftware,Altium Limited,Altium Designer,24.10.1 (45)*
G04*
G04 Layer_Color=16711935*
%FSLAX25Y25*%
%MOIN*%
G70*
G04*
G04 #@! TF.SameCoordinates,188A72EA-56D5-4262-AEF0-458277A37510*
G04*
G04*
G04 #@! TF.FilePolarity,Negative*
G04*
G01*
G75*
%ADD135O,0.04331X0.08662*%
%ADD136O,0.04331X0.07480*%
%ADD137C,0.03359*%
%ADD138R,0.10800X0.16800*%
%ADD139R,0.16800X0.10800*%
%ADD140C,0.11800*%
%ADD141C,0.13386*%
%ADD142C,0.09849*%
%ADD143C,0.11400*%
%ADD144R,0.09800X0.08300*%
%ADD145O,0.09800X0.08300*%
%ADD146C,0.07487*%
%ADD147R,0.07487X0.07487*%
%ADD148C,0.04737*%
%ADD149C,0.13595*%
%ADD150C,0.08274*%
%ADD151C,0.06400*%
%ADD152R,0.06400X0.06400*%
%ADD153C,0.09849*%
%ADD154C,0.03556*%
%ADD155C,0.05131*%
%ADD156C,0.03162*%
%ADD157C,0.11824*%
%ADD181C,0.11811*%
D135*
X341833Y33793D02*
D03*
X307818D02*
D03*
X261157Y33403D02*
D03*
X295172D02*
D03*
X211813Y33635D02*
D03*
X245829D02*
D03*
D136*
X341833Y17336D02*
D03*
X307818D02*
D03*
X261157Y16946D02*
D03*
X295172D02*
D03*
X211813Y17177D02*
D03*
X245829D02*
D03*
D137*
X313409Y31825D02*
D03*
X336204D02*
D03*
X289543Y31435D02*
D03*
X266747D02*
D03*
X240199Y31666D02*
D03*
X217404D02*
D03*
D138*
X68666Y141786D02*
D03*
X43666D02*
D03*
D139*
X58666Y121786D02*
D03*
D140*
X535738Y249262D02*
D03*
X536000Y209000D02*
D03*
Y229000D02*
D03*
X456056Y16825D02*
D03*
X516096Y16864D02*
D03*
X496063Y16831D02*
D03*
X476056Y16825D02*
D03*
D141*
X19000Y15000D02*
D03*
X548000Y431000D02*
D03*
Y19000D02*
D03*
D142*
X73586Y419244D02*
D03*
X93271D02*
D03*
X122752D02*
D03*
X142437D02*
D03*
X23998D02*
D03*
X43683D02*
D03*
X171889D02*
D03*
X191574D02*
D03*
X45890Y218627D02*
D03*
Y198942D02*
D03*
D143*
X148643Y380818D02*
D03*
X195885Y332786D02*
D03*
X148641D02*
D03*
X172263Y324912D02*
D03*
X195883Y380817D02*
D03*
X20128Y380818D02*
D03*
X67370Y332786D02*
D03*
X20126D02*
D03*
X43748Y324912D02*
D03*
X67368Y380817D02*
D03*
X84367Y380818D02*
D03*
X131609Y332786D02*
D03*
X84365D02*
D03*
X107987Y324912D02*
D03*
X131607Y380817D02*
D03*
D144*
X532343Y82133D02*
D03*
D145*
Y92133D02*
D03*
Y102133D02*
D03*
Y112133D02*
D03*
D146*
X530000Y389000D02*
D03*
X540000D02*
D03*
X530000Y379000D02*
D03*
X540000D02*
D03*
X530000Y369000D02*
D03*
X540000D02*
D03*
X530000Y359000D02*
D03*
X540000D02*
D03*
X530000Y349000D02*
D03*
X540000D02*
D03*
X530000Y339000D02*
D03*
X540000D02*
D03*
X530000Y329000D02*
D03*
X540000D02*
D03*
X530000Y319000D02*
D03*
X540000D02*
D03*
X530000Y309000D02*
D03*
X540000D02*
D03*
X530000Y299000D02*
D03*
X540000D02*
D03*
X530000Y289000D02*
D03*
X540000D02*
D03*
X530000Y279000D02*
D03*
X540000D02*
D03*
X530000Y269000D02*
D03*
D147*
X540000D02*
D03*
D148*
X529089Y172664D02*
D03*
Y141168D02*
D03*
D149*
X419705Y51138D02*
D03*
X374745D02*
D03*
D150*
X381142Y31847D02*
D03*
X413308D02*
D03*
X423309D02*
D03*
X371143D02*
D03*
D151*
X409746Y76138D02*
D03*
X404705Y86138D02*
D03*
X389745Y76138D02*
D03*
X384705Y86138D02*
D03*
X394706D02*
D03*
X399745Y76138D02*
D03*
X414706Y86138D02*
D03*
D152*
X379746Y76138D02*
D03*
D153*
X366714Y63146D02*
D03*
X427738D02*
D03*
D154*
X399213Y116732D02*
D03*
X170472Y147244D02*
D03*
X180259Y159875D02*
D03*
X294488Y84842D02*
D03*
X222050Y54050D02*
D03*
X312887Y53113D02*
D03*
X215748Y85236D02*
D03*
X265551Y91142D02*
D03*
X265158Y47244D02*
D03*
X312402Y88700D02*
D03*
X327870Y98131D02*
D03*
X176181Y159843D02*
D03*
X176378Y163779D02*
D03*
X180512Y163976D02*
D03*
X359316Y132023D02*
D03*
X359416Y139337D02*
D03*
X359391Y146202D02*
D03*
X359221Y153181D02*
D03*
X401646Y155977D02*
D03*
X399360Y167076D02*
D03*
X370866Y161417D02*
D03*
X374305Y113085D02*
D03*
X391535Y116929D02*
D03*
X469685Y73228D02*
D03*
X466862Y76248D02*
D03*
X431724Y390916D02*
D03*
X424373Y400627D02*
D03*
X263835Y236063D02*
D03*
X263836Y231062D02*
D03*
Y226062D02*
D03*
X91984Y44961D02*
D03*
X95984D02*
D03*
Y41961D02*
D03*
X91984D02*
D03*
X87984Y44961D02*
D03*
Y41961D02*
D03*
X112662Y141157D02*
D03*
X258019Y310782D02*
D03*
X304366Y186129D02*
D03*
X399489Y401063D02*
D03*
X346000Y378000D02*
D03*
X348000D02*
D03*
Y380000D02*
D03*
X346000D02*
D03*
X352071Y373045D02*
D03*
X340707Y374620D02*
D03*
X111586Y151652D02*
D03*
X488168Y53257D02*
D03*
X239699Y54050D02*
D03*
X246115Y78690D02*
D03*
X232349Y94517D02*
D03*
X280655Y99999D02*
D03*
X337653Y80084D02*
D03*
X359849Y39849D02*
D03*
X361260Y77740D02*
D03*
X377570Y104858D02*
D03*
X384720D02*
D03*
X393000Y104910D02*
D03*
X400547Y104858D02*
D03*
X433185Y83369D02*
D03*
X461668Y83217D02*
D03*
X502011Y59414D02*
D03*
X503067Y64642D02*
D03*
X485353Y84647D02*
D03*
X507115Y97352D02*
D03*
X224000Y141000D02*
D03*
X288464Y188536D02*
D03*
X283871Y174129D02*
D03*
X284317Y162317D02*
D03*
X283507Y150507D02*
D03*
X283695Y138695D02*
D03*
X328254Y166254D02*
D03*
X327557Y154443D02*
D03*
X326667Y142632D02*
D03*
X323629Y128371D02*
D03*
X371136Y121534D02*
D03*
X372975Y166647D02*
D03*
X383000Y170000D02*
D03*
X389786Y169786D02*
D03*
X407630Y132503D02*
D03*
X401807Y132193D02*
D03*
X490139Y147861D02*
D03*
X210000Y134213D02*
D03*
X469658Y297386D02*
D03*
X371420Y219420D02*
D03*
X356419D02*
D03*
X354972Y260971D02*
D03*
Y295971D02*
D03*
X421656Y318344D02*
D03*
X441656Y317656D02*
D03*
X453147Y310853D02*
D03*
Y315853D02*
D03*
D155*
X480512Y156693D02*
D03*
X441732Y221260D02*
D03*
X463779Y303346D02*
D03*
X290355Y251968D02*
D03*
X304528Y334252D02*
D03*
X310433Y343701D02*
D03*
X304920Y357282D02*
D03*
X292126Y372835D02*
D03*
X270472Y405512D02*
D03*
X288157Y409157D02*
D03*
X57284Y178937D02*
D03*
X119618Y30641D02*
D03*
X126378Y30709D02*
D03*
X111696Y42108D02*
D03*
X188659Y11811D02*
D03*
X182480D02*
D03*
X192126Y171653D02*
D03*
X436811Y204528D02*
D03*
X423537Y197047D02*
D03*
X437120D02*
D03*
X179000Y227000D02*
D03*
X322244Y364764D02*
D03*
X337402Y364567D02*
D03*
X221850Y69291D02*
D03*
X222047Y73622D02*
D03*
X162008Y65945D02*
D03*
X147835Y64173D02*
D03*
X145669Y73425D02*
D03*
X151772Y42717D02*
D03*
X129724Y22835D02*
D03*
X88770Y13175D02*
D03*
X28346Y53347D02*
D03*
X28150Y61024D02*
D03*
X100984Y120866D02*
D03*
X142126Y126969D02*
D03*
X108661Y177362D02*
D03*
X99714Y149696D02*
D03*
X99606Y156693D02*
D03*
X103347Y132677D02*
D03*
X118681Y137036D02*
D03*
X46654Y121063D02*
D03*
X238270Y42045D02*
D03*
X219372Y42656D02*
D03*
X222028Y90767D02*
D03*
X270840Y78766D02*
D03*
X270506Y96491D02*
D03*
X287614Y41551D02*
D03*
X268716Y41760D02*
D03*
X317532Y94870D02*
D03*
X318125Y76560D02*
D03*
X334449Y41142D02*
D03*
X315354Y41732D02*
D03*
X411372Y107329D02*
D03*
X481170Y64634D02*
D03*
X479528Y76181D02*
D03*
X507312Y84871D02*
D03*
X464256Y131610D02*
D03*
X464199Y140329D02*
D03*
X464273Y149116D02*
D03*
X464266Y157584D02*
D03*
X464202Y166310D02*
D03*
X464444Y175074D02*
D03*
X492323Y202953D02*
D03*
X483456Y206702D02*
D03*
X470509Y207247D02*
D03*
X469698Y282493D02*
D03*
X484819Y413803D02*
D03*
X443307Y378346D02*
D03*
X365748Y364764D02*
D03*
X402362Y404528D02*
D03*
X405088Y413947D02*
D03*
X415000Y416000D02*
D03*
X421354Y404646D02*
D03*
X442062Y397062D02*
D03*
X428071Y367992D02*
D03*
X362961Y337174D02*
D03*
X282480Y368504D02*
D03*
X307849Y303765D02*
D03*
X332585Y307966D02*
D03*
X328740Y317126D02*
D03*
X312999Y226976D02*
D03*
X312827Y235598D02*
D03*
X278347Y251771D02*
D03*
X299410Y248229D02*
D03*
X263158Y241062D02*
D03*
X309233Y247011D02*
D03*
X353515Y165579D02*
D03*
X353535Y183670D02*
D03*
X315928Y158841D02*
D03*
X316331Y172827D02*
D03*
X316086Y192858D02*
D03*
X306102Y127362D02*
D03*
X244951Y147313D02*
D03*
X202119Y122395D02*
D03*
X183572Y295974D02*
D03*
X170646Y311000D02*
D03*
X152034Y317782D02*
D03*
X119793Y295974D02*
D03*
X106251Y310582D02*
D03*
X88103Y318221D02*
D03*
X60872Y310469D02*
D03*
X40748Y310630D02*
D03*
X21405Y317965D02*
D03*
X56192Y295974D02*
D03*
X184252Y196850D02*
D03*
X171850D02*
D03*
X177953D02*
D03*
X148507Y87507D02*
D03*
X177756Y44882D02*
D03*
X177953Y49213D02*
D03*
X171749Y60330D02*
D03*
X171765Y34055D02*
D03*
X131008Y58466D02*
D03*
X130820Y51772D02*
D03*
X118591Y68607D02*
D03*
X122326Y55148D02*
D03*
X137418Y40119D02*
D03*
X148228Y103937D02*
D03*
X148425Y111024D02*
D03*
X114961Y114173D02*
D03*
X114764Y108268D02*
D03*
X114426Y93574D02*
D03*
X71295Y243450D02*
D03*
X105003Y42011D02*
D03*
X28156Y67710D02*
D03*
X78913Y16362D02*
D03*
X37379Y56566D02*
D03*
X28261Y74684D02*
D03*
X48363Y61582D02*
D03*
X105648Y22297D02*
D03*
X85236Y62992D02*
D03*
X84627Y68470D02*
D03*
X19324Y85663D02*
D03*
X63189Y111417D02*
D03*
X98819Y68701D02*
D03*
X102861Y54838D02*
D03*
X19324Y102448D02*
D03*
X96260Y187598D02*
D03*
X96457Y193109D02*
D03*
X107283Y196721D02*
D03*
X99410Y162598D02*
D03*
X141822Y183768D02*
D03*
X141339Y190354D02*
D03*
X132160Y152597D02*
D03*
X63386Y186417D02*
D03*
X132283Y122244D02*
D03*
X352000Y416000D02*
D03*
X359000Y415000D02*
D03*
X330000Y416000D02*
D03*
X189590Y303590D02*
D03*
X381000Y417000D02*
D03*
X115000Y267000D02*
D03*
X106811Y278811D02*
D03*
X64000Y267000D02*
D03*
X74000Y278000D02*
D03*
X166189Y235189D02*
D03*
X179000Y261000D02*
D03*
X166811Y268811D02*
D03*
X343015Y415846D02*
D03*
X337000Y415000D02*
D03*
X450884Y423884D02*
D03*
X202119Y134699D02*
D03*
X390745Y336745D02*
D03*
X405662D02*
D03*
X390799Y413201D02*
D03*
X413122Y368122D02*
D03*
X387524Y393476D02*
D03*
X366176Y393906D02*
D03*
X359483Y393483D02*
D03*
X387324Y365676D02*
D03*
X359187Y365187D02*
D03*
X322475Y371475D02*
D03*
X322027Y378027D02*
D03*
X346482Y405482D02*
D03*
X321612Y401388D02*
D03*
X141896Y177896D02*
D03*
X141277Y171277D02*
D03*
X141715Y157715D02*
D03*
X142689Y149311D02*
D03*
X169997Y112137D02*
D03*
X170598Y94536D02*
D03*
X125840Y311697D02*
D03*
X31082Y175918D02*
D03*
X462273Y113727D02*
D03*
X236118Y151118D02*
D03*
X302395Y118101D02*
D03*
X295589Y118411D02*
D03*
X278846Y128180D02*
D03*
X278228Y188772D02*
D03*
X307031Y197000D02*
D03*
X339000Y195000D02*
D03*
X333865Y127865D02*
D03*
X415925Y127925D02*
D03*
X422000Y147551D02*
D03*
X430000Y145000D02*
D03*
X462104Y207104D02*
D03*
X492821Y195821D02*
D03*
X533856Y130144D02*
D03*
X494856Y130145D02*
D03*
X495375Y187625D02*
D03*
X533832Y191168D02*
D03*
X455297Y321916D02*
D03*
X465000Y378000D02*
D03*
X470930Y407930D02*
D03*
X511095Y411095D02*
D03*
X498000Y429000D02*
D03*
X480000Y423000D02*
D03*
X469858Y421142D02*
D03*
X460923Y422077D02*
D03*
X426000Y422000D02*
D03*
Y429548D02*
D03*
X307309Y257309D02*
D03*
X271691Y257309D02*
D03*
X270970Y265970D02*
D03*
X271557Y286443D02*
D03*
X307427Y312427D02*
D03*
X321850Y317295D02*
D03*
X319884Y415116D02*
D03*
X311834Y428834D02*
D03*
X284459Y428541D02*
D03*
X247708Y410292D02*
D03*
X247906Y421907D02*
D03*
X152636Y281364D02*
D03*
X89134Y281134D02*
D03*
X25000Y281000D02*
D03*
D156*
X385826Y129573D02*
D03*
D157*
X520195Y208790D02*
D03*
D181*
X171889Y404811D02*
X195883Y380817D01*
X171889Y404811D02*
Y419244D01*
X122752Y389672D02*
Y419244D01*
Y389672D02*
X131607Y380817D01*
X67368D02*
Y413027D01*
X73586Y419244D01*
X43748Y363367D02*
X50601Y356514D01*
X43748Y324912D02*
Y363367D01*
X43683Y363433D02*
X43748Y363367D01*
X107087Y356514D02*
X172619D01*
X50601D02*
X107087D01*
X107987Y324912D02*
Y355614D01*
X107087Y356514D02*
X107987Y355614D01*
X172263Y324912D02*
X172619Y325269D01*
Y356514D01*
X43683Y363433D02*
Y419244D01*
X43748Y419178D01*
M02*
