M48
;Layer_Color=9474304
;FILE_FORMAT=4:3
METRIC,LZ
;TYPE=PLATED
T01F00S00C0.300
T02F00S00C0.400
T03F00S00C0.600
T05F00S00C0.864
T06F00S00C0.900
T07F00S00C1.020
T08F00S00C1.100
T09F00S00C1.270
T11F00S00C1.300
T12F00S00C1.500
T13F00S00C1.524
T14F00S00C1.600
T15F00S00C3.200
;TYPE=NON_PLATED
T16F00S00C0.650
T17F00S00C1.000
T18F00S00C3.250
%
T01
X009945Y00297
X01014Y002965
X0098Y0032912
X00942Y0041
X0045786Y0040608
X004475Y00406
X00448Y00416
X004585Y004165
T02
X0022348Y0010658
Y001142
X0023364
Y0010658
X002438
Y001142
X0056401Y0013729
X0060884
X006735Y0012
X0079473Y0013491
X0091402Y0010122
X0123995Y0013527
X0127511Y0015091
X0127779Y0016419
X0128807Y0024727
X012328Y00215
X0124495Y0037557
X0117264Y0021137
X0118583Y0019367
X01193Y00186
X0110029Y0021176
X0101739Y0026634
X0099822Y0026647
X0097719Y0026634
X0095903
X0095074Y0028724
X0094269Y003087
X0091266Y0033534
X0091292Y0035392
X0091285Y0037135
X0091242Y0038908
X0094736Y0042328
X0097282Y004318
X0099006Y0043126
X0101437Y0042437
X0102018Y0039618
X0102059Y0033577
X0103538Y0033656
X0082202Y0032606
X0082973Y0036228
X0083199Y0039229
X0083376Y0042228
X0083279Y0024925
X0085764Y0020341
X009176Y0019746
X0090531Y0055733
X0094341
X0077309Y0047277
X007327Y0047888
X0072103Y0044229
X0072217Y0041229
X0072011Y0038229
X0072059Y0035229
X0071286Y00254
X006745Y002315
X0062513Y0019987
X0059017Y0024007
X00548Y002165
X005334Y003409
X0056896Y0035814
X00433Y00374
X00748Y002155
X007935Y002253
X0028616Y0035854
X0028343Y0038519
X0067014Y005742
Y005869
X0067014Y005996
X0065537Y0078939
X0090163Y0075177
Y0066287
X0089426Y0094753
X0086539Y0095153
X0107101Y0080859
X0112181Y0080685
X0115099Y0080227
Y0078957
X0119293Y0075536
X0109658Y0099293
X0107791Y0101759
X010147Y010187
X0088392Y009652
Y0096012
X0087884
Y009652
T03
X00072Y001355
X000715Y00155
X0009494Y0014368
X0012284Y0015642
X002165Y0016
X0026127Y0013929
X0026671Y0010671
X0028371Y0010696
X0030383Y0007783
X00321Y00078
X003295Y00058
X0026835Y0005663
X0022548Y0003346
X0020044Y0004156
X0031071Y0014008
X0033228Y001315
X0033276Y001485
X0034904Y001019
X003855Y001085
X004515Y00114
X00452Y00125
X0043624Y0015324
X0043628Y000865
X004635Y0003
X0047919
X005572Y0010835
X0060521Y0010679
X0068254Y0010607
X0073054Y0010554
X00801Y00106
X008495Y001045
X0122217Y0016417
X01218Y001935
X0128857Y0021557
X0125693Y0033057
X0135599Y0033057
X0135593Y0048557
X0125825Y0047657
X0125177Y0049739
X012505Y005155
X0122798Y0052502
X012205Y00398
X0117924Y0040026
X0117925Y0037875
X0117907Y0035643
X0117921Y0033429
X0117417Y0028887
X0117907Y0042243
X0117969Y0044469
X0117374Y0052604
X0119509Y0052641
X011095Y005195
X0111028Y005005
X0107578
X0107188Y0037478
X010922Y003683
X0105645Y0032493
X0104488Y0027262
X0084802Y0032478
X0080653Y0024097
X0080804Y0019446
X0089793Y0042057
X0089798Y0046652
X0086106Y004953
X0080286Y0048986
X0077986Y0050038
X0080348Y0043898
X0080246Y0040346
X007775Y003235
X0076808Y0029998
X007508Y0030076
X0070827Y0032558
X0068709Y0024509
X0068793Y0020007
X00564Y00187
X005635Y00176
X0056395Y0023055
X0051338Y0031088
Y0034214
X00488Y00436
X00468Y005
X00452
X004365
X0043179Y0028483
X0043332Y0024012
X004115Y001675
X0059974Y0038384
X0062218Y0037418
X007067Y0047948
X00359Y004835
X0036023Y0046677
X0036042Y0045186
X0035884Y0043504
X0035996Y004006
X0036243Y0037925
X0033569Y003876
X0030145Y0034807
X002625Y00337
X002565Y00307
X00292Y0029
X002915Y00275
X0029064Y0023768
X0030122Y0017426
X00251Y001745
X0021495Y0017391
X0007152Y0017198
X0007178Y001897
X0004908Y0021758
Y0026022
X001185Y003075
X001605Y00283
X001455Y004545
X00161Y004735
X002445Y004765
X00245Y004905
X002725Y0049967
X00276Y004505
X002525Y00413
X00253Y00398
X0025327Y0038023
X00336Y003105
X00361Y003225
X00377Y00282
X003765Y00264
X0037721Y0022227
X0037Y001865
X003755Y00163
X0007895Y0044683
X0018109Y0061836
X0016256Y0067818
X0018796Y0070612
X002264Y0071408
X002713Y0070818
X002921Y0067818
X0030427Y0075177
X0031963Y0079171
X0026988Y0078888
X0022378Y0080828
X0015462Y0078859
X0014273Y0075177
X001035Y00789
X0005437Y0080763
X000635Y0071374
X003877Y0071466
X0038617Y0080717
X0043344Y0078994
X0048156Y0077112
X0046627Y0075177
X0045466Y0066294
X004237Y0068278
X0042212Y0059738
X0045466Y0057658
X0066842Y006123
X0069009Y0065357
X0068826Y0067556
X0068975Y0072757
X00707Y006395
X007375Y0064
X007605Y006305
X0078545Y0062741
X0078056Y0065356
X0079458Y0059842
X0079502Y0057652
X0078194Y0077156
X0078086Y0079356
X007735Y00849
X007885Y00873
X007745Y009075
X00742Y00947
X007175Y00936
X0081909Y0094355
X008185Y009265
X00857Y00926
X0091234Y0092758
X00929Y009265
X009838Y0092882
X0104933Y0093503
X010873Y009347
X0103038Y0085533
X0099249
X0092192Y0085642
X00835Y008055
X008175Y0080593
X0084477Y0078223
X01178Y007705
X0119303Y0071753
X0115646Y0081767
X01122Y00562
X0123144Y0105106
X012192Y0107442
X0126492Y0108966
X0129818Y0104418
X0119616Y0103614
X0119344Y010697
X0117074Y0107208
X0114524Y0107666
X0108204Y0107188
Y0109105
X010541Y0105664
X0102892Y0105143
X01022Y010275
X0107024Y010278
X0112284Y0100854
X01126Y00961
X011811Y0096012
X0098431Y0099943
X0093009Y0100052
X0091309Y0099945
X0091186Y010541
X0089408Y0105664
X0087126Y0105625
X0085598Y010541
X008382Y0105664
X0081251Y0105439
X0081689Y0101953
X0081795Y0096019
X0088006Y0102992
X0096774Y0105918
X0099263Y0104953
X0079206Y0108924
X0072253Y0108849
X0073192Y0103926
X00687Y0103
X0062918Y0104214
X0062968Y0107164
T05
X0135215Y0020862
Y0023402
Y0025942
Y0028482
T06
X0096455Y0019339
X0098995
X0101535
X0104075
X0105335Y0021879
X0102795
X0100255
X0097715
T07
X009427Y0008089
X009681
X010498
X010752
T08
X013462Y0068326
Y0070866
Y0073406
Y0075946
Y0078486
Y0081026
Y0083566
Y0086106
Y0088646
Y0091186
Y0093726
X013716
Y0091186
Y0088646
Y0086106
Y0083566
Y0081026
Y0078486
Y0075946
Y0073406
Y0070866
Y0068326
Y0096266
Y0098806
X013462
Y0096266
T09
X0115838Y0004274
X0120918
X0126Y0004275
X0131088Y0004284
X0136144Y0053086
Y0058166
X0136077Y0063313
T11
X013213Y0053033
T12
X0093145Y0016039
X0108645
T13
X0005112Y0084528
X0011112Y0082528
X0017112Y0084528
X0021429
X0027429Y0082528
X0033429Y0084528
X0037755
X0043755Y0082528
X0049755Y0084528
X0049754Y0096728
X0037755Y0096728
X0033428Y0096728
X0021429Y0096728
X0017112Y0096728
X0005113Y0096728
T14
X0011656Y0050531
Y0055531
X004366Y0106488
X004866
X0036179
X0031179
X0023691
X0018691
X0011095
X0006095
T15
X0004826Y000381
X0139192Y0004826
Y0109474
T16
X0055221Y0008043
X006101
X0067754Y0007984
X0073544
X0079606Y0008083
X0085396
T17
X0134389Y0035857
Y0043857
T18
X0095185Y0012989
X0106605
M30
