M48
;Layer_Color=9474304
;FILE_FORMAT=4:3
METRIC,LZ
;TYPE=PLATED
T04F00S00C0.600
T10F00S00C1.270
;TYPE=NON_PLATED
%
G90
G05
T04
G00X00538Y0003963
M15
G01Y0004763
M16
G00X00538Y0007993
M15
G01Y0009093
M16
G00X006244Y0007993
M15
G01Y0009093
M16
G00X0066334Y0007934
M15
G01Y0009034
M16
G00X0066334Y0003904
M15
G01Y0004704
M16
G00X006244Y0003963
M15
G01Y0004763
M16
G00X0074974Y0003904
M15
G01Y0004704
M16
G00X0078186Y0004003
M15
G01Y0004803
M16
G00X0078186Y0008033
M15
G01Y0009133
M16
G00X0074974Y0007934
M15
G01Y0009034
M16
G00X0086826Y0008033
M15
G01Y0009133
M16
G00X0086826Y0004003
M15
G01Y0004803
M16
T10
G00X0014266Y0030934
M15
G01X0015536
M16
G00X0017441Y0035379
M15
G01Y0036649
M16
G00X0011091Y0035379
M15
G01Y0036649
M16
M17
M30
