G04*
G04 #@! TF.GenerationSoftware,Altium Limited,Altium Designer,24.10.1 (45)*
G04*
G04 Layer_Color=8421504*
%FSLAX25Y25*%
%MOIN*%
G70*
G04*
G04 #@! TF.SameCoordinates,188A72EA-56D5-4262-AEF0-458277A37510*
G04*
G04*
G04 #@! TF.FilePolarity,Positive*
G04*
G01*
G75*
%ADD23R,0.03150X0.03543*%
%ADD24R,0.07874X0.02756*%
%ADD25R,0.07087X0.06693*%
%ADD26R,0.02362X0.04213*%
%ADD27R,0.03071X0.01378*%
%ADD28O,0.08051X0.02315*%
%ADD29R,0.08691X0.10205*%
%ADD30R,0.03543X0.03150*%
%ADD31R,0.09354X0.07480*%
%ADD32R,0.07480X0.09354*%
%ADD33R,0.12992X0.10630*%
%ADD34R,0.07480X0.09843*%
%ADD35R,0.03150X0.03150*%
%ADD36R,0.02362X0.04331*%
%ADD37R,0.03150X0.03150*%
%ADD38R,0.09055X0.13780*%
%ADD39R,0.04213X0.02362*%
%ADD40O,0.02756X0.08661*%
%ADD41R,0.12992X0.09055*%
%ADD42R,0.09921X0.15984*%
%ADD43R,0.10630X0.12992*%
%ADD44O,0.01350X0.06817*%
%ADD45R,0.13780X0.09055*%
%ADD46R,0.03950X0.05918*%
%ADD47R,0.09068X0.12611*%
%ADD48R,0.15984X0.09921*%
%ADD49R,0.02953X0.04724*%
%ADD50R,0.04724X0.02953*%
%ADD51R,0.02756X0.04921*%
%ADD52R,0.07874X0.05906*%
%ADD53R,0.05847X0.06803*%
%ADD54R,0.08661X0.04134*%
%ADD55R,0.04134X0.03937*%
%ADD56R,0.03150X0.06693*%
%ADD57O,0.06661X0.01433*%
%ADD58C,0.03150*%
%ADD59R,0.04724X0.05512*%
%ADD60O,0.02480X0.07343*%
%ADD61R,0.01575X0.02362*%
%ADD62R,0.04921X0.02756*%
%ADD63R,0.01929X0.04626*%
%ADD64R,0.01929X0.04555*%
%ADD65O,0.06870X0.02205*%
%ADD66R,0.06693X0.07874*%
%ADD67R,0.05906X0.01968*%
%ADD68R,0.05906X0.06299*%
%ADD69R,0.08661X0.04724*%
%ADD70R,0.05906X0.04724*%
%ADD71R,0.06299X0.02756*%
%ADD72R,0.08061X0.08823*%
G36*
X331845Y429428D02*
Y426279D01*
X331648Y426082D01*
X330695D01*
Y427538D01*
X329396D01*
Y426082D01*
X328499D01*
X328302Y426279D01*
Y429428D01*
X328499Y429625D01*
X331648D01*
X331845Y429428D01*
D02*
G37*
G36*
X331845Y423168D02*
Y420019D01*
X331648Y419822D01*
X328499D01*
X328302Y420019D01*
Y423168D01*
X328499Y423365D01*
X329451D01*
Y421908D01*
X330751D01*
Y423365D01*
X331648D01*
X331845Y423168D01*
D02*
G37*
G36*
X271617Y419159D02*
Y416010D01*
X271420Y415813D01*
X270467D01*
Y417269D01*
X269168D01*
Y415813D01*
X268271D01*
X268074Y416010D01*
Y419159D01*
X268271Y419356D01*
X271420D01*
X271617Y419159D01*
D02*
G37*
G36*
X299967Y418858D02*
Y415709D01*
X299770Y415512D01*
X298817D01*
Y416969D01*
X297518D01*
Y415512D01*
X296620D01*
X296424Y415709D01*
Y418858D01*
X296620Y419055D01*
X299770D01*
X299967Y418858D01*
D02*
G37*
G36*
X271617Y412899D02*
Y409750D01*
X271420Y409553D01*
X268270D01*
X268074Y409750D01*
Y412899D01*
X268270Y413096D01*
X269223D01*
Y411639D01*
X270522D01*
Y413096D01*
X271420D01*
X271617Y412899D01*
D02*
G37*
G36*
X299967Y412598D02*
Y409449D01*
X299770Y409252D01*
X296620D01*
X296423Y409449D01*
Y412598D01*
X296620Y412795D01*
X297573D01*
Y411339D01*
X298872D01*
Y412795D01*
X299770D01*
X299967Y412598D01*
D02*
G37*
G36*
X466541Y406040D02*
Y402891D01*
X466344Y402694D01*
X465392D01*
Y404151D01*
X464092D01*
Y402694D01*
X463195D01*
X462998Y402891D01*
Y406040D01*
X463195Y406237D01*
X466344D01*
X466541Y406040D01*
D02*
G37*
G36*
X472702Y406004D02*
Y402854D01*
X472505Y402657D01*
X471552D01*
Y404114D01*
X470253D01*
Y402657D01*
X469355D01*
X469159Y402854D01*
Y406004D01*
X469355Y406201D01*
X472505D01*
X472702Y406004D01*
D02*
G37*
G36*
X460512Y406004D02*
Y402854D01*
X460315Y402657D01*
X459362D01*
Y404114D01*
X458063D01*
Y402657D01*
X457166D01*
X456969Y402854D01*
Y406004D01*
X457166Y406200D01*
X460315D01*
X460512Y406004D01*
D02*
G37*
G36*
X354746Y403331D02*
Y400181D01*
X354549Y399984D01*
X353596D01*
Y401441D01*
X352297D01*
Y399984D01*
X351400D01*
X351203Y400181D01*
Y403331D01*
X351400Y403528D01*
X354549D01*
X354746Y403331D01*
D02*
G37*
G36*
X327650Y403127D02*
Y399978D01*
X327453Y399781D01*
X326500D01*
Y401237D01*
X325201D01*
Y399781D01*
X324304D01*
X324107Y399978D01*
Y403127D01*
X324304Y403324D01*
X327453D01*
X327650Y403127D01*
D02*
G37*
G36*
X231517Y402926D02*
Y401973D01*
X230060D01*
Y400674D01*
X231517D01*
Y399776D01*
X231320Y399579D01*
X228170D01*
X227974Y399776D01*
Y402926D01*
X228170Y403123D01*
X231320D01*
X231517Y402926D01*
D02*
G37*
G36*
X237777Y402925D02*
Y399776D01*
X237580Y399579D01*
X234430D01*
X234233Y399776D01*
Y400729D01*
X235690D01*
Y402028D01*
X234233D01*
Y402925D01*
X234430Y403122D01*
X237580D01*
X237777Y402925D01*
D02*
G37*
G36*
X417030Y402202D02*
Y401249D01*
X415574D01*
Y399949D01*
X417030D01*
Y399052D01*
X416833Y398855D01*
X413684D01*
X413487Y399052D01*
Y402202D01*
X413684Y402398D01*
X416833D01*
X417030Y402202D01*
D02*
G37*
G36*
X423290Y402201D02*
Y399052D01*
X423093Y398855D01*
X419944D01*
X419747Y399052D01*
Y400005D01*
X421204D01*
Y401304D01*
X419747D01*
Y402201D01*
X419944Y402398D01*
X423093D01*
X423290Y402201D01*
D02*
G37*
G36*
X466541Y399781D02*
Y396631D01*
X466344Y396434D01*
X463195D01*
X462998Y396631D01*
Y399781D01*
X463195Y399977D01*
X464148D01*
Y398521D01*
X465447D01*
Y399977D01*
X466344D01*
X466541Y399781D01*
D02*
G37*
G36*
X472702Y399744D02*
Y396594D01*
X472505Y396397D01*
X469355D01*
X469158Y396594D01*
Y399744D01*
X469355Y399941D01*
X470308D01*
Y398484D01*
X471607D01*
Y399941D01*
X472505D01*
X472702Y399744D01*
D02*
G37*
G36*
X460512Y399744D02*
Y396594D01*
X460315Y396397D01*
X457165D01*
X456969Y396594D01*
Y399744D01*
X457165Y399940D01*
X458118D01*
Y398484D01*
X459418D01*
Y399940D01*
X460315D01*
X460512Y399744D01*
D02*
G37*
G36*
X354746Y397071D02*
Y393921D01*
X354549Y393724D01*
X351399D01*
X351203Y393921D01*
Y397071D01*
X351399Y397268D01*
X352352D01*
Y395811D01*
X353652D01*
Y397268D01*
X354549D01*
X354746Y397071D01*
D02*
G37*
G36*
X327650Y396867D02*
Y393718D01*
X327453Y393521D01*
X324303D01*
X324107Y393718D01*
Y396867D01*
X324303Y397064D01*
X325256D01*
Y395607D01*
X326555D01*
Y397064D01*
X327453D01*
X327650Y396867D01*
D02*
G37*
G36*
X402868Y392258D02*
Y389108D01*
X402671Y388911D01*
X401718D01*
Y390368D01*
X400419D01*
Y388911D01*
X399522D01*
X399325Y389108D01*
Y392258D01*
X399522Y392455D01*
X402671D01*
X402868Y392258D01*
D02*
G37*
G36*
X380672Y391938D02*
Y388788D01*
X380475Y388592D01*
X379522D01*
Y390048D01*
X378223D01*
Y388592D01*
X377325D01*
X377129Y388788D01*
Y391938D01*
X377325Y392135D01*
X380475D01*
X380672Y391938D01*
D02*
G37*
G36*
X402868Y385998D02*
Y382848D01*
X402671Y382651D01*
X399521D01*
X399325Y382848D01*
Y385998D01*
X399521Y386195D01*
X400474D01*
Y384738D01*
X401774D01*
Y386195D01*
X402671D01*
X402868Y385998D01*
D02*
G37*
G36*
X380672Y385678D02*
Y382528D01*
X380475Y382332D01*
X377325D01*
X377128Y382528D01*
Y385678D01*
X377325Y385875D01*
X378278D01*
Y384418D01*
X379577D01*
Y385875D01*
X380475D01*
X380672Y385678D01*
D02*
G37*
G36*
X327253Y387352D02*
Y386399D01*
X325797D01*
Y385100D01*
X327253D01*
Y384203D01*
X327056Y384006D01*
X323907D01*
X323710Y384203D01*
Y387352D01*
X323907Y387549D01*
X327056D01*
X327253Y387352D01*
D02*
G37*
G36*
X333513Y387352D02*
Y384203D01*
X333316Y384006D01*
X330167D01*
X329970Y384203D01*
Y385155D01*
X331427D01*
Y386455D01*
X329970D01*
Y387352D01*
X330167Y387549D01*
X333316D01*
X333513Y387352D01*
D02*
G37*
G36*
X350353Y383478D02*
X349566D01*
Y386628D01*
X350353D01*
Y383478D01*
D02*
G37*
G36*
X348778D02*
X347991D01*
Y386628D01*
X348778D01*
Y383478D01*
D02*
G37*
G36*
X347204D02*
X346417D01*
Y386628D01*
X347204D01*
Y383478D01*
D02*
G37*
G36*
X345629D02*
X344842D01*
Y386628D01*
X345629D01*
Y383478D01*
D02*
G37*
G36*
X344054D02*
X343267D01*
Y386628D01*
X344054D01*
Y383478D01*
D02*
G37*
G36*
X354290Y381904D02*
X351140D01*
Y382691D01*
X354290D01*
Y381904D01*
D02*
G37*
G36*
X342479D02*
X339329D01*
Y382691D01*
X342479D01*
Y381904D01*
D02*
G37*
G36*
X354290Y380329D02*
X351140D01*
Y381116D01*
X354290D01*
Y380329D01*
D02*
G37*
G36*
X342479D02*
X339329D01*
Y381116D01*
X342479D01*
Y380329D01*
D02*
G37*
G36*
X354290Y378755D02*
X351140D01*
Y379542D01*
X354290D01*
Y378755D01*
D02*
G37*
G36*
X342479D02*
X339329D01*
Y379542D01*
X342479D01*
Y378755D01*
D02*
G37*
G36*
X354290Y377180D02*
X351140D01*
Y377967D01*
X354290D01*
Y377180D01*
D02*
G37*
G36*
X342479D02*
X339329D01*
Y377967D01*
X342479D01*
Y377180D01*
D02*
G37*
G36*
X349487Y376470D02*
X344132D01*
Y381825D01*
X349487D01*
Y376470D01*
D02*
G37*
G36*
X354290Y375605D02*
X351140D01*
Y376392D01*
X354290D01*
Y375605D01*
D02*
G37*
G36*
X342479D02*
X339329D01*
Y376392D01*
X342479D01*
Y375605D01*
D02*
G37*
G36*
X402728Y376392D02*
Y373242D01*
X402531Y373045D01*
X401579D01*
Y374502D01*
X400279D01*
Y373045D01*
X399382D01*
X399185Y373242D01*
Y376392D01*
X399382Y376588D01*
X402531D01*
X402728Y376392D01*
D02*
G37*
G36*
X380376Y376072D02*
Y372922D01*
X380180Y372725D01*
X379227D01*
Y374182D01*
X377927D01*
Y372725D01*
X377030D01*
X376833Y372922D01*
Y376072D01*
X377030Y376269D01*
X380180D01*
X380376Y376072D01*
D02*
G37*
G36*
X367257Y376035D02*
Y372886D01*
X367061Y372689D01*
X366108D01*
Y374146D01*
X364809D01*
Y372689D01*
X363911D01*
X363714Y372886D01*
Y376035D01*
X363911Y376232D01*
X367061D01*
X367257Y376035D01*
D02*
G37*
G36*
X350352Y371667D02*
X349565D01*
Y374817D01*
X350352D01*
Y371667D01*
D02*
G37*
G36*
X348777D02*
X347990D01*
Y374817D01*
X348777D01*
Y371667D01*
D02*
G37*
G36*
X347203D02*
X346416D01*
Y374817D01*
X347203D01*
Y371667D01*
D02*
G37*
G36*
X345628D02*
X344841D01*
Y374817D01*
X345628D01*
Y371667D01*
D02*
G37*
G36*
X344053D02*
X343266D01*
Y374817D01*
X344053D01*
Y371667D01*
D02*
G37*
G36*
X402728Y370132D02*
Y366982D01*
X402531Y366785D01*
X399382D01*
X399185Y366982D01*
Y370132D01*
X399382Y370328D01*
X400335D01*
Y368872D01*
X401634D01*
Y370328D01*
X402531D01*
X402728Y370132D01*
D02*
G37*
G36*
X380376Y369812D02*
Y366662D01*
X380179Y366465D01*
X377030D01*
X376833Y366662D01*
Y369812D01*
X377030Y370009D01*
X377983D01*
Y368552D01*
X379282D01*
Y370009D01*
X380179D01*
X380376Y369812D01*
D02*
G37*
G36*
X367257Y369776D02*
Y366626D01*
X367060Y366429D01*
X363911D01*
X363714Y366626D01*
Y369776D01*
X363911Y369972D01*
X364864D01*
Y368516D01*
X366163D01*
Y369972D01*
X367060D01*
X367257Y369776D01*
D02*
G37*
G36*
X327418Y366389D02*
Y365436D01*
X325961D01*
Y364137D01*
X327418D01*
Y363239D01*
X327221Y363042D01*
X324071D01*
X323874Y363239D01*
Y366389D01*
X324071Y366585D01*
X327221D01*
X327418Y366389D01*
D02*
G37*
G36*
X333678Y366389D02*
Y363239D01*
X333481Y363042D01*
X330331D01*
X330134Y363239D01*
Y364192D01*
X331591D01*
Y365491D01*
X330134D01*
Y366389D01*
X330331Y366585D01*
X333481D01*
X333678Y366389D01*
D02*
G37*
G36*
X368474Y338913D02*
Y335763D01*
X368277Y335566D01*
X367324D01*
Y337023D01*
X366025D01*
Y335566D01*
X365127D01*
X364931Y335763D01*
Y338913D01*
X365127Y339110D01*
X368277D01*
X368474Y338913D01*
D02*
G37*
G36*
X368474Y332653D02*
Y329503D01*
X368277Y329307D01*
X365127D01*
X364931Y329503D01*
Y332653D01*
X365127Y332850D01*
X366080D01*
Y331393D01*
X367379D01*
Y332850D01*
X368277D01*
X368474Y332653D01*
D02*
G37*
G36*
X448558Y332772D02*
Y331819D01*
X447101D01*
Y330520D01*
X448558D01*
Y329622D01*
X448361Y329425D01*
X445211D01*
X445014Y329622D01*
Y332772D01*
X445211Y332969D01*
X448361D01*
X448558Y332772D01*
D02*
G37*
G36*
X454818Y332772D02*
Y329622D01*
X454621Y329425D01*
X451471D01*
X451274Y329622D01*
Y330575D01*
X452731D01*
Y331874D01*
X451274D01*
Y332772D01*
X451471Y332968D01*
X454621D01*
X454818Y332772D01*
D02*
G37*
G36*
X89710Y316154D02*
Y315201D01*
X88253D01*
Y313902D01*
X89710D01*
Y313004D01*
X89513Y312807D01*
X86363D01*
X86167Y313004D01*
Y316154D01*
X86363Y316351D01*
X89513D01*
X89710Y316154D01*
D02*
G37*
G36*
X95970Y316154D02*
Y313004D01*
X95773Y312807D01*
X92623D01*
X92426Y313004D01*
Y313957D01*
X93883D01*
Y315256D01*
X92426D01*
Y316154D01*
X92623Y316351D01*
X95773D01*
X95970Y316154D01*
D02*
G37*
G36*
X23013Y315900D02*
Y314947D01*
X21556D01*
Y313648D01*
X23013D01*
Y312750D01*
X22816Y312553D01*
X19666D01*
X19469Y312750D01*
Y315900D01*
X19666Y316097D01*
X22816D01*
X23013Y315900D01*
D02*
G37*
G36*
X29272Y315900D02*
Y312750D01*
X29076Y312553D01*
X25926D01*
X25729Y312750D01*
Y313703D01*
X27186D01*
Y315002D01*
X25729D01*
Y315900D01*
X25926Y316096D01*
X29076D01*
X29272Y315900D01*
D02*
G37*
G36*
X153642Y315575D02*
Y314622D01*
X152185D01*
Y313323D01*
X153642D01*
Y312425D01*
X153445Y312228D01*
X150295D01*
X150098Y312425D01*
Y315575D01*
X150295Y315772D01*
X153445D01*
X153642Y315575D01*
D02*
G37*
G36*
X159902Y315575D02*
Y312425D01*
X159705Y312228D01*
X156555D01*
X156358Y312425D01*
Y313378D01*
X157815D01*
Y314677D01*
X156358D01*
Y315575D01*
X156555Y315772D01*
X159705D01*
X159902Y315575D01*
D02*
G37*
G36*
X250810Y305934D02*
Y304981D01*
X249353D01*
Y303682D01*
X250810D01*
Y302784D01*
X250613Y302587D01*
X247463D01*
X247266Y302784D01*
Y305934D01*
X247463Y306131D01*
X250613D01*
X250810Y305934D01*
D02*
G37*
G36*
X257069Y305934D02*
Y302784D01*
X256873Y302587D01*
X253723D01*
X253526Y302784D01*
Y303737D01*
X254983D01*
Y305036D01*
X253526D01*
Y305934D01*
X253723Y306131D01*
X256873D01*
X257069Y305934D01*
D02*
G37*
G36*
X199604Y296549D02*
Y293400D01*
X199407Y293203D01*
X198455D01*
Y294659D01*
X197155D01*
Y293203D01*
X196258D01*
X196061Y293400D01*
Y296549D01*
X196258Y296746D01*
X199407D01*
X199604Y296549D01*
D02*
G37*
G36*
X146018D02*
Y293400D01*
X145821Y293203D01*
X144868D01*
Y294659D01*
X143569D01*
Y293203D01*
X142672D01*
X142475Y293400D01*
Y296549D01*
X142672Y296746D01*
X145821D01*
X146018Y296549D01*
D02*
G37*
G36*
X135563D02*
Y293400D01*
X135366Y293203D01*
X134414D01*
Y294659D01*
X133114D01*
Y293203D01*
X132217D01*
X132020Y293400D01*
Y296549D01*
X132217Y296746D01*
X135366D01*
X135563Y296549D01*
D02*
G37*
G36*
X83195D02*
Y293400D01*
X82998Y293203D01*
X82045D01*
Y294659D01*
X80746D01*
Y293203D01*
X79849D01*
X79652Y293400D01*
Y296549D01*
X79849Y296746D01*
X82998D01*
X83195Y296549D01*
D02*
G37*
G36*
X70990D02*
Y293400D01*
X70793Y293203D01*
X69841D01*
Y294659D01*
X68541D01*
Y293203D01*
X67644D01*
X67447Y293400D01*
Y296549D01*
X67644Y296746D01*
X70793D01*
X70990Y296549D01*
D02*
G37*
G36*
X19453D02*
Y293400D01*
X19256Y293203D01*
X18303D01*
Y294659D01*
X17004D01*
Y293203D01*
X16107D01*
X15910Y293400D01*
Y296549D01*
X16107Y296746D01*
X19256D01*
X19453Y296549D01*
D02*
G37*
G36*
X199604Y290289D02*
Y287140D01*
X199407Y286943D01*
X196258D01*
X196061Y287140D01*
Y290289D01*
X196258Y290486D01*
X197211D01*
Y289029D01*
X198510D01*
Y290486D01*
X199407D01*
X199604Y290289D01*
D02*
G37*
G36*
X146018D02*
Y287140D01*
X145821Y286943D01*
X142671D01*
X142474Y287140D01*
Y290289D01*
X142671Y290486D01*
X143624D01*
Y289029D01*
X144923D01*
Y290486D01*
X145821D01*
X146018Y290289D01*
D02*
G37*
G36*
X135563D02*
Y287140D01*
X135366Y286943D01*
X132217D01*
X132020Y287140D01*
Y290289D01*
X132217Y290486D01*
X133170D01*
Y289029D01*
X134469D01*
Y290486D01*
X135366D01*
X135563Y290289D01*
D02*
G37*
G36*
X83195D02*
Y287140D01*
X82998Y286943D01*
X79848D01*
X79652Y287140D01*
Y290289D01*
X79848Y290486D01*
X80801D01*
Y289029D01*
X82101D01*
Y290486D01*
X82998D01*
X83195Y290289D01*
D02*
G37*
G36*
X70990D02*
Y287140D01*
X70793Y286943D01*
X67644D01*
X67447Y287140D01*
Y290289D01*
X67644Y290486D01*
X68597D01*
Y289029D01*
X69896D01*
Y290486D01*
X70793D01*
X70990Y290289D01*
D02*
G37*
G36*
X19453D02*
Y287140D01*
X19256Y286943D01*
X16106D01*
X15910Y287140D01*
Y290289D01*
X16106Y290486D01*
X17059D01*
Y289029D01*
X18359D01*
Y290486D01*
X19256D01*
X19453Y290289D01*
D02*
G37*
G36*
X465374Y287795D02*
Y286842D01*
X463917D01*
Y285543D01*
X465374D01*
Y284646D01*
X465177Y284449D01*
X462028D01*
X461831Y284646D01*
Y287795D01*
X462028Y287992D01*
X465177D01*
X465374Y287795D01*
D02*
G37*
G36*
X471634Y287795D02*
Y284646D01*
X471437Y284449D01*
X468288D01*
X468091Y284646D01*
Y285598D01*
X469547D01*
Y286898D01*
X468091D01*
Y287795D01*
X468288Y287992D01*
X471437D01*
X471634Y287795D01*
D02*
G37*
G36*
X304909Y245014D02*
Y244061D01*
X303453D01*
Y242762D01*
X304909D01*
Y241864D01*
X304713Y241667D01*
X301563D01*
X301366Y241864D01*
Y245014D01*
X301563Y245211D01*
X304713D01*
X304909Y245014D01*
D02*
G37*
G36*
X311169Y245013D02*
Y241864D01*
X310973Y241667D01*
X307823D01*
X307626Y241864D01*
Y242817D01*
X309083D01*
Y244116D01*
X307626D01*
Y245013D01*
X307823Y245210D01*
X310973D01*
X311169Y245013D01*
D02*
G37*
G36*
X305091Y237173D02*
Y236220D01*
X303634D01*
Y234921D01*
X305091D01*
Y234023D01*
X304894Y233826D01*
X301745D01*
X301548Y234023D01*
Y237173D01*
X301745Y237369D01*
X304894D01*
X305091Y237173D01*
D02*
G37*
G36*
X311351Y237173D02*
Y234023D01*
X311154Y233826D01*
X308004D01*
X307808Y234023D01*
Y234976D01*
X309264D01*
Y236275D01*
X307808D01*
Y237173D01*
X308004Y237369D01*
X311154D01*
X311351Y237173D01*
D02*
G37*
G36*
X305306Y228551D02*
Y227598D01*
X303849D01*
Y226299D01*
X305306D01*
Y225401D01*
X305109Y225204D01*
X301959D01*
X301762Y225401D01*
Y228551D01*
X301959Y228748D01*
X305109D01*
X305306Y228551D01*
D02*
G37*
G36*
X311565Y228551D02*
Y225401D01*
X311369Y225204D01*
X308219D01*
X308022Y225401D01*
Y226354D01*
X309479D01*
Y227653D01*
X308022D01*
Y228551D01*
X308219Y228747D01*
X311369D01*
X311565Y228551D01*
D02*
G37*
G36*
X428815Y206266D02*
Y205313D01*
X427358D01*
Y204014D01*
X428815D01*
Y203117D01*
X428618Y202920D01*
X425468D01*
X425272Y203117D01*
Y206266D01*
X425468Y206463D01*
X428618D01*
X428815Y206266D01*
D02*
G37*
G36*
X435075Y206266D02*
Y203116D01*
X434878Y202920D01*
X431728D01*
X431531Y203116D01*
Y204069D01*
X432988D01*
Y205369D01*
X431531D01*
Y206266D01*
X431728Y206463D01*
X434878D01*
X435075Y206266D01*
D02*
G37*
G36*
X463876Y204741D02*
Y201592D01*
X463679Y201395D01*
X462726D01*
Y202852D01*
X461427D01*
Y201395D01*
X460529D01*
X460332Y201592D01*
Y204741D01*
X460529Y204938D01*
X463679D01*
X463876Y204741D01*
D02*
G37*
G36*
X472117Y204429D02*
Y203476D01*
X470660D01*
Y202176D01*
X472117D01*
Y201279D01*
X471920Y201082D01*
X468770D01*
X468573Y201279D01*
Y204429D01*
X468770Y204625D01*
X471920D01*
X472117Y204429D01*
D02*
G37*
G36*
X478376Y204428D02*
Y201279D01*
X478180Y201082D01*
X475030D01*
X474833Y201279D01*
Y202232D01*
X476290D01*
Y203531D01*
X474833D01*
Y204428D01*
X475030Y204625D01*
X478180D01*
X478376Y204428D01*
D02*
G37*
G36*
X463876Y198481D02*
Y195332D01*
X463679Y195135D01*
X460529D01*
X460332Y195332D01*
Y198481D01*
X460529Y198678D01*
X461482D01*
Y197222D01*
X462781D01*
Y198678D01*
X463679D01*
X463876Y198481D01*
D02*
G37*
G36*
X428957Y198622D02*
Y197669D01*
X427500D01*
Y196370D01*
X428957D01*
Y195473D01*
X428760Y195276D01*
X425610D01*
X425413Y195473D01*
Y198622D01*
X425610Y198819D01*
X428760D01*
X428957Y198622D01*
D02*
G37*
G36*
X435217Y198622D02*
Y195472D01*
X435020Y195275D01*
X431870D01*
X431673Y195472D01*
Y196425D01*
X433130D01*
Y197724D01*
X431673D01*
Y198622D01*
X431870Y198819D01*
X435020D01*
X435217Y198622D01*
D02*
G37*
G36*
X472190Y198478D02*
Y197526D01*
X470733D01*
Y196226D01*
X472190D01*
Y195329D01*
X471993Y195132D01*
X468844D01*
X468647Y195329D01*
Y198478D01*
X468844Y198675D01*
X471993D01*
X472190Y198478D01*
D02*
G37*
G36*
X478450Y198478D02*
Y195329D01*
X478253Y195132D01*
X475104D01*
X474907Y195329D01*
Y196282D01*
X476363D01*
Y197581D01*
X474907D01*
Y198478D01*
X475104Y198675D01*
X478253D01*
X478450Y198478D01*
D02*
G37*
G36*
X119687Y194419D02*
Y190453D01*
X119293Y190059D01*
X117871D01*
X117477Y190453D01*
Y191282D01*
X117083Y191675D01*
X115594D01*
X115200Y191282D01*
Y190453D01*
X114806Y190059D01*
X113384D01*
X112990Y190453D01*
Y194419D01*
X113384Y194813D01*
X119293D01*
X119687Y194419D01*
D02*
G37*
G36*
X463876Y191952D02*
Y188803D01*
X463679Y188606D01*
X462726D01*
Y190062D01*
X461427D01*
Y188606D01*
X460529D01*
X460332Y188803D01*
Y191952D01*
X460529Y192149D01*
X463679D01*
X463876Y191952D01*
D02*
G37*
G36*
X463876Y185692D02*
Y182543D01*
X463679Y182346D01*
X460529D01*
X460332Y182543D01*
Y185692D01*
X460529Y185889D01*
X461482D01*
Y184432D01*
X462781D01*
Y185889D01*
X463679D01*
X463876Y185692D01*
D02*
G37*
G36*
X351625Y185409D02*
Y182260D01*
X351428Y182063D01*
X350475D01*
Y183519D01*
X349176D01*
Y182063D01*
X348278D01*
X348081Y182260D01*
Y185409D01*
X348278Y185606D01*
X351428D01*
X351625Y185409D01*
D02*
G37*
G36*
X133698Y185343D02*
Y184390D01*
X132241D01*
Y183091D01*
X133698D01*
Y182193D01*
X133501Y181997D01*
X130351D01*
X130155Y182193D01*
Y185343D01*
X130351Y185540D01*
X133501D01*
X133698Y185343D01*
D02*
G37*
G36*
X139958Y185343D02*
Y182193D01*
X139761Y181996D01*
X136611D01*
X136414Y182193D01*
Y183146D01*
X137871D01*
Y184445D01*
X136414D01*
Y185343D01*
X136611Y185540D01*
X139761D01*
X139958Y185343D01*
D02*
G37*
G36*
X119687Y182776D02*
Y178809D01*
X119293Y178415D01*
X113384D01*
X112990Y178809D01*
Y182776D01*
X113384Y183169D01*
X114806D01*
X115200Y182776D01*
Y181947D01*
X115594Y181553D01*
X117083D01*
X117477Y181947D01*
Y182776D01*
X117871Y183169D01*
X119293D01*
X119687Y182776D01*
D02*
G37*
G36*
X351625Y179149D02*
Y176000D01*
X351428Y175803D01*
X348278D01*
X348081Y176000D01*
Y179149D01*
X348278Y179346D01*
X349231D01*
Y177889D01*
X350530D01*
Y179346D01*
X351428D01*
X351625Y179149D01*
D02*
G37*
G36*
X308259Y180467D02*
Y179515D01*
X306803D01*
Y178215D01*
X308259D01*
Y177318D01*
X308062Y177121D01*
X304913D01*
X304716Y177318D01*
Y180467D01*
X304913Y180664D01*
X308062D01*
X308259Y180467D01*
D02*
G37*
G36*
X314519Y180467D02*
Y177318D01*
X314322Y177121D01*
X311173D01*
X310976Y177318D01*
Y178271D01*
X312433D01*
Y179570D01*
X310976D01*
Y180467D01*
X311173Y180664D01*
X314322D01*
X314519Y180467D01*
D02*
G37*
G36*
X133696Y179471D02*
Y178518D01*
X132239D01*
Y177219D01*
X133696D01*
Y176321D01*
X133499Y176124D01*
X130349D01*
X130153Y176321D01*
Y179471D01*
X130349Y179667D01*
X133499D01*
X133696Y179471D01*
D02*
G37*
G36*
X139956Y179471D02*
Y176321D01*
X139759Y176124D01*
X136609D01*
X136413Y176321D01*
Y177274D01*
X137869D01*
Y178573D01*
X136413D01*
Y179471D01*
X136609Y179667D01*
X139759D01*
X139956Y179471D01*
D02*
G37*
G36*
X469620Y176649D02*
Y175696D01*
X468163D01*
Y174397D01*
X469620D01*
Y173499D01*
X469423Y173302D01*
X466273D01*
X466077Y173499D01*
Y176649D01*
X466273Y176846D01*
X469423D01*
X469620Y176649D01*
D02*
G37*
G36*
X475880Y176649D02*
Y173499D01*
X475683Y173302D01*
X472533D01*
X472336Y173499D01*
Y174452D01*
X473793D01*
Y175751D01*
X472336D01*
Y176649D01*
X472533Y176846D01*
X475683D01*
X475880Y176649D01*
D02*
G37*
G36*
X308259Y174402D02*
Y173449D01*
X306803D01*
Y172150D01*
X308259D01*
Y171253D01*
X308062Y171056D01*
X304913D01*
X304716Y171253D01*
Y174402D01*
X304913Y174599D01*
X308062D01*
X308259Y174402D01*
D02*
G37*
G36*
X314519Y174402D02*
Y171252D01*
X314322Y171055D01*
X311173D01*
X310976Y171252D01*
Y172205D01*
X312433D01*
Y173504D01*
X310976D01*
Y174402D01*
X311173Y174599D01*
X314322D01*
X314519Y174402D01*
D02*
G37*
G36*
X351793Y173249D02*
Y170100D01*
X351596Y169903D01*
X350643D01*
Y171360D01*
X349344D01*
Y169903D01*
X348447D01*
X348250Y170100D01*
Y173249D01*
X348447Y173446D01*
X351596D01*
X351793Y173249D01*
D02*
G37*
G36*
X351793Y166990D02*
Y163840D01*
X351596Y163643D01*
X348446D01*
X348250Y163840D01*
Y166990D01*
X348446Y167186D01*
X349399D01*
Y165730D01*
X350699D01*
Y167186D01*
X351596D01*
X351793Y166990D01*
D02*
G37*
G36*
X397972Y168816D02*
Y165666D01*
X397775Y165469D01*
X396822D01*
Y166926D01*
X395523D01*
Y165469D01*
X394625D01*
X394428Y165666D01*
Y168816D01*
X394625Y169012D01*
X397775D01*
X397972Y168816D01*
D02*
G37*
G36*
X391558D02*
Y165666D01*
X391361Y165469D01*
X390408D01*
Y166926D01*
X389109D01*
Y165469D01*
X388212D01*
X388015Y165666D01*
Y168816D01*
X388212Y169012D01*
X391361D01*
X391558Y168816D01*
D02*
G37*
G36*
X469620Y167885D02*
Y166932D01*
X468163D01*
Y165633D01*
X469620D01*
Y164735D01*
X469423Y164538D01*
X466273D01*
X466077Y164735D01*
Y167885D01*
X466273Y168081D01*
X469423D01*
X469620Y167885D01*
D02*
G37*
G36*
X475880Y167885D02*
Y164735D01*
X475683Y164538D01*
X472533D01*
X472336Y164735D01*
Y165688D01*
X473793D01*
Y166987D01*
X472336D01*
Y167885D01*
X472533Y168081D01*
X475683D01*
X475880Y167885D01*
D02*
G37*
G36*
X308259Y166572D02*
Y165619D01*
X306803D01*
Y164320D01*
X308259D01*
Y163422D01*
X308062Y163225D01*
X304913D01*
X304716Y163422D01*
Y166572D01*
X304913Y166769D01*
X308062D01*
X308259Y166572D01*
D02*
G37*
G36*
X314519Y166572D02*
Y163422D01*
X314322Y163225D01*
X311173D01*
X310976Y163422D01*
Y164375D01*
X312433D01*
Y165674D01*
X310976D01*
Y166572D01*
X311173Y166769D01*
X314322D01*
X314519Y166572D01*
D02*
G37*
G36*
X133536Y165787D02*
Y164834D01*
X132079D01*
Y163535D01*
X133536D01*
Y162637D01*
X133339Y162441D01*
X130189D01*
X129992Y162637D01*
Y165787D01*
X130189Y165984D01*
X133339D01*
X133536Y165787D01*
D02*
G37*
G36*
X139795Y165787D02*
Y162637D01*
X139599Y162440D01*
X136449D01*
X136252Y162637D01*
Y163590D01*
X137709D01*
Y164889D01*
X136252D01*
Y165787D01*
X136449Y165984D01*
X139599D01*
X139795Y165787D01*
D02*
G37*
G36*
X397972Y162556D02*
Y159406D01*
X397775Y159209D01*
X394625D01*
X394428Y159406D01*
Y162556D01*
X394625Y162752D01*
X395578D01*
Y161296D01*
X396877D01*
Y162752D01*
X397775D01*
X397972Y162556D01*
D02*
G37*
G36*
X391558D02*
Y159406D01*
X391361Y159209D01*
X388211D01*
X388015Y159406D01*
Y162556D01*
X388211Y162752D01*
X389164D01*
Y161296D01*
X390463D01*
Y162752D01*
X391361D01*
X391558Y162556D01*
D02*
G37*
G36*
X308259Y160416D02*
Y159463D01*
X306803D01*
Y158164D01*
X308259D01*
Y157266D01*
X308062Y157070D01*
X304913D01*
X304716Y157266D01*
Y160416D01*
X304913Y160613D01*
X308062D01*
X308259Y160416D01*
D02*
G37*
G36*
X314519Y160416D02*
Y157266D01*
X314322Y157069D01*
X311173D01*
X310976Y157266D01*
Y158219D01*
X312433D01*
Y159518D01*
X310976D01*
Y160416D01*
X311173Y160613D01*
X314322D01*
X314519Y160416D01*
D02*
G37*
G36*
X469620Y159159D02*
Y158206D01*
X468163D01*
Y156907D01*
X469620D01*
Y156009D01*
X469423Y155813D01*
X466273D01*
X466077Y156009D01*
Y159159D01*
X466273Y159356D01*
X469423D01*
X469620Y159159D01*
D02*
G37*
G36*
X475880Y159159D02*
Y156009D01*
X475683Y155812D01*
X472533D01*
X472336Y156009D01*
Y156962D01*
X473793D01*
Y158261D01*
X472336D01*
Y159159D01*
X472533Y159356D01*
X475683D01*
X475880Y159159D01*
D02*
G37*
G36*
X364046Y154755D02*
Y153803D01*
X362589D01*
Y152503D01*
X364046D01*
Y151606D01*
X363849Y151409D01*
X360699D01*
X360503Y151606D01*
Y154755D01*
X360699Y154952D01*
X363849D01*
X364046Y154755D01*
D02*
G37*
G36*
X370306Y154755D02*
Y151606D01*
X370109Y151409D01*
X366959D01*
X366762Y151606D01*
Y152559D01*
X368219D01*
Y153858D01*
X366762D01*
Y154755D01*
X366959Y154952D01*
X370109D01*
X370306Y154755D01*
D02*
G37*
G36*
X397323Y154365D02*
Y153412D01*
X395866D01*
Y152113D01*
X397323D01*
Y151216D01*
X397126Y151019D01*
X393976D01*
X393779Y151216D01*
Y154365D01*
X393976Y154562D01*
X397126D01*
X397323Y154365D01*
D02*
G37*
G36*
X403582Y154365D02*
Y151215D01*
X403386Y151019D01*
X400236D01*
X400039Y151215D01*
Y152168D01*
X401496D01*
Y153468D01*
X400039D01*
Y154365D01*
X400236Y154562D01*
X403386D01*
X403582Y154365D01*
D02*
G37*
G36*
X166241Y151813D02*
Y150861D01*
X164784D01*
Y149561D01*
X166241D01*
Y148664D01*
X166044Y148467D01*
X162895D01*
X162698Y148664D01*
Y151813D01*
X162895Y152010D01*
X166044D01*
X166241Y151813D01*
D02*
G37*
G36*
X172501Y151813D02*
Y148664D01*
X172304Y148467D01*
X169155D01*
X168958Y148664D01*
Y149617D01*
X170414D01*
Y150916D01*
X168958D01*
Y151813D01*
X169155Y152010D01*
X172304D01*
X172501Y151813D01*
D02*
G37*
G36*
X140394Y151050D02*
Y147900D01*
X140197Y147704D01*
X139244D01*
Y149160D01*
X137945D01*
Y147704D01*
X137047D01*
X136850Y147900D01*
Y151050D01*
X137047Y151247D01*
X140197D01*
X140394Y151050D01*
D02*
G37*
G36*
X392519Y147592D02*
X391731D01*
Y149954D01*
X392519D01*
Y147592D01*
D02*
G37*
G36*
X390944D02*
X390156D01*
Y149954D01*
X390944D01*
Y147592D01*
D02*
G37*
G36*
X389369D02*
X388581D01*
Y149954D01*
X389369D01*
Y147592D01*
D02*
G37*
G36*
X387794D02*
X387006D01*
Y149954D01*
X387794D01*
Y147592D01*
D02*
G37*
G36*
X386220D02*
X385432D01*
Y149954D01*
X386220D01*
Y147592D01*
D02*
G37*
G36*
X384645D02*
X383857D01*
Y149954D01*
X384645D01*
Y147592D01*
D02*
G37*
G36*
X383070D02*
X382282D01*
Y149954D01*
X383070D01*
Y147592D01*
D02*
G37*
G36*
X381495D02*
X380707D01*
Y149954D01*
X381495D01*
Y147592D01*
D02*
G37*
G36*
X469620Y150691D02*
Y149738D01*
X468163D01*
Y148439D01*
X469620D01*
Y147541D01*
X469423Y147344D01*
X466273D01*
X466077Y147541D01*
Y150691D01*
X466273Y150888D01*
X469423D01*
X469620Y150691D01*
D02*
G37*
G36*
X475880Y150690D02*
Y147541D01*
X475683Y147344D01*
X472533D01*
X472336Y147541D01*
Y148494D01*
X473793D01*
Y149793D01*
X472336D01*
Y150690D01*
X472533Y150887D01*
X475683D01*
X475880Y150690D01*
D02*
G37*
G36*
X395668Y146017D02*
X393306D01*
X393306Y146805D01*
X395668D01*
Y146017D01*
D02*
G37*
G36*
X379920Y146805D02*
Y146017D01*
X377558Y146017D01*
Y146805D01*
X379920Y146805D01*
D02*
G37*
G36*
X297595Y148559D02*
Y147606D01*
X296138D01*
Y146307D01*
X297595D01*
Y145409D01*
X297398Y145212D01*
X294248D01*
X294052Y145409D01*
Y148559D01*
X294248Y148756D01*
X297398D01*
X297595Y148559D01*
D02*
G37*
G36*
X303855Y148559D02*
Y145409D01*
X303658Y145212D01*
X300508D01*
X300311Y145409D01*
Y146362D01*
X301768D01*
Y147661D01*
X300311D01*
Y148559D01*
X300508Y148756D01*
X303658D01*
X303855Y148559D01*
D02*
G37*
G36*
X395668Y144442D02*
X393306D01*
Y145230D01*
X395668D01*
Y144442D01*
D02*
G37*
G36*
X379920Y145230D02*
Y144442D01*
X377558Y144442D01*
Y145230D01*
X379920Y145230D01*
D02*
G37*
G36*
X364194Y147777D02*
Y146824D01*
X362738D01*
Y145525D01*
X364194D01*
Y144627D01*
X363998Y144431D01*
X360848D01*
X360651Y144627D01*
Y147777D01*
X360848Y147974D01*
X363998D01*
X364194Y147777D01*
D02*
G37*
G36*
X370454Y147777D02*
Y144627D01*
X370257Y144430D01*
X367108D01*
X366911Y144627D01*
Y145580D01*
X368368D01*
Y146879D01*
X366911D01*
Y147777D01*
X367108Y147974D01*
X370257D01*
X370454Y147777D01*
D02*
G37*
G36*
X140394Y144790D02*
Y141640D01*
X140197Y141444D01*
X137047D01*
X136850Y141640D01*
Y144790D01*
X137047Y144987D01*
X138000D01*
Y143530D01*
X139299D01*
Y144987D01*
X140197D01*
X140394Y144790D01*
D02*
G37*
G36*
X395668Y142867D02*
X393306D01*
Y143655D01*
X395668D01*
Y142867D01*
D02*
G37*
G36*
X379920D02*
X377558Y142867D01*
Y143655D01*
X379920D01*
Y142867D01*
D02*
G37*
G36*
X395668Y141292D02*
X393306D01*
Y142080D01*
X395668D01*
Y141292D01*
D02*
G37*
G36*
X379920D02*
X377558D01*
X377558Y142080D01*
X379920D01*
Y141292D01*
D02*
G37*
G36*
X395668Y139718D02*
X393306D01*
X393306Y140506D01*
X395668D01*
Y139718D01*
D02*
G37*
G36*
X379920D02*
X377558D01*
X377558Y140506D01*
X379920Y140506D01*
Y139718D01*
D02*
G37*
G36*
X297597Y142135D02*
Y141182D01*
X296141D01*
Y139883D01*
X297597D01*
Y138986D01*
X297400Y138789D01*
X294251D01*
X294054Y138986D01*
Y142135D01*
X294251Y142332D01*
X297400D01*
X297597Y142135D01*
D02*
G37*
G36*
X303857Y142135D02*
Y138986D01*
X303660Y138789D01*
X300511D01*
X300314Y138986D01*
Y139938D01*
X301771D01*
Y141238D01*
X300314D01*
Y142135D01*
X300511Y142332D01*
X303660D01*
X303857Y142135D01*
D02*
G37*
G36*
X469620Y141903D02*
Y140951D01*
X468163D01*
Y139651D01*
X469620D01*
Y138754D01*
X469423Y138557D01*
X466273D01*
X466077Y138754D01*
Y141903D01*
X466273Y142100D01*
X469423D01*
X469620Y141903D01*
D02*
G37*
G36*
X475880Y141903D02*
Y138754D01*
X475683Y138557D01*
X472533D01*
X472336Y138754D01*
Y139707D01*
X473793D01*
Y141006D01*
X472336D01*
Y141903D01*
X472533Y142100D01*
X475683D01*
X475880Y141903D01*
D02*
G37*
G36*
X395668Y138143D02*
X393306D01*
X393306Y138931D01*
X395668D01*
Y138143D01*
D02*
G37*
G36*
X379920D02*
X377558D01*
Y138931D01*
X379920D01*
Y138143D01*
D02*
G37*
G36*
X364204Y140912D02*
Y139959D01*
X362747D01*
Y138660D01*
X364204D01*
Y137762D01*
X364007Y137565D01*
X360858D01*
X360661Y137762D01*
Y140912D01*
X360858Y141109D01*
X364007D01*
X364204Y140912D01*
D02*
G37*
G36*
X370464Y140911D02*
Y137762D01*
X370267Y137565D01*
X367118D01*
X366921Y137762D01*
Y138715D01*
X368377D01*
Y140014D01*
X366921D01*
Y140911D01*
X367118Y141108D01*
X370267D01*
X370464Y140911D01*
D02*
G37*
G36*
X379920Y136568D02*
X377558D01*
Y137356D01*
X379920D01*
Y136568D01*
D02*
G37*
G36*
X395668Y136568D02*
X393306Y136568D01*
X393306Y137356D01*
X395668D01*
Y136568D01*
D02*
G37*
G36*
X391022Y136490D02*
X382204D01*
Y145308D01*
X391022D01*
Y136490D01*
D02*
G37*
G36*
X395668Y134993D02*
X393306D01*
Y135781D01*
X395668D01*
Y134993D01*
D02*
G37*
G36*
X379920Y134993D02*
X377558D01*
Y135781D01*
X379920D01*
Y134993D01*
D02*
G37*
G36*
X392519Y131844D02*
X391731D01*
Y134206D01*
X392519D01*
Y131844D01*
D02*
G37*
G36*
X390944D02*
X390156D01*
Y134206D01*
X390944D01*
Y131844D01*
D02*
G37*
G36*
X389369D02*
X388581D01*
Y134206D01*
X389369D01*
Y131844D01*
D02*
G37*
G36*
X387794D02*
X387006D01*
Y134206D01*
X387794D01*
Y131844D01*
D02*
G37*
G36*
X386220D02*
X385432D01*
Y134206D01*
X386220D01*
Y131844D01*
D02*
G37*
G36*
X384645D02*
X383857D01*
Y134206D01*
X384645D01*
Y131844D01*
D02*
G37*
G36*
X383070D02*
X382282D01*
Y134206D01*
X383070D01*
Y131844D01*
D02*
G37*
G36*
X381495D02*
X380707D01*
Y134206D01*
X381495D01*
Y131844D01*
D02*
G37*
G36*
X140039Y134399D02*
Y131249D01*
X139842Y131052D01*
X138890D01*
Y132509D01*
X137590D01*
Y131052D01*
X136693D01*
X136496Y131249D01*
Y134399D01*
X136693Y134596D01*
X139842D01*
X140039Y134399D01*
D02*
G37*
G36*
X134169D02*
Y131249D01*
X133972Y131052D01*
X133019D01*
Y132509D01*
X131720D01*
Y131052D01*
X130822D01*
X130625Y131249D01*
Y134399D01*
X130822Y134596D01*
X133972D01*
X134169Y134399D01*
D02*
G37*
G36*
X121653D02*
Y131249D01*
X121456Y131052D01*
X120503D01*
Y132509D01*
X119204D01*
Y131052D01*
X118307D01*
X118110Y131249D01*
Y134399D01*
X118307Y134596D01*
X121456D01*
X121653Y134399D01*
D02*
G37*
G36*
X108949D02*
Y131249D01*
X108752Y131052D01*
X107799D01*
Y132509D01*
X106500D01*
Y131052D01*
X105602D01*
X105405Y131249D01*
Y134399D01*
X105602Y134596D01*
X108752D01*
X108949Y134399D01*
D02*
G37*
G36*
X364198Y133598D02*
Y132645D01*
X362742D01*
Y131345D01*
X364198D01*
Y130448D01*
X364001Y130251D01*
X360852D01*
X360655Y130448D01*
Y133598D01*
X360852Y133794D01*
X364001D01*
X364198Y133598D01*
D02*
G37*
G36*
X370458Y133597D02*
Y130448D01*
X370262Y130251D01*
X367112D01*
X366915Y130448D01*
Y131401D01*
X368372D01*
Y132700D01*
X366915D01*
Y133597D01*
X367112Y133794D01*
X370262D01*
X370458Y133597D01*
D02*
G37*
G36*
X469620Y133185D02*
Y132232D01*
X468163D01*
Y130932D01*
X469620D01*
Y130035D01*
X469423Y129838D01*
X466273D01*
X466077Y130035D01*
Y133185D01*
X466273Y133381D01*
X469423D01*
X469620Y133185D01*
D02*
G37*
G36*
X475880Y133184D02*
Y130035D01*
X475683Y129838D01*
X472533D01*
X472336Y130035D01*
Y130988D01*
X473793D01*
Y132287D01*
X472336D01*
Y133184D01*
X472533Y133381D01*
X475683D01*
X475880Y133184D01*
D02*
G37*
G36*
X397483Y130699D02*
Y129746D01*
X396026D01*
Y128447D01*
X397483D01*
Y127550D01*
X397286Y127353D01*
X394137D01*
X393940Y127550D01*
Y130699D01*
X394137Y130896D01*
X397286D01*
X397483Y130699D01*
D02*
G37*
G36*
X403743Y130699D02*
Y127550D01*
X403546Y127353D01*
X400396D01*
X400200Y127550D01*
Y128503D01*
X401656D01*
Y129802D01*
X400200D01*
Y130699D01*
X400396Y130896D01*
X403546D01*
X403743Y130699D01*
D02*
G37*
G36*
X140039Y128139D02*
Y124989D01*
X139842Y124792D01*
X136693D01*
X136496Y124989D01*
Y128139D01*
X136693Y128336D01*
X137646D01*
Y126879D01*
X138945D01*
Y128336D01*
X139842D01*
X140039Y128139D01*
D02*
G37*
G36*
X134169D02*
Y124989D01*
X133972Y124792D01*
X130822D01*
X130625Y124989D01*
Y128139D01*
X130822Y128336D01*
X131775D01*
Y126879D01*
X133074D01*
Y128336D01*
X133972D01*
X134169Y128139D01*
D02*
G37*
G36*
X121653D02*
Y124989D01*
X121456Y124792D01*
X118307D01*
X118110Y124989D01*
Y128139D01*
X118307Y128336D01*
X119260D01*
Y126879D01*
X120559D01*
Y128336D01*
X121456D01*
X121653Y128139D01*
D02*
G37*
G36*
X108949D02*
Y124989D01*
X108752Y124792D01*
X105602D01*
X105405Y124989D01*
Y128139D01*
X105602Y128336D01*
X106555D01*
Y126879D01*
X107854D01*
Y128336D01*
X108752D01*
X108949Y128139D01*
D02*
G37*
G36*
X253382Y127685D02*
Y126732D01*
X251926D01*
Y125433D01*
X253382D01*
Y124535D01*
X253186Y124338D01*
X250036D01*
X249839Y124535D01*
Y127685D01*
X250036Y127882D01*
X253186D01*
X253382Y127685D01*
D02*
G37*
G36*
X259643Y127685D02*
Y124535D01*
X259446Y124338D01*
X256296D01*
X256099Y124535D01*
Y125488D01*
X257556D01*
Y126787D01*
X256099D01*
Y127685D01*
X256296Y127882D01*
X259446D01*
X259643Y127685D01*
D02*
G37*
G36*
X372756Y126297D02*
Y125344D01*
X371300D01*
Y124045D01*
X372756D01*
Y123147D01*
X372559Y122950D01*
X369410D01*
X369213Y123147D01*
Y126297D01*
X369410Y126494D01*
X372559D01*
X372756Y126297D01*
D02*
G37*
G36*
X379016Y126296D02*
Y123147D01*
X378819Y122950D01*
X375670D01*
X375473Y123147D01*
Y124100D01*
X376930D01*
Y125399D01*
X375473D01*
Y126296D01*
X375670Y126493D01*
X378819D01*
X379016Y126296D01*
D02*
G37*
G36*
X253371Y121694D02*
Y120741D01*
X251914D01*
Y119442D01*
X253371D01*
Y118545D01*
X253174Y118348D01*
X250024D01*
X249827Y118545D01*
Y121694D01*
X250024Y121891D01*
X253174D01*
X253371Y121694D01*
D02*
G37*
G36*
X259630Y121694D02*
Y118544D01*
X259434Y118348D01*
X256284D01*
X256087Y118544D01*
Y119497D01*
X257544D01*
Y120797D01*
X256087D01*
Y121694D01*
X256284Y121891D01*
X259434D01*
X259630Y121694D01*
D02*
G37*
G36*
X502003Y117690D02*
Y114541D01*
X501806Y114344D01*
X500853D01*
Y115800D01*
X499554D01*
Y114344D01*
X498657D01*
X498460Y114541D01*
Y117690D01*
X498657Y117887D01*
X501806D01*
X502003Y117690D01*
D02*
G37*
G36*
X487716Y117509D02*
Y114359D01*
X487519Y114163D01*
X486566D01*
Y115619D01*
X485267D01*
Y114163D01*
X484370D01*
X484173Y114359D01*
Y117509D01*
X484370Y117706D01*
X487519D01*
X487716Y117509D01*
D02*
G37*
G36*
X494007Y117499D02*
Y114349D01*
X493810Y114152D01*
X492857D01*
Y115609D01*
X491558D01*
Y114152D01*
X490660D01*
X490463Y114349D01*
Y117499D01*
X490660Y117695D01*
X493810D01*
X494007Y117499D01*
D02*
G37*
G36*
X409253Y114999D02*
Y111850D01*
X409056Y111653D01*
X408103D01*
Y113110D01*
X406804D01*
Y111653D01*
X405906D01*
X405709Y111850D01*
Y114999D01*
X405906Y115196D01*
X409056D01*
X409253Y114999D01*
D02*
G37*
G36*
X502003Y111430D02*
Y108281D01*
X501806Y108084D01*
X498657D01*
X498460Y108281D01*
Y111430D01*
X498657Y111627D01*
X499609D01*
Y110170D01*
X500909D01*
Y111627D01*
X501806D01*
X502003Y111430D01*
D02*
G37*
G36*
X487716Y111249D02*
Y108099D01*
X487519Y107903D01*
X484369D01*
X484172Y108099D01*
Y111249D01*
X484369Y111446D01*
X485322D01*
Y109989D01*
X486621D01*
Y111446D01*
X487519D01*
X487716Y111249D01*
D02*
G37*
G36*
X494007Y111239D02*
Y108089D01*
X493810Y107892D01*
X490660D01*
X490463Y108089D01*
Y111239D01*
X490660Y111436D01*
X491613D01*
Y109979D01*
X492912D01*
Y111436D01*
X493810D01*
X494007Y111239D01*
D02*
G37*
G36*
X55311Y112998D02*
Y112045D01*
X53855D01*
Y110746D01*
X55311D01*
Y109848D01*
X55114Y109652D01*
X51965D01*
X51768Y109848D01*
Y112998D01*
X51965Y113195D01*
X55114D01*
X55311Y112998D01*
D02*
G37*
G36*
X61571Y112998D02*
Y109848D01*
X61374Y109651D01*
X58225D01*
X58028Y109848D01*
Y110801D01*
X59485D01*
Y112100D01*
X58028D01*
Y112998D01*
X58225Y113195D01*
X61374D01*
X61571Y112998D01*
D02*
G37*
G36*
X409253Y108739D02*
Y105590D01*
X409056Y105393D01*
X405906D01*
X405709Y105590D01*
Y108739D01*
X405906Y108936D01*
X406859D01*
Y107480D01*
X408158D01*
Y108936D01*
X409056D01*
X409253Y108739D01*
D02*
G37*
G36*
X477836Y105936D02*
Y102787D01*
X477639Y102590D01*
X476686D01*
Y104047D01*
X475387D01*
Y102590D01*
X474490D01*
X474293Y102787D01*
Y105936D01*
X474490Y106133D01*
X477639D01*
X477836Y105936D01*
D02*
G37*
G36*
X469777Y105783D02*
Y102634D01*
X469580Y102437D01*
X468628D01*
Y103894D01*
X467328D01*
Y102437D01*
X466431D01*
X466234Y102634D01*
Y105783D01*
X466431Y105980D01*
X469580D01*
X469777Y105783D01*
D02*
G37*
G36*
X477836Y99676D02*
Y96527D01*
X477639Y96330D01*
X474490D01*
X474293Y96527D01*
Y99676D01*
X474490Y99873D01*
X475443D01*
Y98417D01*
X476742D01*
Y99873D01*
X477639D01*
X477836Y99676D01*
D02*
G37*
G36*
X469777Y99524D02*
Y96374D01*
X469580Y96177D01*
X466431D01*
X466234Y96374D01*
Y99524D01*
X466431Y99720D01*
X467383D01*
Y98264D01*
X468683D01*
Y99720D01*
X469580D01*
X469777Y99524D01*
D02*
G37*
G36*
X270514Y92811D02*
Y89661D01*
X270317Y89464D01*
X269364D01*
Y90921D01*
X268065D01*
Y89464D01*
X267168D01*
X266971Y89661D01*
Y92811D01*
X267168Y93008D01*
X270317D01*
X270514Y92811D01*
D02*
G37*
G36*
X293061Y92614D02*
Y89464D01*
X292864Y89267D01*
X291911D01*
Y90724D01*
X290612D01*
Y89267D01*
X289714D01*
X289517Y89464D01*
Y92614D01*
X289714Y92811D01*
X292864D01*
X293061Y92614D01*
D02*
G37*
G36*
X317032Y90439D02*
Y87290D01*
X316835Y87093D01*
X315882D01*
Y88549D01*
X314583D01*
Y87093D01*
X313686D01*
X313489Y87290D01*
Y90439D01*
X313686Y90636D01*
X316835D01*
X317032Y90439D01*
D02*
G37*
G36*
X339424Y90242D02*
Y87093D01*
X339228Y86896D01*
X338275D01*
Y88353D01*
X336976D01*
Y86896D01*
X336078D01*
X335881Y87093D01*
Y90242D01*
X336078Y90439D01*
X339228D01*
X339424Y90242D01*
D02*
G37*
G36*
X270514Y86551D02*
Y83401D01*
X270317Y83205D01*
X267167D01*
X266971Y83401D01*
Y86551D01*
X267167Y86748D01*
X268120D01*
Y85291D01*
X269420D01*
Y86748D01*
X270317D01*
X270514Y86551D01*
D02*
G37*
G36*
X293060Y86354D02*
Y83204D01*
X292864Y83008D01*
X289714D01*
X289517Y83204D01*
Y86354D01*
X289714Y86551D01*
X290667D01*
Y85094D01*
X291966D01*
Y86551D01*
X292864D01*
X293060Y86354D01*
D02*
G37*
G36*
X220610Y86886D02*
Y83736D01*
X220413Y83539D01*
X219460D01*
Y84996D01*
X218161D01*
Y83539D01*
X217263D01*
X217066Y83736D01*
Y86886D01*
X217263Y87083D01*
X220413D01*
X220610Y86886D01*
D02*
G37*
G36*
X244356Y86360D02*
Y83211D01*
X244159Y83014D01*
X243206D01*
Y84470D01*
X241907D01*
Y83014D01*
X241009D01*
X240812Y83211D01*
Y86360D01*
X241009Y86557D01*
X244159D01*
X244356Y86360D01*
D02*
G37*
G36*
X317032Y84179D02*
Y81029D01*
X316835Y80833D01*
X313685D01*
X313489Y81029D01*
Y84179D01*
X313685Y84376D01*
X314638D01*
Y82919D01*
X315938D01*
Y84376D01*
X316835D01*
X317032Y84179D01*
D02*
G37*
G36*
X339424Y83982D02*
Y80833D01*
X339227Y80636D01*
X336078D01*
X335881Y80833D01*
Y83982D01*
X336078Y84179D01*
X337031D01*
Y82723D01*
X338330D01*
Y84179D01*
X339227D01*
X339424Y83982D01*
D02*
G37*
G36*
X220609Y80626D02*
Y77476D01*
X220413Y77280D01*
X217263D01*
X217066Y77476D01*
Y80626D01*
X217263Y80823D01*
X218216D01*
Y79366D01*
X219515D01*
Y80823D01*
X220413D01*
X220609Y80626D01*
D02*
G37*
G36*
X244356Y80100D02*
Y76951D01*
X244159Y76754D01*
X241009D01*
X240812Y76951D01*
Y80100D01*
X241009Y80297D01*
X241962D01*
Y78841D01*
X243261D01*
Y80297D01*
X244159D01*
X244356Y80100D01*
D02*
G37*
G36*
X494614Y72314D02*
Y69165D01*
X494417Y68968D01*
X493464D01*
Y70424D01*
X492165D01*
Y68968D01*
X491267D01*
X491071Y69165D01*
Y72314D01*
X491267Y72511D01*
X494417D01*
X494614Y72314D01*
D02*
G37*
G36*
X501886Y72312D02*
Y69162D01*
X501690Y68966D01*
X500737D01*
Y70422D01*
X499438D01*
Y68966D01*
X498540D01*
X498343Y69162D01*
Y72312D01*
X498540Y72509D01*
X501690D01*
X501886Y72312D01*
D02*
G37*
G36*
X486927Y72305D02*
Y69155D01*
X486730Y68958D01*
X485777D01*
Y70415D01*
X484478D01*
Y68958D01*
X483580D01*
X483383Y69155D01*
Y72305D01*
X483580Y72501D01*
X486730D01*
X486927Y72305D01*
D02*
G37*
G36*
X96799Y70212D02*
Y67063D01*
X96603Y66866D01*
X95650D01*
Y68322D01*
X94351D01*
Y66866D01*
X93453D01*
X93256Y67063D01*
Y70212D01*
X93453Y70409D01*
X96603D01*
X96799Y70212D01*
D02*
G37*
G36*
X33408Y69285D02*
Y68332D01*
X31951D01*
Y67033D01*
X33408D01*
Y66136D01*
X33211Y65939D01*
X30061D01*
X29865Y66136D01*
Y69285D01*
X30061Y69482D01*
X33211D01*
X33408Y69285D01*
D02*
G37*
G36*
X39668Y69285D02*
Y66135D01*
X39471Y65939D01*
X36321D01*
X36125Y66135D01*
Y67088D01*
X37581D01*
Y68388D01*
X36125D01*
Y69285D01*
X36321Y69482D01*
X39471D01*
X39668Y69285D01*
D02*
G37*
G36*
X494614Y66054D02*
Y62905D01*
X494417Y62708D01*
X491267D01*
X491071Y62905D01*
Y66054D01*
X491267Y66251D01*
X492220D01*
Y64794D01*
X493519D01*
Y66251D01*
X494417D01*
X494614Y66054D01*
D02*
G37*
G36*
X501886Y66052D02*
Y62902D01*
X501689Y62706D01*
X498540D01*
X498343Y62902D01*
Y66052D01*
X498540Y66249D01*
X499493D01*
Y64792D01*
X500792D01*
Y66249D01*
X501689D01*
X501886Y66052D01*
D02*
G37*
G36*
X486926Y66045D02*
Y62895D01*
X486729Y62698D01*
X483580D01*
X483383Y62895D01*
Y66045D01*
X483580Y66242D01*
X484533D01*
Y64785D01*
X485832D01*
Y66242D01*
X486729D01*
X486926Y66045D01*
D02*
G37*
G36*
X96799Y63952D02*
Y60803D01*
X96602Y60606D01*
X93453D01*
X93256Y60803D01*
Y63952D01*
X93453Y64149D01*
X94406D01*
Y62692D01*
X95705D01*
Y64149D01*
X96602D01*
X96799Y63952D01*
D02*
G37*
G36*
X238270Y55790D02*
Y52640D01*
X238073Y52443D01*
X237120D01*
Y53900D01*
X235821D01*
Y52443D01*
X234924D01*
X234727Y52640D01*
Y55790D01*
X234924Y55986D01*
X238073D01*
X238270Y55790D01*
D02*
G37*
G36*
X227141D02*
Y52640D01*
X226944Y52443D01*
X225992D01*
Y53900D01*
X224692D01*
Y52443D01*
X223795D01*
X223598Y52640D01*
Y55790D01*
X223795Y55986D01*
X226944D01*
X227141Y55790D01*
D02*
G37*
G36*
X337914Y54852D02*
Y51702D01*
X337717Y51506D01*
X336765D01*
Y52962D01*
X335465D01*
Y51506D01*
X334568D01*
X334371Y51702D01*
Y54852D01*
X334568Y55049D01*
X337717D01*
X337914Y54852D01*
D02*
G37*
G36*
X317690D02*
Y51702D01*
X317493Y51506D01*
X316540D01*
Y52962D01*
X315241D01*
Y51506D01*
X314344D01*
X314147Y51702D01*
Y54852D01*
X314344Y55049D01*
X317493D01*
X317690Y54852D01*
D02*
G37*
G36*
X290426D02*
Y51702D01*
X290229Y51506D01*
X289277D01*
Y52962D01*
X287977D01*
Y51506D01*
X287080D01*
X286883Y51702D01*
Y54852D01*
X287080Y55049D01*
X290229D01*
X290426Y54852D01*
D02*
G37*
G36*
X269960D02*
Y51702D01*
X269763Y51506D01*
X268810D01*
Y52962D01*
X267511D01*
Y51506D01*
X266613D01*
X266417Y51702D01*
Y54852D01*
X266613Y55049D01*
X269763D01*
X269960Y54852D01*
D02*
G37*
G36*
X124098Y53489D02*
Y50339D01*
X123901Y50142D01*
X122948D01*
Y51599D01*
X121649D01*
Y50142D01*
X120751D01*
X120554Y50339D01*
Y53489D01*
X120751Y53685D01*
X123901D01*
X124098Y53489D01*
D02*
G37*
G36*
X238270Y49530D02*
Y46380D01*
X238073Y46183D01*
X234923D01*
X234727Y46380D01*
Y49530D01*
X234923Y49727D01*
X235876D01*
Y48270D01*
X237175D01*
Y49727D01*
X238073D01*
X238270Y49530D01*
D02*
G37*
G36*
X227141D02*
Y46380D01*
X226944Y46183D01*
X223795D01*
X223598Y46380D01*
Y49530D01*
X223795Y49727D01*
X224747D01*
Y48270D01*
X226047D01*
Y49727D01*
X226944D01*
X227141Y49530D01*
D02*
G37*
G36*
X337914Y48592D02*
Y45442D01*
X337717Y45246D01*
X334568D01*
X334371Y45442D01*
Y48592D01*
X334568Y48789D01*
X335521D01*
Y47332D01*
X336820D01*
Y48789D01*
X337717D01*
X337914Y48592D01*
D02*
G37*
G36*
X317690D02*
Y45442D01*
X317493Y45246D01*
X314343D01*
X314146Y45442D01*
Y48592D01*
X314343Y48789D01*
X315296D01*
Y47332D01*
X316595D01*
Y48789D01*
X317493D01*
X317690Y48592D01*
D02*
G37*
G36*
X290426D02*
Y45442D01*
X290229Y45246D01*
X287080D01*
X286883Y45442D01*
Y48592D01*
X287080Y48789D01*
X288033D01*
Y47332D01*
X289332D01*
Y48789D01*
X290229D01*
X290426Y48592D01*
D02*
G37*
G36*
X269960D02*
Y45442D01*
X269763Y45246D01*
X266613D01*
X266416Y45442D01*
Y48592D01*
X266613Y48789D01*
X267566D01*
Y47332D01*
X268865D01*
Y48789D01*
X269763D01*
X269960Y48592D01*
D02*
G37*
G36*
X149521Y50177D02*
Y47028D01*
X149324Y46831D01*
X148372D01*
Y48287D01*
X147072D01*
Y46831D01*
X146175D01*
X145978Y47028D01*
Y50177D01*
X146175Y50374D01*
X149324D01*
X149521Y50177D01*
D02*
G37*
G36*
X500066Y49516D02*
Y47535D01*
X498910Y46456D01*
X497821D01*
X496664Y47535D01*
Y49516D01*
X496916Y49768D01*
X499814D01*
X500066Y49516D01*
D02*
G37*
G36*
X488447Y49360D02*
Y47379D01*
X487290Y46299D01*
X486202D01*
X485045Y47379D01*
Y49360D01*
X485297Y49612D01*
X488195D01*
X488447Y49360D01*
D02*
G37*
G36*
X124098Y47229D02*
Y44079D01*
X123901Y43882D01*
X120751D01*
X120554Y44079D01*
Y47229D01*
X120751Y47425D01*
X121704D01*
Y45969D01*
X123003D01*
Y47425D01*
X123901D01*
X124098Y47229D01*
D02*
G37*
G36*
X149521Y43917D02*
Y40768D01*
X149324Y40571D01*
X146175D01*
X145978Y40768D01*
Y43917D01*
X146175Y44114D01*
X147127D01*
Y42657D01*
X148427D01*
Y44114D01*
X149324D01*
X149521Y43917D01*
D02*
G37*
G36*
X500066Y42896D02*
Y40914D01*
X499814Y40662D01*
X496916D01*
X496664Y40914D01*
Y42896D01*
X497821Y43975D01*
X498910D01*
X500066Y42896D01*
D02*
G37*
G36*
X488447Y42739D02*
Y40758D01*
X488195Y40506D01*
X485297D01*
X485045Y40758D01*
Y42739D01*
X486202Y43819D01*
X487290D01*
X488447Y42739D01*
D02*
G37*
G36*
X128161Y41719D02*
Y38569D01*
X127964Y38372D01*
X127012D01*
Y39829D01*
X125712D01*
Y38372D01*
X124815D01*
X124618Y38569D01*
Y41719D01*
X124815Y41916D01*
X127964D01*
X128161Y41719D01*
D02*
G37*
G36*
X112849Y40205D02*
Y37055D01*
X112652Y36858D01*
X111699D01*
Y38315D01*
X110400D01*
Y36858D01*
X109503D01*
X109306Y37055D01*
Y40205D01*
X109503Y40402D01*
X112652D01*
X112849Y40205D01*
D02*
G37*
G36*
X106775Y40094D02*
Y36944D01*
X106578Y36748D01*
X105625D01*
Y38204D01*
X104326D01*
Y36748D01*
X103429D01*
X103232Y36944D01*
Y40094D01*
X103429Y40291D01*
X106578D01*
X106775Y40094D01*
D02*
G37*
G36*
X434808Y38181D02*
Y35032D01*
X434611Y34835D01*
X433658D01*
Y36291D01*
X432359D01*
Y34835D01*
X431462D01*
X431265Y35032D01*
Y38181D01*
X431462Y38378D01*
X434611D01*
X434808Y38181D01*
D02*
G37*
G36*
X361621Y38158D02*
Y35008D01*
X361424Y34811D01*
X360471D01*
Y36268D01*
X359172D01*
Y34811D01*
X358275D01*
X358078Y35008D01*
Y38158D01*
X358275Y38355D01*
X361424D01*
X361621Y38158D01*
D02*
G37*
G36*
X128161Y35459D02*
Y32309D01*
X127964Y32113D01*
X124815D01*
X124618Y32309D01*
Y35459D01*
X124815Y35656D01*
X125768D01*
Y34199D01*
X127067D01*
Y35656D01*
X127964D01*
X128161Y35459D01*
D02*
G37*
G36*
X338605Y33792D02*
X336243D01*
Y38674D01*
X338605D01*
Y33792D01*
D02*
G37*
G36*
X335456D02*
X333094D01*
Y38674D01*
X335456D01*
Y33792D01*
D02*
G37*
G36*
X332306D02*
X331125D01*
Y38674D01*
X332306D01*
Y33792D01*
D02*
G37*
G36*
X330338D02*
X329157D01*
Y38674D01*
X330338D01*
Y33792D01*
D02*
G37*
G36*
X328369D02*
X327188D01*
Y38674D01*
X328369D01*
Y33792D01*
D02*
G37*
G36*
X326401D02*
X325220D01*
Y38674D01*
X326401D01*
Y33792D01*
D02*
G37*
G36*
X324432D02*
X323251D01*
Y38674D01*
X324432D01*
Y33792D01*
D02*
G37*
G36*
X322464D02*
X321283D01*
Y38674D01*
X322464D01*
Y33792D01*
D02*
G37*
G36*
X320495D02*
X319314D01*
Y38674D01*
X320495D01*
Y33792D01*
D02*
G37*
G36*
X318527D02*
X317346D01*
Y38674D01*
X318527D01*
Y33792D01*
D02*
G37*
G36*
X316558D02*
X314196D01*
Y38674D01*
X316558D01*
Y33792D01*
D02*
G37*
G36*
X313409D02*
X311046D01*
Y38674D01*
X313409D01*
Y33792D01*
D02*
G37*
G36*
X242601Y33633D02*
X240238D01*
Y38515D01*
X242601D01*
Y33633D01*
D02*
G37*
G36*
X239451D02*
X237089D01*
Y38515D01*
X239451D01*
Y33633D01*
D02*
G37*
G36*
X236301D02*
X235120D01*
Y38515D01*
X236301D01*
Y33633D01*
D02*
G37*
G36*
X234333D02*
X233152D01*
Y38515D01*
X234333D01*
Y33633D01*
D02*
G37*
G36*
X232364D02*
X231183D01*
Y38515D01*
X232364D01*
Y33633D01*
D02*
G37*
G36*
X230396D02*
X229215D01*
Y38515D01*
X230396D01*
Y33633D01*
D02*
G37*
G36*
X228428D02*
X227246D01*
Y38515D01*
X228428D01*
Y33633D01*
D02*
G37*
G36*
X226459D02*
X225278D01*
Y38515D01*
X226459D01*
Y33633D01*
D02*
G37*
G36*
X224490D02*
X223309D01*
Y38515D01*
X224490D01*
Y33633D01*
D02*
G37*
G36*
X222522D02*
X221341D01*
Y38515D01*
X222522D01*
Y33633D01*
D02*
G37*
G36*
X220553D02*
X218191D01*
Y38515D01*
X220553D01*
Y33633D01*
D02*
G37*
G36*
X217404D02*
X215041D01*
Y38515D01*
X217404D01*
Y33633D01*
D02*
G37*
G36*
X291944Y33402D02*
X289582D01*
Y38284D01*
X291944D01*
Y33402D01*
D02*
G37*
G36*
X288795D02*
X286433D01*
Y38284D01*
X288795D01*
Y33402D01*
D02*
G37*
G36*
X285645D02*
X284464D01*
Y38284D01*
X285645D01*
Y33402D01*
D02*
G37*
G36*
X283677D02*
X282495D01*
Y38284D01*
X283677D01*
Y33402D01*
D02*
G37*
G36*
X281708D02*
X280527D01*
Y38284D01*
X281708D01*
Y33402D01*
D02*
G37*
G36*
X279740D02*
X278559D01*
Y38284D01*
X279740D01*
Y33402D01*
D02*
G37*
G36*
X277771D02*
X276590D01*
Y38284D01*
X277771D01*
Y33402D01*
D02*
G37*
G36*
X275803D02*
X274622D01*
Y38284D01*
X275803D01*
Y33402D01*
D02*
G37*
G36*
X273834D02*
X272653D01*
Y38284D01*
X273834D01*
Y33402D01*
D02*
G37*
G36*
X271866D02*
X270685D01*
Y38284D01*
X271866D01*
Y33402D01*
D02*
G37*
G36*
X269897D02*
X267535D01*
Y38284D01*
X269897D01*
Y33402D01*
D02*
G37*
G36*
X266747D02*
X264385D01*
Y38284D01*
X266747D01*
Y33402D01*
D02*
G37*
G36*
X112849Y33945D02*
Y30795D01*
X112652Y30598D01*
X109502D01*
X109306Y30795D01*
Y33945D01*
X109502Y34142D01*
X110455D01*
Y32685D01*
X111755D01*
Y34142D01*
X112652D01*
X112849Y33945D01*
D02*
G37*
G36*
X106775Y33834D02*
Y30684D01*
X106578Y30488D01*
X103429D01*
X103232Y30684D01*
Y33834D01*
X103429Y34031D01*
X104382D01*
Y32574D01*
X105681D01*
Y34031D01*
X106578D01*
X106775Y33834D01*
D02*
G37*
G36*
X434808Y31921D02*
Y28772D01*
X434611Y28575D01*
X431461D01*
X431265Y28772D01*
Y31921D01*
X431461Y32118D01*
X432414D01*
Y30661D01*
X433713D01*
Y32118D01*
X434611D01*
X434808Y31921D01*
D02*
G37*
G36*
X361621Y31898D02*
Y28748D01*
X361424Y28552D01*
X358275D01*
X358078Y28748D01*
Y31898D01*
X358275Y32095D01*
X359227D01*
Y30638D01*
X360527D01*
Y32095D01*
X361424D01*
X361621Y31898D01*
D02*
G37*
G36*
X341981Y37921D02*
X342078Y37911D01*
X342176Y37897D01*
X342272Y37877D01*
X342367Y37853D01*
X342461Y37824D01*
X342553Y37790D01*
X342643Y37752D01*
X342732Y37710D01*
X342818Y37663D01*
X342902Y37612D01*
X342983Y37556D01*
X343061Y37497D01*
X343136Y37434D01*
X343208Y37367D01*
X343277Y37297D01*
X343342Y37223D01*
X343403Y37147D01*
X343460Y37067D01*
X343513Y36984D01*
X343563Y36900D01*
X343607Y36812D01*
X343648Y36723D01*
X343684Y36631D01*
X343715Y36538D01*
X343741Y36444D01*
X343763Y36348D01*
X343780Y36251D01*
X343793Y36154D01*
X343800Y36056D01*
X343802Y35958D01*
Y31627D01*
X343800Y31529D01*
X343793Y31431D01*
X343780Y31334D01*
X343763Y31237D01*
X343741Y31142D01*
X343715Y31047D01*
X343684Y30954D01*
X343648Y30863D01*
X343607Y30773D01*
X343563Y30686D01*
X343513Y30601D01*
X343460Y30518D01*
X343403Y30439D01*
X343342Y30362D01*
X343277Y30288D01*
X343208Y30218D01*
X343136Y30151D01*
X343061Y30088D01*
X342983Y30029D01*
X342902Y29974D01*
X342818Y29922D01*
X342732Y29875D01*
X342643Y29833D01*
X342553Y29795D01*
X342461Y29761D01*
X342367Y29732D01*
X342272Y29708D01*
X342176Y29689D01*
X342078Y29674D01*
X341981Y29664D01*
X341883Y29659D01*
X341785D01*
X341687Y29664D01*
X341589Y29674D01*
X341492Y29689D01*
X341396Y29708D01*
X341301Y29732D01*
X341207Y29761D01*
X341115Y29795D01*
X341024Y29833D01*
X340936Y29875D01*
X340850Y29922D01*
X340766Y29974D01*
X340685Y30029D01*
X340606Y30088D01*
X340531Y30151D01*
X340459Y30218D01*
X340391Y30288D01*
X340326Y30362D01*
X340265Y30439D01*
X340207Y30518D01*
X340154Y30601D01*
X340105Y30686D01*
X340060Y30773D01*
X340020Y30863D01*
X339984Y30954D01*
X339953Y31047D01*
X339926Y31142D01*
X339904Y31237D01*
X339887Y31334D01*
X339875Y31431D01*
X339868Y31529D01*
X339865Y31627D01*
Y35958D01*
X339868Y36056D01*
X339875Y36154D01*
X339887Y36251D01*
X339904Y36348D01*
X339926Y36444D01*
X339953Y36538D01*
X339984Y36631D01*
X340020Y36723D01*
X340060Y36812D01*
X340105Y36900D01*
X340154Y36984D01*
X340207Y37067D01*
X340265Y37147D01*
X340326Y37223D01*
X340391Y37297D01*
X340459Y37367D01*
X340531Y37434D01*
X340606Y37497D01*
X340685Y37556D01*
X340766Y37612D01*
X340850Y37663D01*
X340936Y37710D01*
X341024Y37752D01*
X341115Y37790D01*
X341207Y37824D01*
X341301Y37853D01*
X341396Y37877D01*
X341492Y37897D01*
X341589Y37911D01*
X341687Y37921D01*
X341785Y37926D01*
X341883D01*
X341981Y37921D01*
D02*
G37*
G36*
X307965D02*
X308063Y37911D01*
X308160Y37897D01*
X308256Y37877D01*
X308351Y37853D01*
X308444Y37824D01*
X308537Y37790D01*
X308627Y37752D01*
X308716Y37710D01*
X308802Y37663D01*
X308886Y37612D01*
X308967Y37556D01*
X309045Y37497D01*
X309120Y37434D01*
X309192Y37367D01*
X309261Y37297D01*
X309326Y37223D01*
X309387Y37147D01*
X309444Y37067D01*
X309498Y36984D01*
X309546Y36900D01*
X309591Y36812D01*
X309632Y36723D01*
X309667Y36631D01*
X309699Y36538D01*
X309725Y36444D01*
X309747Y36348D01*
X309764Y36251D01*
X309776Y36154D01*
X309784Y36056D01*
X309786Y35958D01*
Y31627D01*
X309784Y31529D01*
X309776Y31431D01*
X309764Y31334D01*
X309747Y31237D01*
X309725Y31142D01*
X309699Y31047D01*
X309667Y30954D01*
X309632Y30863D01*
X309591Y30773D01*
X309546Y30686D01*
X309498Y30601D01*
X309444Y30518D01*
X309387Y30439D01*
X309326Y30362D01*
X309261Y30288D01*
X309192Y30218D01*
X309120Y30151D01*
X309045Y30088D01*
X308967Y30029D01*
X308886Y29974D01*
X308802Y29922D01*
X308716Y29875D01*
X308627Y29833D01*
X308537Y29795D01*
X308444Y29761D01*
X308351Y29732D01*
X308256Y29708D01*
X308160Y29689D01*
X308063Y29674D01*
X307965Y29664D01*
X307867Y29659D01*
X307769D01*
X307671Y29664D01*
X307573Y29674D01*
X307476Y29689D01*
X307380Y29708D01*
X307285Y29732D01*
X307191Y29761D01*
X307099Y29795D01*
X307008Y29833D01*
X306920Y29875D01*
X306834Y29922D01*
X306750Y29974D01*
X306669Y30029D01*
X306591Y30088D01*
X306515Y30151D01*
X306443Y30218D01*
X306375Y30288D01*
X306310Y30362D01*
X306248Y30439D01*
X306191Y30518D01*
X306138Y30601D01*
X306089Y30686D01*
X306044Y30773D01*
X306004Y30863D01*
X305968Y30954D01*
X305937Y31047D01*
X305910Y31142D01*
X305888Y31237D01*
X305871Y31334D01*
X305859Y31431D01*
X305852Y31529D01*
X305849Y31627D01*
Y35958D01*
X305852Y36056D01*
X305859Y36154D01*
X305871Y36251D01*
X305888Y36348D01*
X305910Y36444D01*
X305937Y36538D01*
X305968Y36631D01*
X306004Y36723D01*
X306044Y36812D01*
X306089Y36900D01*
X306138Y36984D01*
X306191Y37067D01*
X306248Y37147D01*
X306310Y37223D01*
X306375Y37297D01*
X306443Y37367D01*
X306515Y37434D01*
X306591Y37497D01*
X306669Y37556D01*
X306750Y37612D01*
X306834Y37663D01*
X306920Y37710D01*
X307008Y37752D01*
X307099Y37790D01*
X307191Y37824D01*
X307285Y37853D01*
X307380Y37877D01*
X307476Y37897D01*
X307573Y37911D01*
X307671Y37921D01*
X307769Y37926D01*
X307867D01*
X307965Y37921D01*
D02*
G37*
G36*
X245976Y37763D02*
X246074Y37753D01*
X246171Y37738D01*
X246267Y37719D01*
X246362Y37694D01*
X246456Y37666D01*
X246548Y37632D01*
X246639Y37594D01*
X246727Y37551D01*
X246813Y37505D01*
X246897Y37453D01*
X246978Y37398D01*
X247056Y37339D01*
X247131Y37275D01*
X247203Y37209D01*
X247272Y37139D01*
X247337Y37065D01*
X247398Y36988D01*
X247455Y36909D01*
X247509Y36826D01*
X247558Y36741D01*
X247603Y36654D01*
X247643Y36564D01*
X247679Y36473D01*
X247710Y36380D01*
X247737Y36285D01*
X247758Y36190D01*
X247775Y36093D01*
X247788Y35996D01*
X247795Y35898D01*
X247797Y35800D01*
Y31469D01*
X247795Y31371D01*
X247788Y31273D01*
X247775Y31175D01*
X247758Y31079D01*
X247737Y30983D01*
X247710Y30889D01*
X247679Y30795D01*
X247643Y30704D01*
X247603Y30615D01*
X247558Y30528D01*
X247509Y30443D01*
X247455Y30360D01*
X247398Y30280D01*
X247337Y30203D01*
X247272Y30130D01*
X247203Y30060D01*
X247131Y29993D01*
X247056Y29930D01*
X246978Y29871D01*
X246897Y29815D01*
X246813Y29764D01*
X246727Y29717D01*
X246639Y29675D01*
X246548Y29636D01*
X246456Y29603D01*
X246362Y29574D01*
X246267Y29550D01*
X246171Y29530D01*
X246074Y29516D01*
X245976Y29506D01*
X245878Y29501D01*
X245780D01*
X245682Y29506D01*
X245584Y29516D01*
X245487Y29530D01*
X245391Y29550D01*
X245296Y29574D01*
X245202Y29603D01*
X245110Y29636D01*
X245019Y29675D01*
X244931Y29717D01*
X244845Y29764D01*
X244761Y29815D01*
X244680Y29871D01*
X244602Y29930D01*
X244526Y29993D01*
X244455Y30060D01*
X244386Y30130D01*
X244321Y30203D01*
X244260Y30280D01*
X244202Y30360D01*
X244149Y30443D01*
X244100Y30528D01*
X244055Y30615D01*
X244015Y30704D01*
X243979Y30795D01*
X243948Y30889D01*
X243921Y30983D01*
X243899Y31079D01*
X243882Y31175D01*
X243870Y31273D01*
X243863Y31371D01*
X243861Y31469D01*
Y35800D01*
X243863Y35898D01*
X243870Y35996D01*
X243882Y36093D01*
X243899Y36190D01*
X243921Y36285D01*
X243948Y36380D01*
X243979Y36473D01*
X244015Y36564D01*
X244055Y36654D01*
X244100Y36741D01*
X244149Y36826D01*
X244202Y36909D01*
X244260Y36988D01*
X244321Y37065D01*
X244386Y37139D01*
X244455Y37209D01*
X244526Y37275D01*
X244602Y37339D01*
X244680Y37398D01*
X244761Y37453D01*
X244845Y37505D01*
X244931Y37551D01*
X245019Y37594D01*
X245110Y37632D01*
X245202Y37666D01*
X245296Y37694D01*
X245391Y37719D01*
X245487Y37738D01*
X245584Y37753D01*
X245682Y37763D01*
X245780Y37768D01*
X245878D01*
X245976Y37763D01*
D02*
G37*
G36*
X211960D02*
X212058Y37753D01*
X212155Y37738D01*
X212251Y37719D01*
X212346Y37694D01*
X212440Y37666D01*
X212532Y37632D01*
X212622Y37594D01*
X212711Y37551D01*
X212797Y37505D01*
X212881Y37453D01*
X212962Y37398D01*
X213040Y37339D01*
X213116Y37275D01*
X213187Y37209D01*
X213256Y37139D01*
X213321Y37065D01*
X213382Y36988D01*
X213439Y36909D01*
X213493Y36826D01*
X213542Y36741D01*
X213586Y36654D01*
X213627Y36564D01*
X213663Y36473D01*
X213694Y36380D01*
X213720Y36285D01*
X213742Y36190D01*
X213759Y36093D01*
X213772Y35996D01*
X213779Y35898D01*
X213781Y35800D01*
Y31469D01*
X213779Y31371D01*
X213772Y31273D01*
X213759Y31175D01*
X213742Y31079D01*
X213720Y30983D01*
X213694Y30889D01*
X213663Y30795D01*
X213627Y30704D01*
X213586Y30615D01*
X213542Y30528D01*
X213493Y30443D01*
X213439Y30360D01*
X213382Y30280D01*
X213321Y30203D01*
X213256Y30130D01*
X213187Y30060D01*
X213116Y29993D01*
X213040Y29930D01*
X212962Y29871D01*
X212881Y29815D01*
X212797Y29764D01*
X212711Y29717D01*
X212622Y29675D01*
X212532Y29636D01*
X212440Y29603D01*
X212346Y29574D01*
X212251Y29550D01*
X212155Y29530D01*
X212058Y29516D01*
X211960Y29506D01*
X211862Y29501D01*
X211764D01*
X211666Y29506D01*
X211568Y29516D01*
X211471Y29530D01*
X211375Y29550D01*
X211280Y29574D01*
X211186Y29603D01*
X211094Y29636D01*
X211003Y29675D01*
X210915Y29717D01*
X210829Y29764D01*
X210745Y29815D01*
X210664Y29871D01*
X210586Y29930D01*
X210510Y29993D01*
X210438Y30060D01*
X210370Y30130D01*
X210305Y30203D01*
X210244Y30280D01*
X210187Y30360D01*
X210133Y30443D01*
X210084Y30528D01*
X210039Y30615D01*
X209999Y30704D01*
X209963Y30795D01*
X209932Y30889D01*
X209905Y30983D01*
X209883Y31079D01*
X209866Y31175D01*
X209854Y31273D01*
X209847Y31371D01*
X209844Y31469D01*
Y35800D01*
X209847Y35898D01*
X209854Y35996D01*
X209866Y36093D01*
X209883Y36190D01*
X209905Y36285D01*
X209932Y36380D01*
X209963Y36473D01*
X209999Y36564D01*
X210039Y36654D01*
X210084Y36741D01*
X210133Y36826D01*
X210187Y36909D01*
X210244Y36988D01*
X210305Y37065D01*
X210370Y37139D01*
X210438Y37209D01*
X210510Y37275D01*
X210586Y37339D01*
X210664Y37398D01*
X210745Y37453D01*
X210829Y37505D01*
X210915Y37551D01*
X211003Y37594D01*
X211094Y37632D01*
X211186Y37666D01*
X211280Y37694D01*
X211375Y37719D01*
X211471Y37738D01*
X211568Y37753D01*
X211666Y37763D01*
X211764Y37768D01*
X211862D01*
X211960Y37763D01*
D02*
G37*
G36*
X295320Y37531D02*
X295417Y37521D01*
X295515Y37507D01*
X295611Y37487D01*
X295706Y37463D01*
X295799Y37434D01*
X295892Y37400D01*
X295982Y37362D01*
X296071Y37320D01*
X296157Y37273D01*
X296241Y37222D01*
X296322Y37166D01*
X296400Y37107D01*
X296475Y37044D01*
X296547Y36977D01*
X296616Y36907D01*
X296681Y36833D01*
X296742Y36757D01*
X296799Y36677D01*
X296852Y36595D01*
X296902Y36509D01*
X296946Y36422D01*
X296987Y36333D01*
X297023Y36241D01*
X297054Y36148D01*
X297080Y36054D01*
X297102Y35958D01*
X297119Y35861D01*
X297131Y35764D01*
X297139Y35666D01*
X297141Y35568D01*
Y31237D01*
X297139Y31139D01*
X297131Y31041D01*
X297119Y30944D01*
X297102Y30847D01*
X297080Y30752D01*
X297054Y30657D01*
X297023Y30564D01*
X296987Y30473D01*
X296946Y30383D01*
X296902Y30296D01*
X296852Y30211D01*
X296799Y30128D01*
X296742Y30049D01*
X296681Y29972D01*
X296616Y29898D01*
X296547Y29828D01*
X296475Y29761D01*
X296400Y29698D01*
X296322Y29639D01*
X296241Y29584D01*
X296157Y29532D01*
X296071Y29485D01*
X295982Y29443D01*
X295892Y29405D01*
X295799Y29371D01*
X295706Y29342D01*
X295611Y29318D01*
X295515Y29299D01*
X295417Y29284D01*
X295320Y29274D01*
X295222Y29269D01*
X295124D01*
X295026Y29274D01*
X294928Y29284D01*
X294831Y29299D01*
X294735Y29318D01*
X294640Y29342D01*
X294546Y29371D01*
X294454Y29405D01*
X294363Y29443D01*
X294274Y29485D01*
X294189Y29532D01*
X294105Y29584D01*
X294024Y29639D01*
X293945Y29698D01*
X293870Y29761D01*
X293798Y29828D01*
X293730Y29898D01*
X293665Y29972D01*
X293604Y30049D01*
X293546Y30128D01*
X293493Y30211D01*
X293444Y30296D01*
X293399Y30383D01*
X293359Y30473D01*
X293323Y30564D01*
X293292Y30657D01*
X293265Y30752D01*
X293243Y30847D01*
X293226Y30944D01*
X293214Y31041D01*
X293207Y31139D01*
X293204Y31237D01*
Y35568D01*
X293207Y35666D01*
X293214Y35764D01*
X293226Y35861D01*
X293243Y35958D01*
X293265Y36054D01*
X293292Y36148D01*
X293323Y36241D01*
X293359Y36333D01*
X293399Y36422D01*
X293444Y36509D01*
X293493Y36595D01*
X293546Y36677D01*
X293604Y36757D01*
X293665Y36833D01*
X293730Y36907D01*
X293798Y36977D01*
X293870Y37044D01*
X293945Y37107D01*
X294024Y37166D01*
X294105Y37222D01*
X294189Y37273D01*
X294274Y37320D01*
X294363Y37362D01*
X294454Y37400D01*
X294546Y37434D01*
X294640Y37463D01*
X294735Y37487D01*
X294831Y37507D01*
X294928Y37521D01*
X295026Y37531D01*
X295124Y37536D01*
X295222D01*
X295320Y37531D01*
D02*
G37*
G36*
X261304D02*
X261402Y37521D01*
X261499Y37507D01*
X261595Y37487D01*
X261690Y37463D01*
X261784Y37434D01*
X261876Y37400D01*
X261966Y37362D01*
X262055Y37320D01*
X262141Y37273D01*
X262225Y37222D01*
X262306Y37166D01*
X262384Y37107D01*
X262459Y37044D01*
X262531Y36977D01*
X262600Y36907D01*
X262665Y36833D01*
X262726Y36757D01*
X262783Y36677D01*
X262837Y36595D01*
X262885Y36509D01*
X262930Y36422D01*
X262971Y36333D01*
X263006Y36241D01*
X263038Y36148D01*
X263064Y36054D01*
X263086Y35958D01*
X263103Y35861D01*
X263116Y35764D01*
X263123Y35666D01*
X263125Y35568D01*
Y31237D01*
X263123Y31139D01*
X263116Y31041D01*
X263103Y30944D01*
X263086Y30847D01*
X263064Y30752D01*
X263038Y30657D01*
X263006Y30564D01*
X262971Y30473D01*
X262930Y30383D01*
X262885Y30296D01*
X262837Y30211D01*
X262783Y30128D01*
X262726Y30049D01*
X262665Y29972D01*
X262600Y29898D01*
X262531Y29828D01*
X262459Y29761D01*
X262384Y29698D01*
X262306Y29639D01*
X262225Y29584D01*
X262141Y29532D01*
X262055Y29485D01*
X261966Y29443D01*
X261876Y29405D01*
X261784Y29371D01*
X261690Y29342D01*
X261595Y29318D01*
X261499Y29299D01*
X261402Y29284D01*
X261304Y29274D01*
X261206Y29269D01*
X261107D01*
X261010Y29274D01*
X260912Y29284D01*
X260815Y29299D01*
X260719Y29318D01*
X260624Y29342D01*
X260530Y29371D01*
X260437Y29405D01*
X260347Y29443D01*
X260259Y29485D01*
X260173Y29532D01*
X260089Y29584D01*
X260008Y29639D01*
X259929Y29698D01*
X259854Y29761D01*
X259782Y29828D01*
X259714Y29898D01*
X259649Y29972D01*
X259588Y30049D01*
X259530Y30128D01*
X259477Y30211D01*
X259428Y30296D01*
X259383Y30383D01*
X259343Y30473D01*
X259307Y30564D01*
X259276Y30657D01*
X259249Y30752D01*
X259227Y30847D01*
X259210Y30944D01*
X259198Y31041D01*
X259191Y31139D01*
X259188Y31237D01*
Y35568D01*
X259191Y35666D01*
X259198Y35764D01*
X259210Y35861D01*
X259227Y35958D01*
X259249Y36054D01*
X259276Y36148D01*
X259307Y36241D01*
X259343Y36333D01*
X259383Y36422D01*
X259428Y36509D01*
X259477Y36595D01*
X259530Y36677D01*
X259588Y36757D01*
X259649Y36833D01*
X259714Y36907D01*
X259782Y36977D01*
X259854Y37044D01*
X259929Y37107D01*
X260008Y37166D01*
X260089Y37222D01*
X260173Y37273D01*
X260259Y37320D01*
X260347Y37362D01*
X260437Y37400D01*
X260530Y37434D01*
X260624Y37463D01*
X260719Y37487D01*
X260815Y37507D01*
X260912Y37521D01*
X261010Y37531D01*
X261107Y37536D01*
X261206D01*
X261304Y37531D01*
D02*
G37*
G36*
X135742Y30492D02*
Y27343D01*
X135545Y27146D01*
X134592D01*
Y28602D01*
X133293D01*
Y27146D01*
X132395D01*
X132198Y27343D01*
Y30492D01*
X132395Y30689D01*
X135545D01*
X135742Y30492D01*
D02*
G37*
G36*
X135742Y24232D02*
Y21083D01*
X135545Y20886D01*
X132395D01*
X132198Y21083D01*
Y24232D01*
X132395Y24429D01*
X133348D01*
Y22972D01*
X134647D01*
Y24429D01*
X135545D01*
X135742Y24232D01*
D02*
G37*
G36*
X103186Y24036D02*
Y20887D01*
X102989Y20690D01*
X102037D01*
Y22147D01*
X100737D01*
Y20690D01*
X99840D01*
X99643Y20887D01*
Y24036D01*
X99840Y24233D01*
X102989D01*
X103186Y24036D01*
D02*
G37*
G36*
X84594Y24033D02*
Y20883D01*
X84398Y20686D01*
X83445D01*
Y22143D01*
X82145D01*
Y20686D01*
X81248D01*
X81051Y20883D01*
Y24033D01*
X81248Y24229D01*
X84398D01*
X84594Y24033D01*
D02*
G37*
G36*
X90542Y24025D02*
Y20875D01*
X90345Y20678D01*
X89392D01*
Y22135D01*
X88093D01*
Y20678D01*
X87195D01*
X86998Y20875D01*
Y24025D01*
X87195Y24221D01*
X90345D01*
X90542Y24025D01*
D02*
G37*
G36*
X103186Y17776D02*
Y14627D01*
X102989Y14430D01*
X99840D01*
X99643Y14627D01*
Y17776D01*
X99840Y17973D01*
X100793D01*
Y16517D01*
X102092D01*
Y17973D01*
X102989D01*
X103186Y17776D01*
D02*
G37*
G36*
X84594Y17773D02*
Y14623D01*
X84397Y14426D01*
X81248D01*
X81051Y14623D01*
Y17773D01*
X81248Y17970D01*
X82201D01*
Y16513D01*
X83500D01*
Y17970D01*
X84397D01*
X84594Y17773D01*
D02*
G37*
G36*
X90541Y17765D02*
Y14615D01*
X90345Y14418D01*
X87195D01*
X86998Y14615D01*
Y17765D01*
X87195Y17962D01*
X88148D01*
Y16505D01*
X89447D01*
Y17962D01*
X90345D01*
X90541Y17765D01*
D02*
G37*
G36*
X341981Y20874D02*
X342078Y20864D01*
X342176Y20849D01*
X342272Y20830D01*
X342367Y20805D01*
X342461Y20776D01*
X342553Y20743D01*
X342643Y20705D01*
X342732Y20662D01*
X342818Y20615D01*
X342902Y20564D01*
X342983Y20509D01*
X343061Y20449D01*
X343136Y20386D01*
X343208Y20320D01*
X343277Y20249D01*
X343342Y20176D01*
X343403Y20099D01*
X343460Y20019D01*
X343513Y19937D01*
X343563Y19852D01*
X343607Y19764D01*
X343648Y19675D01*
X343684Y19584D01*
X343715Y19490D01*
X343741Y19396D01*
X343763Y19301D01*
X343780Y19204D01*
X343793Y19106D01*
X343800Y19008D01*
X343802Y18911D01*
Y15761D01*
X343800Y15663D01*
X343793Y15565D01*
X343780Y15467D01*
X343763Y15371D01*
X343741Y15275D01*
X343715Y15180D01*
X343684Y15088D01*
X343648Y14996D01*
X343607Y14907D01*
X343563Y14819D01*
X343513Y14735D01*
X343460Y14652D01*
X343403Y14572D01*
X343342Y14495D01*
X343277Y14422D01*
X343208Y14352D01*
X343136Y14285D01*
X343061Y14222D01*
X342983Y14163D01*
X342902Y14107D01*
X342818Y14056D01*
X342732Y14009D01*
X342643Y13966D01*
X342553Y13928D01*
X342461Y13895D01*
X342367Y13866D01*
X342272Y13842D01*
X342176Y13822D01*
X342078Y13808D01*
X341981Y13798D01*
X341883Y13793D01*
X341785D01*
X341687Y13798D01*
X341589Y13808D01*
X341492Y13822D01*
X341396Y13842D01*
X341301Y13866D01*
X341207Y13895D01*
X341115Y13928D01*
X341024Y13966D01*
X340936Y14009D01*
X340850Y14056D01*
X340766Y14107D01*
X340685Y14163D01*
X340606Y14222D01*
X340531Y14285D01*
X340459Y14352D01*
X340391Y14422D01*
X340326Y14495D01*
X340265Y14572D01*
X340207Y14652D01*
X340154Y14735D01*
X340105Y14819D01*
X340060Y14907D01*
X340020Y14996D01*
X339984Y15088D01*
X339953Y15180D01*
X339926Y15275D01*
X339904Y15371D01*
X339887Y15467D01*
X339875Y15565D01*
X339868Y15663D01*
X339865Y15761D01*
Y18911D01*
X339868Y19008D01*
X339875Y19106D01*
X339887Y19204D01*
X339904Y19301D01*
X339926Y19396D01*
X339953Y19490D01*
X339984Y19584D01*
X340020Y19675D01*
X340060Y19764D01*
X340105Y19852D01*
X340154Y19937D01*
X340207Y20019D01*
X340265Y20099D01*
X340326Y20176D01*
X340391Y20249D01*
X340459Y20320D01*
X340531Y20386D01*
X340606Y20449D01*
X340685Y20509D01*
X340766Y20564D01*
X340850Y20615D01*
X340936Y20662D01*
X341024Y20705D01*
X341115Y20743D01*
X341207Y20776D01*
X341301Y20805D01*
X341396Y20830D01*
X341492Y20849D01*
X341589Y20864D01*
X341687Y20874D01*
X341785Y20878D01*
X341883D01*
X341981Y20874D01*
D02*
G37*
G36*
X307965D02*
X308063Y20864D01*
X308160Y20849D01*
X308256Y20830D01*
X308351Y20805D01*
X308444Y20776D01*
X308537Y20743D01*
X308627Y20705D01*
X308716Y20662D01*
X308802Y20615D01*
X308886Y20564D01*
X308967Y20509D01*
X309045Y20449D01*
X309120Y20386D01*
X309192Y20320D01*
X309261Y20249D01*
X309326Y20176D01*
X309387Y20099D01*
X309444Y20019D01*
X309498Y19937D01*
X309546Y19852D01*
X309591Y19764D01*
X309632Y19675D01*
X309667Y19584D01*
X309699Y19490D01*
X309725Y19396D01*
X309747Y19301D01*
X309764Y19204D01*
X309776Y19106D01*
X309784Y19008D01*
X309786Y18911D01*
Y15761D01*
X309784Y15663D01*
X309776Y15565D01*
X309764Y15467D01*
X309747Y15371D01*
X309725Y15275D01*
X309699Y15180D01*
X309667Y15088D01*
X309632Y14996D01*
X309591Y14907D01*
X309546Y14819D01*
X309498Y14735D01*
X309444Y14652D01*
X309387Y14572D01*
X309326Y14495D01*
X309261Y14422D01*
X309192Y14352D01*
X309120Y14285D01*
X309045Y14222D01*
X308967Y14163D01*
X308886Y14107D01*
X308802Y14056D01*
X308716Y14009D01*
X308627Y13966D01*
X308537Y13928D01*
X308444Y13895D01*
X308351Y13866D01*
X308256Y13842D01*
X308160Y13822D01*
X308063Y13808D01*
X307965Y13798D01*
X307867Y13793D01*
X307769D01*
X307671Y13798D01*
X307573Y13808D01*
X307476Y13822D01*
X307380Y13842D01*
X307285Y13866D01*
X307191Y13895D01*
X307099Y13928D01*
X307008Y13966D01*
X306920Y14009D01*
X306834Y14056D01*
X306750Y14107D01*
X306669Y14163D01*
X306591Y14222D01*
X306515Y14285D01*
X306443Y14352D01*
X306375Y14422D01*
X306310Y14495D01*
X306248Y14572D01*
X306191Y14652D01*
X306138Y14735D01*
X306089Y14819D01*
X306044Y14907D01*
X306004Y14996D01*
X305968Y15088D01*
X305937Y15180D01*
X305910Y15275D01*
X305888Y15371D01*
X305871Y15467D01*
X305859Y15565D01*
X305852Y15663D01*
X305849Y15761D01*
Y18911D01*
X305852Y19008D01*
X305859Y19106D01*
X305871Y19204D01*
X305888Y19301D01*
X305910Y19396D01*
X305937Y19490D01*
X305968Y19584D01*
X306004Y19675D01*
X306044Y19764D01*
X306089Y19852D01*
X306138Y19937D01*
X306191Y20019D01*
X306248Y20099D01*
X306310Y20176D01*
X306375Y20249D01*
X306443Y20320D01*
X306515Y20386D01*
X306591Y20449D01*
X306669Y20509D01*
X306750Y20564D01*
X306834Y20615D01*
X306920Y20662D01*
X307008Y20705D01*
X307099Y20743D01*
X307191Y20776D01*
X307285Y20805D01*
X307380Y20830D01*
X307476Y20849D01*
X307573Y20864D01*
X307671Y20874D01*
X307769Y20878D01*
X307867D01*
X307965Y20874D01*
D02*
G37*
G36*
X245976Y20715D02*
X246074Y20705D01*
X246171Y20691D01*
X246267Y20671D01*
X246362Y20647D01*
X246456Y20618D01*
X246548Y20585D01*
X246639Y20546D01*
X246727Y20504D01*
X246813Y20457D01*
X246897Y20406D01*
X246978Y20350D01*
X247056Y20291D01*
X247131Y20228D01*
X247203Y20161D01*
X247272Y20091D01*
X247337Y20017D01*
X247398Y19941D01*
X247455Y19861D01*
X247509Y19779D01*
X247558Y19693D01*
X247603Y19606D01*
X247643Y19517D01*
X247679Y19425D01*
X247710Y19332D01*
X247737Y19238D01*
X247758Y19142D01*
X247775Y19046D01*
X247788Y18948D01*
X247795Y18850D01*
X247797Y18752D01*
Y15602D01*
X247795Y15504D01*
X247788Y15406D01*
X247775Y15309D01*
X247758Y15212D01*
X247737Y15117D01*
X247710Y15022D01*
X247679Y14929D01*
X247643Y14838D01*
X247603Y14748D01*
X247558Y14661D01*
X247509Y14576D01*
X247455Y14493D01*
X247398Y14414D01*
X247337Y14337D01*
X247272Y14264D01*
X247203Y14193D01*
X247131Y14127D01*
X247056Y14064D01*
X246978Y14004D01*
X246897Y13949D01*
X246813Y13898D01*
X246727Y13851D01*
X246639Y13808D01*
X246548Y13770D01*
X246456Y13736D01*
X246362Y13708D01*
X246267Y13683D01*
X246171Y13664D01*
X246074Y13649D01*
X245976Y13640D01*
X245878Y13634D01*
X245780D01*
X245682Y13640D01*
X245584Y13649D01*
X245487Y13664D01*
X245391Y13683D01*
X245296Y13708D01*
X245202Y13736D01*
X245110Y13770D01*
X245019Y13808D01*
X244931Y13851D01*
X244845Y13898D01*
X244761Y13949D01*
X244680Y14004D01*
X244602Y14064D01*
X244526Y14127D01*
X244455Y14193D01*
X244386Y14264D01*
X244321Y14337D01*
X244260Y14414D01*
X244202Y14493D01*
X244149Y14576D01*
X244100Y14661D01*
X244055Y14748D01*
X244015Y14838D01*
X243979Y14929D01*
X243948Y15022D01*
X243921Y15117D01*
X243899Y15212D01*
X243882Y15309D01*
X243870Y15406D01*
X243863Y15504D01*
X243861Y15602D01*
Y18752D01*
X243863Y18850D01*
X243870Y18948D01*
X243882Y19046D01*
X243899Y19142D01*
X243921Y19238D01*
X243948Y19332D01*
X243979Y19425D01*
X244015Y19517D01*
X244055Y19606D01*
X244100Y19693D01*
X244149Y19779D01*
X244202Y19861D01*
X244260Y19941D01*
X244321Y20017D01*
X244386Y20091D01*
X244455Y20161D01*
X244526Y20228D01*
X244602Y20291D01*
X244680Y20350D01*
X244761Y20406D01*
X244845Y20457D01*
X244931Y20504D01*
X245019Y20546D01*
X245110Y20585D01*
X245202Y20618D01*
X245296Y20647D01*
X245391Y20671D01*
X245487Y20691D01*
X245584Y20705D01*
X245682Y20715D01*
X245780Y20720D01*
X245878D01*
X245976Y20715D01*
D02*
G37*
G36*
X211960D02*
X212058Y20705D01*
X212155Y20691D01*
X212251Y20671D01*
X212346Y20647D01*
X212440Y20618D01*
X212532Y20585D01*
X212622Y20546D01*
X212711Y20504D01*
X212797Y20457D01*
X212881Y20406D01*
X212962Y20350D01*
X213040Y20291D01*
X213116Y20228D01*
X213187Y20161D01*
X213256Y20091D01*
X213321Y20017D01*
X213382Y19941D01*
X213439Y19861D01*
X213493Y19779D01*
X213542Y19693D01*
X213586Y19606D01*
X213627Y19517D01*
X213663Y19425D01*
X213694Y19332D01*
X213720Y19238D01*
X213742Y19142D01*
X213759Y19046D01*
X213772Y18948D01*
X213779Y18850D01*
X213781Y18752D01*
Y15602D01*
X213779Y15504D01*
X213772Y15406D01*
X213759Y15309D01*
X213742Y15212D01*
X213720Y15117D01*
X213694Y15022D01*
X213663Y14929D01*
X213627Y14838D01*
X213586Y14748D01*
X213542Y14661D01*
X213493Y14576D01*
X213439Y14493D01*
X213382Y14414D01*
X213321Y14337D01*
X213256Y14264D01*
X213187Y14193D01*
X213116Y14127D01*
X213040Y14064D01*
X212962Y14004D01*
X212881Y13949D01*
X212797Y13898D01*
X212711Y13851D01*
X212622Y13808D01*
X212532Y13770D01*
X212440Y13736D01*
X212346Y13708D01*
X212251Y13683D01*
X212155Y13664D01*
X212058Y13649D01*
X211960Y13640D01*
X211862Y13634D01*
X211764D01*
X211666Y13640D01*
X211568Y13649D01*
X211471Y13664D01*
X211375Y13683D01*
X211280Y13708D01*
X211186Y13736D01*
X211094Y13770D01*
X211003Y13808D01*
X210915Y13851D01*
X210829Y13898D01*
X210745Y13949D01*
X210664Y14004D01*
X210586Y14064D01*
X210510Y14127D01*
X210438Y14193D01*
X210370Y14264D01*
X210305Y14337D01*
X210244Y14414D01*
X210187Y14493D01*
X210133Y14576D01*
X210084Y14661D01*
X210039Y14748D01*
X209999Y14838D01*
X209963Y14929D01*
X209932Y15022D01*
X209905Y15117D01*
X209883Y15212D01*
X209866Y15309D01*
X209854Y15406D01*
X209847Y15504D01*
X209844Y15602D01*
Y18752D01*
X209847Y18850D01*
X209854Y18948D01*
X209866Y19046D01*
X209883Y19142D01*
X209905Y19238D01*
X209932Y19332D01*
X209963Y19425D01*
X209999Y19517D01*
X210039Y19606D01*
X210084Y19693D01*
X210133Y19779D01*
X210187Y19861D01*
X210244Y19941D01*
X210305Y20017D01*
X210370Y20091D01*
X210438Y20161D01*
X210510Y20228D01*
X210586Y20291D01*
X210664Y20350D01*
X210745Y20406D01*
X210829Y20457D01*
X210915Y20504D01*
X211003Y20546D01*
X211094Y20585D01*
X211186Y20618D01*
X211280Y20647D01*
X211375Y20671D01*
X211471Y20691D01*
X211568Y20705D01*
X211666Y20715D01*
X211764Y20720D01*
X211862D01*
X211960Y20715D01*
D02*
G37*
G36*
X295320Y20484D02*
X295417Y20474D01*
X295515Y20459D01*
X295611Y20440D01*
X295706Y20415D01*
X295799Y20387D01*
X295892Y20353D01*
X295982Y20315D01*
X296071Y20272D01*
X296157Y20225D01*
X296241Y20174D01*
X296322Y20119D01*
X296400Y20060D01*
X296475Y19996D01*
X296547Y19930D01*
X296616Y19860D01*
X296681Y19786D01*
X296742Y19709D01*
X296799Y19629D01*
X296852Y19547D01*
X296902Y19462D01*
X296946Y19375D01*
X296987Y19285D01*
X297023Y19194D01*
X297054Y19101D01*
X297080Y19006D01*
X297102Y18911D01*
X297119Y18814D01*
X297131Y18716D01*
X297139Y18619D01*
X297141Y18520D01*
Y15371D01*
X297139Y15273D01*
X297131Y15175D01*
X297119Y15077D01*
X297102Y14981D01*
X297080Y14885D01*
X297054Y14791D01*
X297023Y14697D01*
X296987Y14606D01*
X296946Y14517D01*
X296902Y14429D01*
X296852Y14345D01*
X296799Y14262D01*
X296742Y14182D01*
X296681Y14106D01*
X296616Y14032D01*
X296547Y13962D01*
X296475Y13895D01*
X296400Y13832D01*
X296322Y13772D01*
X296241Y13717D01*
X296157Y13666D01*
X296071Y13619D01*
X295982Y13577D01*
X295892Y13539D01*
X295799Y13505D01*
X295706Y13476D01*
X295611Y13452D01*
X295515Y13432D01*
X295417Y13418D01*
X295320Y13408D01*
X295222Y13403D01*
X295124D01*
X295026Y13408D01*
X294928Y13418D01*
X294831Y13432D01*
X294735Y13452D01*
X294640Y13476D01*
X294546Y13505D01*
X294454Y13539D01*
X294363Y13577D01*
X294274Y13619D01*
X294189Y13666D01*
X294105Y13717D01*
X294024Y13772D01*
X293945Y13832D01*
X293870Y13895D01*
X293798Y13962D01*
X293730Y14032D01*
X293665Y14106D01*
X293604Y14182D01*
X293546Y14262D01*
X293493Y14345D01*
X293444Y14429D01*
X293399Y14517D01*
X293359Y14606D01*
X293323Y14697D01*
X293292Y14791D01*
X293265Y14885D01*
X293243Y14981D01*
X293226Y15077D01*
X293214Y15175D01*
X293207Y15273D01*
X293204Y15371D01*
Y18520D01*
X293207Y18619D01*
X293214Y18716D01*
X293226Y18814D01*
X293243Y18911D01*
X293265Y19006D01*
X293292Y19101D01*
X293323Y19194D01*
X293359Y19285D01*
X293399Y19375D01*
X293444Y19462D01*
X293493Y19547D01*
X293546Y19629D01*
X293604Y19709D01*
X293665Y19786D01*
X293730Y19860D01*
X293798Y19930D01*
X293870Y19996D01*
X293945Y20060D01*
X294024Y20119D01*
X294105Y20174D01*
X294189Y20225D01*
X294274Y20272D01*
X294363Y20315D01*
X294454Y20353D01*
X294546Y20387D01*
X294640Y20415D01*
X294735Y20440D01*
X294831Y20459D01*
X294928Y20474D01*
X295026Y20484D01*
X295124Y20488D01*
X295222D01*
X295320Y20484D01*
D02*
G37*
G36*
X261304D02*
X261402Y20474D01*
X261499Y20459D01*
X261595Y20440D01*
X261690Y20415D01*
X261784Y20387D01*
X261876Y20353D01*
X261966Y20315D01*
X262055Y20272D01*
X262141Y20225D01*
X262225Y20174D01*
X262306Y20119D01*
X262384Y20060D01*
X262459Y19996D01*
X262531Y19930D01*
X262600Y19860D01*
X262665Y19786D01*
X262726Y19709D01*
X262783Y19629D01*
X262837Y19547D01*
X262885Y19462D01*
X262930Y19375D01*
X262971Y19285D01*
X263006Y19194D01*
X263038Y19101D01*
X263064Y19006D01*
X263086Y18911D01*
X263103Y18814D01*
X263116Y18716D01*
X263123Y18619D01*
X263125Y18520D01*
Y15371D01*
X263123Y15273D01*
X263116Y15175D01*
X263103Y15077D01*
X263086Y14981D01*
X263064Y14885D01*
X263038Y14791D01*
X263006Y14697D01*
X262971Y14606D01*
X262930Y14517D01*
X262885Y14429D01*
X262837Y14345D01*
X262783Y14262D01*
X262726Y14182D01*
X262665Y14106D01*
X262600Y14032D01*
X262531Y13962D01*
X262459Y13895D01*
X262384Y13832D01*
X262306Y13772D01*
X262225Y13717D01*
X262141Y13666D01*
X262055Y13619D01*
X261966Y13577D01*
X261876Y13539D01*
X261784Y13505D01*
X261690Y13476D01*
X261595Y13452D01*
X261499Y13432D01*
X261402Y13418D01*
X261304Y13408D01*
X261206Y13403D01*
X261107D01*
X261010Y13408D01*
X260912Y13418D01*
X260815Y13432D01*
X260719Y13452D01*
X260624Y13476D01*
X260530Y13505D01*
X260437Y13539D01*
X260347Y13577D01*
X260259Y13619D01*
X260173Y13666D01*
X260089Y13717D01*
X260008Y13772D01*
X259929Y13832D01*
X259854Y13895D01*
X259782Y13962D01*
X259714Y14032D01*
X259649Y14106D01*
X259588Y14182D01*
X259530Y14262D01*
X259477Y14345D01*
X259428Y14429D01*
X259383Y14517D01*
X259343Y14606D01*
X259307Y14697D01*
X259276Y14791D01*
X259249Y14885D01*
X259227Y14981D01*
X259210Y15077D01*
X259198Y15175D01*
X259191Y15273D01*
X259188Y15371D01*
Y18520D01*
X259191Y18619D01*
X259198Y18716D01*
X259210Y18814D01*
X259227Y18911D01*
X259249Y19006D01*
X259276Y19101D01*
X259307Y19194D01*
X259343Y19285D01*
X259383Y19375D01*
X259428Y19462D01*
X259477Y19547D01*
X259530Y19629D01*
X259588Y19709D01*
X259649Y19786D01*
X259714Y19860D01*
X259782Y19930D01*
X259854Y19996D01*
X259929Y20060D01*
X260008Y20119D01*
X260089Y20174D01*
X260173Y20225D01*
X260259Y20272D01*
X260347Y20315D01*
X260437Y20353D01*
X260530Y20387D01*
X260624Y20415D01*
X260719Y20440D01*
X260815Y20459D01*
X260912Y20474D01*
X261010Y20484D01*
X261107Y20488D01*
X261206D01*
X261304Y20484D01*
D02*
G37*
D23*
X286759Y368574D02*
D03*
X292270D02*
D03*
X232349Y90767D02*
D03*
X226838D02*
D03*
X290355Y248229D02*
D03*
X295866D02*
D03*
X283858Y248228D02*
D03*
X278347D02*
D03*
X139867Y58466D02*
D03*
X134356D02*
D03*
X139810Y51517D02*
D03*
X134299D02*
D03*
X31868Y60970D02*
D03*
X37379D02*
D03*
X524471Y419428D02*
D03*
X529982D02*
D03*
X284459Y423927D02*
D03*
X278948D02*
D03*
X311834Y424497D02*
D03*
X306323D02*
D03*
X57807Y182629D02*
D03*
X63318D02*
D03*
X137598Y190354D02*
D03*
X132087D02*
D03*
X132227Y157715D02*
D03*
X137738D02*
D03*
X132003Y171277D02*
D03*
X137514D02*
D03*
X464147Y292853D02*
D03*
X469658D02*
D03*
X331586Y378027D02*
D03*
X326075D02*
D03*
X331586Y371475D02*
D03*
X326075D02*
D03*
X407716Y401063D02*
D03*
X402205D02*
D03*
X475196Y76248D02*
D03*
X469685D02*
D03*
X236118Y147313D02*
D03*
X241629D02*
D03*
X275144Y96491D02*
D03*
X280655D02*
D03*
X322358Y94870D02*
D03*
X327870D02*
D03*
X307081Y192858D02*
D03*
X312592D02*
D03*
X307081Y186129D02*
D03*
X312592D02*
D03*
X483456Y202700D02*
D03*
X488967D02*
D03*
X483321Y195821D02*
D03*
X488832D02*
D03*
D24*
X304434Y337662D02*
D03*
Y343567D02*
D03*
D25*
X299463Y357282D02*
D03*
X282200D02*
D03*
X65626Y67396D02*
D03*
X48363D02*
D03*
X117974Y310582D02*
D03*
X100711D02*
D03*
X52401Y310547D02*
D03*
X35138D02*
D03*
X182661Y311000D02*
D03*
X165398D02*
D03*
D26*
X229303Y63050D02*
D03*
X233043Y72774D02*
D03*
X225563D02*
D03*
X185236Y181831D02*
D03*
X181496Y172106D02*
D03*
X188976D02*
D03*
X274253Y78766D02*
D03*
X281733D02*
D03*
X277993Y69042D02*
D03*
X321512Y76560D02*
D03*
X328992D02*
D03*
X325252Y66836D02*
D03*
X452325Y397062D02*
D03*
X444845D02*
D03*
X448585Y406786D02*
D03*
D27*
X233053Y83987D02*
D03*
Y81428D02*
D03*
Y78869D02*
D03*
X225572D02*
D03*
Y81428D02*
D03*
Y83987D02*
D03*
X274311Y89984D02*
D03*
Y87425D02*
D03*
Y84866D02*
D03*
X281791D02*
D03*
Y87425D02*
D03*
Y89984D02*
D03*
X321477Y88064D02*
D03*
Y85505D02*
D03*
Y82946D02*
D03*
X328957D02*
D03*
Y85505D02*
D03*
Y88064D02*
D03*
D28*
X269039Y241062D02*
D03*
Y236062D02*
D03*
Y231062D02*
D03*
Y226062D02*
D03*
X290870Y241062D02*
D03*
Y236062D02*
D03*
Y231062D02*
D03*
Y226062D02*
D03*
D29*
X127609Y87507D02*
D03*
X155257D02*
D03*
X58729Y168769D02*
D03*
X31082D02*
D03*
D30*
X119618Y34237D02*
D03*
Y39748D02*
D03*
X171749Y50590D02*
D03*
Y56101D02*
D03*
X171569Y43700D02*
D03*
Y38189D02*
D03*
X77602Y49565D02*
D03*
Y55076D02*
D03*
X88611Y62954D02*
D03*
Y68465D02*
D03*
X95040Y22154D02*
D03*
Y16643D02*
D03*
X19324Y93310D02*
D03*
Y98821D02*
D03*
X107283Y193109D02*
D03*
Y187598D02*
D03*
X100394Y193109D02*
D03*
Y187598D02*
D03*
X226291Y412141D02*
D03*
Y417652D02*
D03*
X321850Y313582D02*
D03*
Y308071D02*
D03*
X328739Y313477D02*
D03*
Y307966D02*
D03*
X114426Y97491D02*
D03*
Y103002D02*
D03*
X166370Y106626D02*
D03*
Y112137D02*
D03*
X166148Y94536D02*
D03*
Y100047D02*
D03*
X103400Y149696D02*
D03*
Y144185D02*
D03*
X132160Y143804D02*
D03*
Y149315D02*
D03*
X103400Y156722D02*
D03*
Y162233D02*
D03*
X401591Y331234D02*
D03*
Y336745D02*
D03*
X394607Y331234D02*
D03*
Y336745D02*
D03*
X339449Y395652D02*
D03*
Y401162D02*
D03*
X332428Y401162D02*
D03*
Y395651D02*
D03*
X387524Y384579D02*
D03*
Y390090D02*
D03*
X394525Y390089D02*
D03*
Y384578D02*
D03*
X372484Y384594D02*
D03*
Y390105D02*
D03*
X359483Y384481D02*
D03*
Y389992D02*
D03*
X366176Y384648D02*
D03*
Y390159D02*
D03*
X346482Y395652D02*
D03*
Y401162D02*
D03*
X359141Y426609D02*
D03*
Y421098D02*
D03*
X352259Y426580D02*
D03*
Y421069D02*
D03*
X394347Y369151D02*
D03*
Y374662D02*
D03*
X359187Y368494D02*
D03*
Y374005D02*
D03*
X372189Y374009D02*
D03*
Y368498D02*
D03*
X387324Y369151D02*
D03*
Y374662D02*
D03*
X377570Y113085D02*
D03*
Y107574D02*
D03*
X384720Y113085D02*
D03*
Y107574D02*
D03*
X393054Y113085D02*
D03*
Y107574D02*
D03*
X400547Y113085D02*
D03*
Y107574D02*
D03*
X375846Y161136D02*
D03*
Y166647D02*
D03*
X383105Y161136D02*
D03*
Y166647D02*
D03*
X430064Y140715D02*
D03*
Y135204D02*
D03*
X407630Y135219D02*
D03*
Y140730D02*
D03*
X507312Y94437D02*
D03*
Y88927D02*
D03*
X461668Y91444D02*
D03*
Y85932D02*
D03*
X209900Y125566D02*
D03*
Y131077D02*
D03*
X202119Y125657D02*
D03*
Y131168D02*
D03*
X302395Y121784D02*
D03*
Y127295D02*
D03*
X295589Y121870D02*
D03*
Y127381D02*
D03*
X514721Y405584D02*
D03*
Y411095D02*
D03*
X433185Y75142D02*
D03*
Y80653D02*
D03*
X361260Y86544D02*
D03*
Y81033D02*
D03*
D31*
X161892Y60279D02*
D03*
Y45330D02*
D03*
D32*
X124310Y68607D02*
D03*
X139260D02*
D03*
X428071Y375028D02*
D03*
X413122D02*
D03*
D33*
X165945Y188726D02*
D03*
Y159699D02*
D03*
X80118Y243450D02*
D03*
Y214424D02*
D03*
Y202702D02*
D03*
Y173676D02*
D03*
X86731Y150525D02*
D03*
Y121498D02*
D03*
D34*
X148403Y21880D02*
D03*
X164545D02*
D03*
D35*
X147874Y54338D02*
D03*
X147847Y60633D02*
D03*
X113575Y126563D02*
D03*
X113548Y132858D02*
D03*
X126230Y126563D02*
D03*
X126203Y132858D02*
D03*
D36*
X137397Y35773D02*
D03*
X133658Y46009D02*
D03*
X141138Y46009D02*
D03*
X141137Y35772D02*
D03*
X133657Y35773D02*
D03*
D37*
X31554Y74684D02*
D03*
X37849Y74712D02*
D03*
X255332Y310782D02*
D03*
X249037Y310754D02*
D03*
X94069Y308080D02*
D03*
X87774Y308052D02*
D03*
X158343Y307993D02*
D03*
X152048Y307965D02*
D03*
X27501Y307930D02*
D03*
X21206Y307903D02*
D03*
D38*
X30565Y36730D02*
D03*
X69542Y36729D02*
D03*
D39*
X37024Y113000D02*
D03*
X46749Y109259D02*
D03*
Y116740D02*
D03*
X94744Y173425D02*
D03*
X104469Y169685D02*
D03*
Y177165D02*
D03*
X468872Y182969D02*
D03*
Y190450D02*
D03*
X478596Y186710D02*
D03*
D40*
X84089Y31038D02*
D03*
X89089D02*
D03*
X94089D02*
D03*
X99089D02*
D03*
X84089Y54838D02*
D03*
X89089D02*
D03*
X94089D02*
D03*
X99089D02*
D03*
D41*
X91589Y42938D02*
D03*
D42*
X62449Y96735D02*
D03*
X28827D02*
D03*
X73189Y267000D02*
D03*
X106811D02*
D03*
X124001Y106239D02*
D03*
X157623D02*
D03*
D43*
X73487Y97000D02*
D03*
X102513D02*
D03*
D44*
X109027Y146940D02*
D03*
X111586D02*
D03*
X114146D02*
D03*
X116705D02*
D03*
X119264D02*
D03*
X121823D02*
D03*
X124382D02*
D03*
X126941D02*
D03*
X109027Y169505D02*
D03*
X111586D02*
D03*
X114146D02*
D03*
X116705D02*
D03*
X119264D02*
D03*
X121823D02*
D03*
X124382D02*
D03*
X126941D02*
D03*
D45*
X116536Y246260D02*
D03*
X116535Y207283D02*
D03*
D46*
X405563Y418225D02*
D03*
X400641D02*
D03*
X395720D02*
D03*
X390799D02*
D03*
X436120Y418802D02*
D03*
X441041D02*
D03*
X445962D02*
D03*
X450884D02*
D03*
X479897Y418514D02*
D03*
X484819D02*
D03*
X489740D02*
D03*
X494661D02*
D03*
D47*
X380760Y429052D02*
D03*
X415602D02*
D03*
X460923Y429629D02*
D03*
X426081D02*
D03*
X504701Y429341D02*
D03*
X469858D02*
D03*
D48*
X179000Y235189D02*
D03*
Y268811D02*
D03*
D49*
X391656Y321523D02*
D03*
X396656D02*
D03*
X401656D02*
D03*
X406656D02*
D03*
X411656D02*
D03*
X416656D02*
D03*
X421656D02*
D03*
X426656D02*
D03*
X431656D02*
D03*
X436656D02*
D03*
X441656D02*
D03*
X446656D02*
D03*
X451656D02*
D03*
X386656D02*
D03*
X381656D02*
D03*
X376656D02*
D03*
X371656D02*
D03*
X366656D02*
D03*
X361656D02*
D03*
X356656D02*
D03*
X356419Y215224D02*
D03*
X361420D02*
D03*
X366420D02*
D03*
X371420D02*
D03*
X376419D02*
D03*
X381419D02*
D03*
X386420D02*
D03*
X451419D02*
D03*
X446419D02*
D03*
X441420D02*
D03*
X436419D02*
D03*
X431420D02*
D03*
X426419D02*
D03*
X421419D02*
D03*
X416420D02*
D03*
X411419D02*
D03*
X406420D02*
D03*
X401419D02*
D03*
X396420D02*
D03*
X391420D02*
D03*
D50*
X350868Y220971D02*
D03*
Y225972D02*
D03*
Y230972D02*
D03*
Y235971D02*
D03*
Y240971D02*
D03*
Y245971D02*
D03*
Y250972D02*
D03*
Y315971D02*
D03*
Y310971D02*
D03*
Y305972D02*
D03*
Y300972D02*
D03*
Y295971D02*
D03*
Y290971D02*
D03*
Y285971D02*
D03*
Y280972D02*
D03*
Y275972D02*
D03*
Y270971D02*
D03*
Y265971D02*
D03*
Y260971D02*
D03*
Y255972D02*
D03*
X457167Y255853D02*
D03*
Y260853D02*
D03*
Y265853D02*
D03*
Y270853D02*
D03*
Y275853D02*
D03*
Y280853D02*
D03*
Y285853D02*
D03*
Y290853D02*
D03*
Y295853D02*
D03*
Y300853D02*
D03*
Y305853D02*
D03*
Y310853D02*
D03*
Y315853D02*
D03*
Y250853D02*
D03*
Y245853D02*
D03*
Y240853D02*
D03*
Y235853D02*
D03*
Y230853D02*
D03*
Y225853D02*
D03*
Y220853D02*
D03*
D51*
X134220Y307036D02*
D03*
X126739D02*
D03*
X130479Y314910D02*
D03*
X69005Y306509D02*
D03*
X61524D02*
D03*
X65265Y314383D02*
D03*
X197071Y308462D02*
D03*
X189590D02*
D03*
X193331Y316335D02*
D03*
X476862Y389808D02*
D03*
X473122Y381935D02*
D03*
X480602D02*
D03*
D52*
X152636Y295974D02*
D03*
Y285974D02*
D03*
X189250D02*
D03*
Y295974D02*
D03*
X89134D02*
D03*
Y285974D02*
D03*
X125748D02*
D03*
Y295974D02*
D03*
X25394D02*
D03*
Y285974D02*
D03*
X62008D02*
D03*
Y295974D02*
D03*
D53*
X534775Y405198D02*
D03*
X522235Y405195D02*
D03*
D54*
X240708Y410292D02*
D03*
Y421907D02*
D03*
D55*
X234706Y416099D02*
D03*
D56*
X274771Y414893D02*
D03*
X288157D02*
D03*
X302882Y415116D02*
D03*
X316268D02*
D03*
D57*
X410167Y393475D02*
D03*
Y390916D02*
D03*
Y388357D02*
D03*
Y385798D02*
D03*
X427065Y393475D02*
D03*
Y390916D02*
D03*
Y388357D02*
D03*
Y385798D02*
D03*
D58*
X336529Y428189D02*
D03*
Y418504D02*
D03*
X343222D02*
D03*
Y428189D02*
D03*
D59*
X415728Y141840D02*
D03*
Y133179D02*
D03*
X422421D02*
D03*
Y141840D02*
D03*
D60*
X500353Y101217D02*
D03*
X495353D02*
D03*
X490353D02*
D03*
X485353D02*
D03*
X500353Y80095D02*
D03*
X495353D02*
D03*
X490353D02*
D03*
X485353D02*
D03*
D61*
X499811Y53509D02*
D03*
Y59414D02*
D03*
X485573Y53257D02*
D03*
Y59163D02*
D03*
X492943Y53989D02*
D03*
Y59895D02*
D03*
X281552Y45756D02*
D03*
Y51662D02*
D03*
X275509Y45756D02*
D03*
Y51662D02*
D03*
X323005Y45756D02*
D03*
Y51662D02*
D03*
X329052Y45756D02*
D03*
Y51662D02*
D03*
D62*
X466713Y113727D02*
D03*
X474586Y109987D02*
D03*
Y117468D02*
D03*
X258710Y110282D02*
D03*
X250837Y114022D02*
D03*
Y106542D02*
D03*
X258661Y136257D02*
D03*
X250787Y139997D02*
D03*
Y132516D02*
D03*
D63*
X475945Y82724D02*
D03*
X468465D02*
D03*
D64*
Y91809D02*
D03*
X472205D02*
D03*
X475945D02*
D03*
D65*
X242047Y105671D02*
D03*
Y110671D02*
D03*
Y115671D02*
D03*
Y120671D02*
D03*
Y125671D02*
D03*
Y130671D02*
D03*
Y135671D02*
D03*
Y140671D02*
D03*
X219428Y105671D02*
D03*
Y110671D02*
D03*
Y115671D02*
D03*
Y120671D02*
D03*
Y125671D02*
D03*
Y130671D02*
D03*
Y135671D02*
D03*
Y140671D02*
D03*
D66*
X278846Y122160D02*
D03*
X278228Y194601D02*
D03*
X333247D02*
D03*
X333865Y122160D02*
D03*
D67*
X288464Y185939D02*
D03*
X288464Y182003D02*
D03*
Y178065D02*
D03*
Y174129D02*
D03*
Y170191D02*
D03*
Y166255D02*
D03*
Y162317D02*
D03*
Y158381D02*
D03*
Y154443D02*
D03*
Y150507D02*
D03*
Y146569D02*
D03*
Y142633D02*
D03*
Y138695D02*
D03*
Y134759D02*
D03*
Y130821D02*
D03*
X323629Y130821D02*
D03*
X323629Y134758D02*
D03*
Y138695D02*
D03*
Y142632D02*
D03*
Y146569D02*
D03*
Y150506D02*
D03*
Y154443D02*
D03*
Y158380D02*
D03*
Y162317D02*
D03*
Y166254D02*
D03*
Y170191D02*
D03*
Y174128D02*
D03*
Y178065D02*
D03*
Y182002D02*
D03*
Y185939D02*
D03*
D68*
X489719Y187625D02*
D03*
D69*
X527514Y191168D02*
D03*
Y130144D02*
D03*
D70*
X489719Y130145D02*
D03*
D71*
X485782Y134869D02*
D03*
X485782Y139199D02*
D03*
Y143530D02*
D03*
Y147861D02*
D03*
Y152192D02*
D03*
Y156522D02*
D03*
Y160853D02*
D03*
Y165184D02*
D03*
Y169514D02*
D03*
D72*
X443671Y384850D02*
D03*
X464075D02*
D03*
M02*
